<?xml version="1.0" encoding="utf-8"?>
<!-- Generator: Adobe Illustrator 15.0.0, SVG Export Plug-In  -->
<!DOCTYPE svg PUBLIC "-//W3C//DTD SVG 1.1//EN" "http://www.w3.org/Graphics/SVG/1.1/DTD/svg11.dtd" [
	<!ENTITY ns_flows "http://ns.adobe.com/Flows/1.0/">
]>
<svg version="1.1"
	 xmlns="http://www.w3.org/2000/svg" xmlns:xlink="http://www.w3.org/1999/xlink" xmlns:a="http://ns.adobe.com/AdobeSVGViewerExtensions/3.0/"
	 x="0px" y="0px" width="842px" height="595px" viewBox="-355.2 8.5 842 595" enable-background="new -355.2 8.5 842 595"
	 xml:space="preserve">
<defs>
	
		<pattern  x="-355.2" y="8.5" width="51.9" height="51.9" patternUnits="userSpaceOnUse" id="Octagons_Color" viewBox="0 -51.9 51.9 51.9" overflow="visible">
		<g>
			<polygon fill="none" points="0,0 0,-51.9 51.9,-51.9 51.9,0 			"/>
			<polygon fill="none" points="17.3,-25.9 25.9,-17.3 34.6,-25.9 25.9,-34.6 			"/>
			<polygon points="25.9,-43.2 0,-43.2 0,-34.6 25.9,-34.6 			"/>
			<polygon fill="#FBDF38" points="51.9,0 51.9,-8.6 43.2,0 			"/>
			<polygon points="8.6,-25.9 8.6,0 17.3,0 17.3,-25.9 			"/>
			<polygon fill="#FBDF38" points="0,0 8.6,0 0,-8.6 			"/>
			<polygon fill="#FBDF38" points="0,-34.6 0,-17.3 8.6,-25.9 			"/>
			<polygon fill="#FBDF38" points="34.6,-51.9 17.3,-51.9 25.9,-43.2 			"/>
			<polygon fill="#FBDF38" points="0,-51.9 0,-43.2 8.6,-51.9 			"/>
			<polygon fill="#FBDF38" points="17.3,-25.9 25.9,-17.3 34.6,-25.9 25.9,-34.6 			"/>
			<polygon points="43.2,-25.9 43.2,-51.9 34.6,-51.9 34.6,-25.9 			"/>
			<polygon points="25.9,-8.6 51.9,-8.6 51.9,-17.3 25.9,-17.3 			"/>
			<polygon fill="#FBDF38" points="51.9,-17.3 51.9,-34.6 43.2,-25.9 			"/>
			<polygon fill="#FBDF38" points="43.2,-51.9 51.9,-43.2 51.9,-51.9 			"/>
			<polygon fill="#FBDF38" points="17.3,0 34.6,0 25.9,-8.6 			"/>
			<polygon fill="#EC5C2F" points="0,-17.3 0,-8.6 8.6,0 8.6,-25.9 			"/>
			<polygon fill="#EC5C2F" points="25.9,-17.3 17.3,-25.9 17.3,0 25.9,-8.6 			"/>
			<polygon fill="#563996" points="34.6,0 43.2,0 51.9,-8.6 25.9,-8.6 			"/>
			<polygon fill="#563996" points="34.6,-25.9 25.9,-17.3 51.9,-17.3 43.2,-25.9 			"/>
			<polygon fill="#EC5C2F" points="43.2,-25.9 51.9,-34.6 51.9,-43.2 43.2,-51.9 			"/>
			<polygon fill="#EC5C2F" points="25.9,-34.6 34.6,-25.9 34.6,-51.9 25.9,-43.2 			"/>
			<polygon fill="#563996" points="17.3,-51.9 8.6,-51.9 0,-43.2 25.9,-43.2 			"/>
			<polygon fill="#563996" points="17.3,-25.9 25.9,-34.6 0,-34.6 8.6,-25.9 			"/>
			<polygon fill="#563996" points="8.6,-25.9 8.6,0 17.3,0 17.3,-25.9 			"/>
			<polygon fill="#EC5C2F" points="25.9,-8.6 51.9,-8.6 51.9,-17.3 25.9,-17.3 			"/>
			<polygon fill="#563996" points="34.6,-51.9 34.6,-25.9 43.2,-25.9 43.2,-51.9 			"/>
			<polygon fill="#EC5C2F" points="25.9,-43.2 0,-43.2 0,-34.6 25.9,-34.6 			"/>
		</g>
	</pattern>
</defs>
<g>
	<g>
		<path fill="url(#Octagons_Color)" d="M10.7,76.7c10.2-11,18.1-24,25.1-37.2c3.4-6.4,6.5-12.9,9.6-19.5c1.5-3.2,2.9-6.5,4.3-9.7
			c1.1-2.5,3.3-5.9,3.3-8.7c0-3.2-11-1.1-11,2.9c0,1.2,0,2.4,0,3.6c0,2.2,5.2,1.4,6.2,1.1c1.1-0.4,2.2-0.7,3.2-1.3
			c0.9-0.5,4.3-2.2,0.8-1.3c-1.7,0-3.4,0-5.1,0c0.2,0.1,0.4,0.2,0.6,0.2c-0.4-0.6-0.7-1.2-1.1-1.8C45.4,8.5,44.2,12,43,15.4
			c-1.4,4.1,8.6,1,9.8,0c2.4-1.9,5.6-2.6,8.1-4.6c-3.1-0.3-6.3-0.5-9.4-0.8c-2.4,2.7-3.9,6.1-5.8,9.2c-2.7,4.4,6.9,2.4,8.4,1.5
			c3.4-2,7.1-2.7,10.3-5.3c-3.1-0.3-6.3-0.5-9.4-0.8c-1.8,3-2.8,6.2-4.6,9.2c-2.7,4.4,6.9,2.4,8.4,1.5c2.5-1.4,5.4-1.8,8-2.8
			c-2.5-0.5-5.1-0.9-7.6-1.4c-1.2,2.3-2.3,4.6-3.5,6.9c-1.4,2.7,5.3,2.1,6.2,1.8c4-1.3,8.1-2.2,11.9-3.9c-2.2-1-4.3-1.9-6.5-2.9
			c-4.3,3.2-7.1,7.9-10,12.2c-2.2,3.4,4.2,3,5.8,2.6c3.4-1,7-1.3,10.4-2.3c-2.1-0.6-4.1-1.2-6.2-1.8c-0.4,2.1-1.7,3.7-2.3,5.7
			c-1,3.4,6.4,1.9,7.6,1.4c4-1.8,8.1-3,11.5-5.9c-3.1-0.3-6.3-0.5-9.4-0.8c-3.6,3.9-5.7,8.8-9.3,12.6c-3.3,3.5,6.2,2.5,7.2,2.1
			c3.2-1.1,6.3-2.5,9.4-4.1c-2.8-0.5-5.6-1-8.4-1.5c-1.4,2.4-3.2,4.5-4.6,6.9c-2.7,4.5,7.7,2.3,9.4,0.8c2.2-2,4.7-3.7,7-5.7
			c-3.1-0.3-6.3-0.5-9.4-0.8c-0.9,1-1.7,2.4-2.9,3.1c-1.3,0.9-3.5,3-1,4c2,0.9,4.2,0.7,6.3,0.1c1.2-0.3,2.3-0.8,3.4-1.4
			c1.2-0.6,2.9-0.8-0.2-0.1c-1.9-0.2-3.9-0.3-5.8-0.5c0.1,0.1,0.1,0.2,0.2,0.2c0-0.7,0-1.4,0-2.1c-0.8,1.1-1.5,2.3-2.3,3.4
			c-2.6,3.9,5.7,2.8,7.2,2.1c2.9-1.3,6-2,9-3c-1.9-0.9-3.8-1.7-5.8-2.6c-1.5,2.7-3.2,5.3-4.6,8c-2.5,4.7,7.7,2.4,9.4,0.8
			c2.2-2,4.7-3.7,7-5.7c-3.1-0.3-6.3-0.5-9.4-0.8C83.1,55.5,80.2,61,77,66.3c-2.6,4.4,6.9,2.4,8.4,1.5c3.7-2.2,7.9-3.5,11.6-5.7
			c-2.9,0-5.9,0-8.8,0c6.6,12.5,12,25.8,17.7,38.7c12.1,27,24.1,54,36,81c29.3,66.1,58.4,132.4,87.6,198.5
			c12.8,28.9,25.5,57.9,38.4,86.7c1.6,3.6,12.3,0.2,11-2.9c-22.5-50.2-44.5-100.6-66.7-150.9C184,249.2,155.8,185,127.3,121
			c-9.2-20.6-17.6-41.9-28.1-61.9c-1.5-2.8-6.8-1.3-8.8,0c-3.7,2.2-7.9,3.5-11.6,5.7c2.8,0.5,5.6,1,8.4,1.5
			c3.2-5.3,6.1-10.8,9.3-16.1c2.7-4.5-7.7-2.3-9.4-0.8c-2.2,2-4.7,3.7-7,5.7c3.1,0.3,6.3,0.5,9.4,0.8c1.5-2.7,3.2-5.3,4.6-8
			c1.8-3.4-3.9-3.2-5.8-2.6c-4,1.3-8.1,2.2-11.9,3.9c2.4,0.7,4.8,1.4,7.2,2.1c0.8-1.1,1.5-2.3,2.3-3.4c0.5-0.8,0.5-1.3,0-2.1
			c-0.1-0.1-0.1-0.2-0.2-0.2c-1-1.5-4.5-0.8-5.8-0.5C79,45.4,78,45.8,77,46.3c-1.4,0.7-2.5,0.5,0.6,0.1c1.2,0.1,2.4,0.2,3.6,0.3
			c-0.2-0.1-0.4-0.2-0.5-0.2c-0.3,1.3-0.7,2.7-1,4c2.6-1.7,4.3-3.7,6.4-6c1.3-1.5-0.3-2.6-1.7-2.9c-2.5-0.4-5.8,0.4-7.7,2.1
			c-2.2,2-4.7,3.7-7,5.7c3.1,0.3,6.3,0.5,9.4,0.8c1.4-2.4,3.2-4.5,4.6-6.9c2.7-4.5-6.9-2.2-8.4-1.5c-2.2,1.1-4.5,2-6.9,2.8
			c2.4,0.7,4.8,1.4,7.2,2.1c3.6-3.9,5.7-8.8,9.3-12.6c1.3-1.4-0.4-2.6-1.7-2.9c-2.6-0.5-5.7,0.4-7.7,2.1c-2,1.7-4.7,2.2-7,3.3
			c2.5,0.5,5.1,0.9,7.6,1.4c0.6-2.1,1.9-3.6,2.3-5.7c0.5-2.9-4.7-2.3-6.2-1.8c-3.4,1-7,1.3-10.4,2.3c1.9,0.9,3.8,1.7,5.8,2.6
			c2.5-3.8,4.9-8,8.6-10.7c4.7-3.5-4.4-3.8-6.5-2.9c-2.9,1.3-6,2-9,3c2.1,0.6,4.1,1.2,6.2,1.8c1.2-2.3,2.3-4.6,3.5-6.9
			c1.6-3.2-6.8-1.7-7.6-1.4c-3.6,1.4-7.1,2.1-10.5,4.1c2.8,0.5,5.6,1,8.4,1.5c1.8-3,2.8-6.2,4.6-9.2c2.8-4.6-7.8-2.1-9.4-0.8
			c-2.2,1.8-5.8,2.4-8.3,3.9c2.8,0.5,5.6,1,8.4,1.5c1.9-3.1,3.4-6.5,5.8-9.2C63,8.7,61.3,7.5,60,7.2c-2.6-0.5-5.7,0.4-7.7,2.1
			c-2.4,1.9-5.6,2.6-8.1,4.6c3.3,0,6.5,0,9.8,0c1.2-3.4,2.3-6.9,3.5-10.3c0.3-0.8-0.4-1.5-1.1-1.8c-2.1-0.9-4.1-0.7-6.3-0.1
			c-1.2,0.4-2.3,0.9-3.4,1.6c-1.7,1.1-4.7,2.4,0,0.8c2.1,0.4,4.1,0.7,6.2,1.1c0-1.2,0-2.4,0-3.6c0-3.2-11-1.1-11,2.9
			c0,1.8-2.5,5.5-3.2,7.2c-1.4,3.3-2.8,6.5-4.3,9.7c-3.2,7.1-6.6,14.1-10.3,20.9C17.5,54.5,10,66.5,0.5,76.6c-1.8,2,1.6,3,2.9,3
			C6.1,79.6,8.9,78.7,10.7,76.7L10.7,76.7z"/>
	</g>
</g>
<radialGradient id="SVGID_1_" cx="136.8472" cy="120.2373" r="28.9166" gradientTransform="matrix(0.9699 0 0 0.9607 -0.9238 24.9744)" gradientUnits="userSpaceOnUse">
	<stop  offset="0" style="stop-color:#EF4136"/>
	<stop  offset="0.5879" style="stop-color:#ED1C24"/>
	<stop  offset="1" style="stop-color:#BE1E2D"/>
	<a:midPointStop  offset="0" style="stop-color:#EF4136"/>
	<a:midPointStop  offset="0.5" style="stop-color:#EF4136"/>
	<a:midPointStop  offset="0.5879" style="stop-color:#ED1C24"/>
	<a:midPointStop  offset="0.5" style="stop-color:#ED1C24"/>
	<a:midPointStop  offset="1" style="stop-color:#BE1E2D"/>
</radialGradient>
<path fill="url(#SVGID_1_)" d="M161.9,140.5c0,14.2-13.5,25.6-30,25.6c-16.6,0-30-11.5-30-25.6c0-14.2,13.5-25.6,30-25.6
	C148.4,114.8,161.9,126.3,161.9,140.5z"/>
<g>
	<g>
		<path fill="#FFFFFF" d="M138.2,124.5c7.3-0.3,12.3,7.4,13.3,13.8c1.1,7.3-0.7,15.3-5.5,21c-0.5,0.6,1.4,0.5,1.8,0
			c5.4-6.4,6.7-14.8,5.4-22.9c-1-6.6-7.3-13.3-14.3-13C138.3,123.4,136.9,124.5,138.2,124.5L138.2,124.5z"/>
	</g>
</g>
<g>
	<g>
		<path fill="#FFFFFF" d="M124.6,122.7c-5.7,1.1-11.7,4.9-13.5,10.7c-0.2,0.6,1.7,0.3,1.9-0.3c1.5-4.8,6.4-8.6,11.2-9.5
			C125.1,123.4,125.9,122.4,124.6,122.7L124.6,122.7z"/>
	</g>
</g>
<linearGradient id="SVGID_2_" gradientUnits="userSpaceOnUse" x1="249.7485" y1="218.2832" x2="233.6899" y2="210.7949">
	<stop  offset="0" style="stop-color:#C49A6C"/>
	<stop  offset="0.1697" style="stop-color:#A97C50"/>
	<stop  offset="0.3152" style="stop-color:#C49A6C"/>
	<stop  offset="0.4788" style="stop-color:#A97C50"/>
	<stop  offset="0.7152" style="stop-color:#C49A6C"/>
	<stop  offset="0.8667" style="stop-color:#A97C50"/>
	<stop  offset="1" style="stop-color:#C49A6C"/>
	<a:midPointStop  offset="0" style="stop-color:#C49A6C"/>
	<a:midPointStop  offset="0.5" style="stop-color:#C49A6C"/>
	<a:midPointStop  offset="0.1697" style="stop-color:#A97C50"/>
	<a:midPointStop  offset="0.5" style="stop-color:#A97C50"/>
	<a:midPointStop  offset="0.3152" style="stop-color:#C49A6C"/>
	<a:midPointStop  offset="0.5" style="stop-color:#C49A6C"/>
	<a:midPointStop  offset="0.4788" style="stop-color:#A97C50"/>
	<a:midPointStop  offset="0.5" style="stop-color:#A97C50"/>
	<a:midPointStop  offset="0.7152" style="stop-color:#C49A6C"/>
	<a:midPointStop  offset="0.5" style="stop-color:#C49A6C"/>
	<a:midPointStop  offset="0.8667" style="stop-color:#A97C50"/>
	<a:midPointStop  offset="0.5" style="stop-color:#A97C50"/>
	<a:midPointStop  offset="1" style="stop-color:#C49A6C"/>
</linearGradient>
<path fill="url(#SVGID_2_)" d="M207.5,305.7c0,0,2-12,3.3-15.8c14.1-42,63.8-166.8,63.8-166.8l4.7,1.8c0,0-46.4,125.8-63.8,166.8
	C213.9,295.4,207.5,305.7,207.5,305.7z"/>
<linearGradient id="SVGID_3_" gradientUnits="userSpaceOnUse" x1="205.4829" y1="112.3755" x2="262.7199" y2="-4.9777">
	<stop  offset="0" style="stop-color:#ED1C24"/>
	<stop  offset="0.5" style="stop-color:#BE1E2D"/>
	<stop  offset="1" style="stop-color:#ED1C24"/>
	<a:midPointStop  offset="0" style="stop-color:#ED1C24"/>
	<a:midPointStop  offset="0.5" style="stop-color:#ED1C24"/>
	<a:midPointStop  offset="0.5" style="stop-color:#BE1E2D"/>
	<a:midPointStop  offset="0.5" style="stop-color:#BE1E2D"/>
	<a:midPointStop  offset="1" style="stop-color:#ED1C24"/>
</linearGradient>
<path fill="url(#SVGID_3_)" stroke="#BE1E2D" stroke-miterlimit="10" d="M155.8,80.2c1.3,0.2,2.7,0.5,4,1
	c6.5,2.5,10.7,8.2,10.7,14.1l1.9,0.7l143.2-75.2L155.8,80.2z"/>
<linearGradient id="SVGID_4_" gradientUnits="userSpaceOnUse" x1="272.6958" y1="135.2349" x2="325.5975" y2="26.7702">
	<stop  offset="0" style="stop-color:#ED1C24"/>
	<stop  offset="0.5" style="stop-color:#BE1E2D"/>
	<stop  offset="1" style="stop-color:#ED1C24"/>
	<a:midPointStop  offset="0" style="stop-color:#ED1C24"/>
	<a:midPointStop  offset="0.5" style="stop-color:#ED1C24"/>
	<a:midPointStop  offset="0.5" style="stop-color:#BE1E2D"/>
	<a:midPointStop  offset="0.5" style="stop-color:#BE1E2D"/>
	<a:midPointStop  offset="1" style="stop-color:#ED1C24"/>
</linearGradient>
<path fill="url(#SVGID_4_)" stroke="#BE1E2D" stroke-miterlimit="10" d="M276.8,124.7c6.6,2.5,10.8,8.5,10.6,14.4l0.7,0.3
	l27.2-117.7l-56.5,106.7l0.5,0.2C263,124,270.1,122.2,276.8,124.7z"/>
<linearGradient id="SVGID_5_" gradientUnits="userSpaceOnUse" x1="230.2437" y1="121.0337" x2="286.1337" y2="6.4421">
	<stop  offset="0" style="stop-color:#ED1C24"/>
	<stop  offset="0.5" style="stop-color:#BE1E2D"/>
	<stop  offset="1" style="stop-color:#ED1C24"/>
	<a:midPointStop  offset="0" style="stop-color:#ED1C24"/>
	<a:midPointStop  offset="0.5" style="stop-color:#ED1C24"/>
	<a:midPointStop  offset="0.5" style="stop-color:#BE1E2D"/>
	<a:midPointStop  offset="0.5" style="stop-color:#BE1E2D"/>
	<a:midPointStop  offset="1" style="stop-color:#ED1C24"/>
</linearGradient>
<path fill="url(#SVGID_5_)" stroke="#BE1E2D" stroke-miterlimit="10" d="M216.7,106.3c5.7,2.1,9.9,6.2,11.6,10.7l1.9,0.7l85.4-96.9
	l-114.7,85.9l0,0C205.2,104.5,211,104.2,216.7,106.3z"/>
<path fill="#FFFFFF" stroke="#BE1E2D" stroke-miterlimit="10" d="M247.9,114.7c6.4,2.4,10.5,7.9,10.7,13.6l0.1,0l56.9-107.6
	l-86.3,96.6l1.5,0.6C234.7,113.8,241.5,112.3,247.9,114.7z"/>
<path fill="#FFFFFF" stroke="#BE1E2D" stroke-miterlimit="10" d="M188.9,94.7c6,2.3,10.3,6.9,11.7,11.9l0.2,0.1l115.1-86.8
	L171.5,95.7l0.8,0.3C176.6,93.1,182.9,92.4,188.9,94.7z"/>
<linearGradient id="SVGID_6_" gradientUnits="userSpaceOnUse" x1="329.813" y1="147.811" x2="376.954" y2="51.1575">
	<stop  offset="0" style="stop-color:#ED1C24"/>
	<stop  offset="0.5" style="stop-color:#BE1E2D"/>
	<stop  offset="1" style="stop-color:#ED1C24"/>
	<a:midPointStop  offset="0" style="stop-color:#ED1C24"/>
	<a:midPointStop  offset="0.5" style="stop-color:#ED1C24"/>
	<a:midPointStop  offset="0.5" style="stop-color:#BE1E2D"/>
	<a:midPointStop  offset="0.5" style="stop-color:#BE1E2D"/>
	<a:midPointStop  offset="1" style="stop-color:#ED1C24"/>
</linearGradient>
<path fill="url(#SVGID_6_)" stroke="#BE1E2D" stroke-miterlimit="10" d="M397.5,168.2c-1.1-0.7-2.3-1.3-3.7-1.8
	c-6.6-2.3-13.5-0.6-17.3,3.9l-1.9-0.7l-60.3-149L397.5,168.2z"/>
<linearGradient id="SVGID_7_" gradientUnits="userSpaceOnUse" x1="304.0981" y1="143.2671" x2="354.3904" y2="40.1526">
	<stop  offset="0" style="stop-color:#ED1C24"/>
	<stop  offset="0.5" style="stop-color:#BE1E2D"/>
	<stop  offset="1" style="stop-color:#ED1C24"/>
	<a:midPointStop  offset="0" style="stop-color:#ED1C24"/>
	<a:midPointStop  offset="0.5" style="stop-color:#ED1C24"/>
	<a:midPointStop  offset="0.5" style="stop-color:#BE1E2D"/>
	<a:midPointStop  offset="0.5" style="stop-color:#BE1E2D"/>
	<a:midPointStop  offset="1" style="stop-color:#ED1C24"/>
</linearGradient>
<path fill="url(#SVGID_7_)" stroke="#BE1E2D" stroke-miterlimit="10" d="M334,149.1c-5.7-2-11.6-1.6-15.8,0.7l-1.9-0.7l-2-128.6
	l31.6,139l0,0C344,155.1,339.7,151.1,334,149.1z"/>
<path fill="#FFFFFF" stroke="#BE1E2D" stroke-miterlimit="10" d="M304.7,135.6c-6.4-2.3-13.2-0.6-17,3.6l-0.1,0l26.7-118.5
	l2.9,128.9l-1.5-0.5C315.3,143.3,311.1,137.8,304.7,135.6z"/>
<path fill="#FFFFFF" stroke="#BE1E2D" stroke-miterlimit="10" d="M362.7,158c-6.1-2.1-12.4-1.3-16.7,1.6l-0.2-0.1L314.6,19.7
	l60.9,150.3l-0.8-0.3C373.2,164.7,368.8,160.2,362.7,158z"/>
<path fill="#BE1E2D" stroke="#BE1E2D" stroke-miterlimit="10" d="M314.2,13.9c1.6-4.3,4.3-7.2,5.9-6.6c1.6,0.6,1.6,4.6-0.1,8.8
	c-1.6,4.3-4.3,7.3-5.9,6.6C312.5,22.1,312.6,18.1,314.2,13.9z"/>
<radialGradient id="SVGID_8_" cx="206.4097" cy="325.5664" r="124.5897" gradientTransform="matrix(1.2138 0 0 1.0785 -54.3589 -14.1582)" gradientUnits="userSpaceOnUse">
	<stop  offset="6.060610e-003" style="stop-color:#F9ED32"/>
	<stop  offset="0.2182" style="stop-color:#FBB040"/>
	<stop  offset="0.4182" style="stop-color:#F7941E"/>
	<stop  offset="0.6667" style="stop-color:#F26522"/>
	<stop  offset="1" style="stop-color:#EF4136"/>
	<a:midPointStop  offset="6.060610e-003" style="stop-color:#F9ED32"/>
	<a:midPointStop  offset="0.5" style="stop-color:#F9ED32"/>
	<a:midPointStop  offset="0.2182" style="stop-color:#FBB040"/>
	<a:midPointStop  offset="0.5" style="stop-color:#FBB040"/>
	<a:midPointStop  offset="0.4182" style="stop-color:#F7941E"/>
	<a:midPointStop  offset="0.5" style="stop-color:#F7941E"/>
	<a:midPointStop  offset="0.6667" style="stop-color:#F26522"/>
	<a:midPointStop  offset="0.5" style="stop-color:#F26522"/>
	<a:midPointStop  offset="1" style="stop-color:#EF4136"/>
</radialGradient>
<path fill="url(#SVGID_8_)" stroke="#A7A9AC" stroke-width="7.0866" stroke-miterlimit="10" d="M289.5,366.3
	c-23.4-39.9-13.9-143.2-6.1-186.6c-27.3-3.5-66.7,14-96,14c-15.3,0-55.4-0.7-69.7-14.3c3.3,16.6,24.1,106,4,122.8
	c-20.4,33.3-42.9,64.1-44.9,104c-3.9,81.5,126.8,107.5,193.1,74.5C336.3,449.5,318.8,414.9,289.5,366.3z"/>
<g>
	
		<radialGradient id="SVGID_9_" cx="207.1938" cy="546.916" r="90.5241" gradientTransform="matrix(1 0 0 0.55 0 246.1122)" gradientUnits="userSpaceOnUse">
		<stop  offset="0" style="stop-color:#E6E7E8"/>
		<stop  offset="0.3879" style="stop-color:#D1D3D4"/>
		<stop  offset="0.7515" style="stop-color:#BCBEC0"/>
		<stop  offset="1" style="stop-color:#A7A9AC"/>
		<a:midPointStop  offset="0" style="stop-color:#E6E7E8"/>
		<a:midPointStop  offset="0.5" style="stop-color:#E6E7E8"/>
		<a:midPointStop  offset="0.3879" style="stop-color:#D1D3D4"/>
		<a:midPointStop  offset="0.5" style="stop-color:#D1D3D4"/>
		<a:midPointStop  offset="0.7515" style="stop-color:#BCBEC0"/>
		<a:midPointStop  offset="0.5" style="stop-color:#BCBEC0"/>
		<a:midPointStop  offset="1" style="stop-color:#A7A9AC"/>
	</radialGradient>
	<path fill="url(#SVGID_9_)" d="M157.6,490.1c31.4,7.6,24.6,56.1-3.3,56.6l15.4-15.3c-33.4-3.7-104.3,26.9-66.3,52.9
		c34,24,90,20,130,18c20-2,104-8,86-46c-8-16-76.4-25.1-92.4-25.1l19.9,23.3c-28-6-29.6-44.8-7.6-60.8c0,0-31.2,4.8-43,3.8
		C186.5,496.5,157.6,490.1,157.6,490.1z"/>
	<g>
		<path fill="#A7A9AC" d="M153.2,492.3c12.7,3.3,19.6,14.3,19.7,27c0.1,9.2-5.2,24.5-16.2,25c0.9,0.7,1.8,1.4,2.7,2.1
			c5.1-5.1,10.3-10.2,15.4-15.3c1.3-1.3-0.3-2-1.5-2.1c-18.1-1.8-37.3,3.2-53.8,10.3c-11.7,5-31.6,14.5-32.4,29.4
			c-0.4,7.2,4.8,12.8,10.2,16.9c9.1,6.7,19.8,11.1,30.7,14.2c23.8,6.8,49.2,7,73.7,6.3c32.2-0.9,66.2-2.7,96.8-13.7
			c11.2-4,26.5-11.2,28.7-24.4c2.5-14.8-10.3-21.5-22-25.8c-13.6-5-28.1-7.7-42.4-10c-11-1.8-22.2-3.4-33.4-3.4
			c-1.3,0-9.6,1.9-7.5,4.4c6.6,7.8,13.3,15.5,19.9,23.3c3.2-1.4,6.4-2.8,9.6-4.2c-26.8-6.3-27.6-43.3-7.9-58.2
			c3.3-2.5-1.3-2.9-3.3-2.6c-12.9,2-26.5,4.4-39.6,3.7c-12.8-0.7-26-4.4-38.5-7.2c-2.5-0.6-5.4,0.2-7.7,1.3
			C153.5,489.6,150.6,491.7,153.2,492.3c13.4,3,27.4,6.8,41.2,7.6c14.5,0.8,29.6-1.8,43.9-4c-1.1-0.9-2.2-1.7-3.3-2.6
			c-11,8.3-17,21.1-16.3,34.9c0.7,14,10.1,25.3,23.7,28.5c1.6,0.4,12-1.3,9.6-4.2c-6.6-7.8-13.3-15.5-19.9-23.3
			c-2.5,1.5-5,2.9-7.5,4.4c14.3,0.1,31.2,3.1,45.9,6.1c9,1.9,17.9,4.1,26.5,7.3c5.6,2,12.8,4.7,16.3,9.9
			c8.1,11.8-0.5,23.6-11.2,29.2c-13.4,7-29.4,9.4-44.2,11.4c-15.3,2.1-30.6,3-45.9,3.6c-25.1,1-50.8,0.9-75.2-5.7
			c-11.1-3-22-7.8-31.1-14.9c-5.4-4.2-9.3-10.4-7.1-17.4c2.1-6.9,8.7-11.7,14.5-15.4c7.7-4.9,16.4-8.2,25.1-10.6
			c9-2.5,18.6-4.1,28-3.2c-0.5-0.7-1-1.4-1.5-2.1c-5.1,5.1-10.3,10.2-15.4,15.3c-1.8,1.8,1.6,2.2,2.7,2.1
			c15.9-0.6,28.6-11,31.3-26.7c2.7-15.7-5.6-30.5-21.2-34.6c-2.5-0.6-5.5,0.2-7.7,1.3C153.4,489.6,150.7,491.7,153.2,492.3z"/>
	</g>
</g>
<g>
	
		<radialGradient id="SVGID_10_" cx="193.2056" cy="563.5762" r="12.1394" gradientTransform="matrix(1 0 0 0.55 0 253.6093)" gradientUnits="userSpaceOnUse">
		<stop  offset="0" style="stop-color:#E6E7E8"/>
		<stop  offset="0.3879" style="stop-color:#D1D3D4"/>
		<stop  offset="0.7515" style="stop-color:#BCBEC0"/>
		<stop  offset="1" style="stop-color:#A7A9AC"/>
		<a:midPointStop  offset="0" style="stop-color:#E6E7E8"/>
		<a:midPointStop  offset="0.5" style="stop-color:#E6E7E8"/>
		<a:midPointStop  offset="0.3879" style="stop-color:#D1D3D4"/>
		<a:midPointStop  offset="0.5" style="stop-color:#D1D3D4"/>
		<a:midPointStop  offset="0.7515" style="stop-color:#BCBEC0"/>
		<a:midPointStop  offset="0.5" style="stop-color:#BCBEC0"/>
		<a:midPointStop  offset="1" style="stop-color:#A7A9AC"/>
	</radialGradient>
	<path fill="url(#SVGID_10_)" d="M176.2,561.2c10,6,22,6,34,2"/>
	<g>
		<path fill="#A7A9AC" d="M168.4,563.9c13.9,7.9,30,5.4,44.5,0.8c0.5-0.2,7.4-2.9,5-4.2c-2.8-1.6-7.8,0.3-10.5,1.2
			c-8,2.5-16.3,0.9-23.5-3.2c-2.7-1.5-7.9,0.3-10.5,1.2C172.9,559.8,166.1,562.5,168.4,563.9L168.4,563.9z"/>
	</g>
</g>
<radialGradient id="SVGID_11_" cx="207.6343" cy="265.8389" r="49.3204" gradientTransform="matrix(0.9699 0 0 0.9607 -0.9238 24.9744)" gradientUnits="userSpaceOnUse">
	<stop  offset="0" style="stop-color:#FFFFFF;stop-opacity:0"/>
	<stop  offset="0.1879" style="stop-color:#FFFFFF;stop-opacity:0"/>
	<stop  offset="0.6364" style="stop-color:#FFFFFF;stop-opacity:0.6512"/>
	<stop  offset="0.699" style="stop-color:#EAE5DB;stop-opacity:0.7027"/>
	<stop  offset="0.7804" style="stop-color:#D8CFBE;stop-opacity:0.7696"/>
	<stop  offset="0.8594" style="stop-color:#CCC0AA;stop-opacity:0.8344"/>
	<stop  offset="0.934" style="stop-color:#C5B89F;stop-opacity:0.8958"/>
	<stop  offset="1" style="stop-color:#C2B59B;stop-opacity:0.95"/>
	<a:midPointStop  offset="0" style="stop-color:#FFFFFF;stop-opacity:0"/>
	<a:midPointStop  offset="0.5" style="stop-color:#FFFFFF;stop-opacity:0"/>
	<a:midPointStop  offset="0.1879" style="stop-color:#FFFFFF;stop-opacity:0"/>
	<a:midPointStop  offset="0.5607" style="stop-color:#FFFFFF;stop-opacity:0"/>
	<a:midPointStop  offset="0.6364" style="stop-color:#FFFFFF;stop-opacity:0.6512"/>
	<a:midPointStop  offset="0.3186" style="stop-color:#FFFFFF;stop-opacity:0.6512"/>
	<a:midPointStop  offset="1" style="stop-color:#C2B59B;stop-opacity:0.95"/>
</radialGradient>
<path fill-rule="evenodd" clip-rule="evenodd" fill="url(#SVGID_11_)" stroke="#FFFFFF" stroke-width="0.2835" stroke-miterlimit="10" d="
	M250.9,270.5c-8.9-5-19-11.8-35.3-11.7c-9.4,0.1-33.5,1.2-38.3,5.8c-6.5,6.2-4.1,43.3-1,50.5c3.1,7.1,16.1,16.4,22.6,17.5
	c9.1,1.6,18-2.5,25.5-3.9c8.3-1.5,16.7-1.4,24.5-5.8C251.9,308.2,252.6,286.7,250.9,270.5z M202,260.1l5-0.2c0.4,0,10.5-1,14.4-0.3
	c0.8,0.1,5.7,1.5,8,2.5c3.5,1.5,8.5,4.7,11.8,6.5c0.6,0.3-3.5-0.8-4.1-1.1c-0.3-0.1-11.7-5.4-15.2-5.9c-4.4-0.7-4-1-15.7-1
	C204.8,260.6,201.4,260.1,202,260.1z M193.9,265.3c3.7-2.2,8.1-1.7,12.2-2.1c0.5-0.1,0.9-0.1,1.4-0.2c0,0,0.1,0,0.1,0c0,0,0,0,0,0
	c0,0,0.1,0,0.1,0c0.6-0.1,0.7,0.9,0.1,1c-0.5,0.1-1,0.2-1.5,0.2c-2.3,0.4-4.6,1.1-6.8,1.8c5.5-0.2,11-0.5,16.5-0.5c0.6,0,0.6,1,0,1
	c-4.6,0-9.1,0.5-13.5,1.6c6.5-0.2,12.9-0.8,19.4-1.1c0.6,0,0.7,0.8,0.1,1c-5.4,1.5-11.4,1-16.5,3.4c2.1,0,4.4-0.5,6.3-0.7
	c2.7-0.3,5.3-0.7,8-1.1c2.7-0.4,6.3-1.6,9-0.8c0.6,0.2,0.3,1.1-0.3,0.9c-1.5-0.4-3.7,0-5.2,0.2c-2.3,0.4-4.6,0.7-6.9,1
	c-2.2,0.3-4.4,0.6-6.6,0.8c-2.1,0.2-4.2,0.7-6.3,0.4c-0.4-0.1-0.5-0.7-0.1-0.9c2.7-1.6,5.6-2.3,8.6-2.7c-4.4,0.3-8.8,0.6-13.3,0.6
	c-0.6,0-0.6-0.8-0.1-1c1.6-0.6,3.2-1,4.8-1.4c-2.5,0.1-5,0.2-7.6,0.3c-0.6,0-0.7-0.8-0.1-1c1.7-0.5,3.3-1,5-1.5
	c-2.2,0.2-4.4,0.6-6.3,1.7C193.8,266.5,193.3,265.7,193.9,265.3z M180,277.3c0.1,0.2,0.2,0.3,0.2,0.5c-0.3-1.4-0.3-2.6,0.4-3
	c0.6-0.3,1.1,0.6,0.5,0.8c-1,0.5,2.6,9.2,2.9,10c0.8,2,1.6,4.2,2.5,6.3c0.7,1.1,1.3,2.2,1.9,3.4c0.3,0.6-0.5,1-0.8,0.5
	c-0.8-1-1.4-2.2-2-3.4c-0.5-0.8-1-1.6-1.5-2.5c1.9,3.6,4,7,5.8,10.6c0.3,0.6-0.6,1.1-0.8,0.5c-3.8-7.6-9.2-14.8-10.1-23.4
	C179,277.1,179.8,276.9,180,277.3z M184.5,315.7c-0.3-0.3-5.1-3.6-4.9-3.4c-0.6-0.4-1-0.7-1.5-1.3c-1.3-1.8-1.4-4.1-1.4-6.2
	c0-1.5-0.2-3.3-0.3-5.2c0-0.1,0-0.7,0-0.9c0-0.9,0.1-4.4,0.1-4.6c0.2-1.3,0.5-5,0.5-5.3c0-0.2,0.6-2.5,0.6-1.8
	c0.1,0.4,1.4,4.4,1.4,4.5c0.2,0.8,0.5,2.4,0.5,2.4c0.7,1.9,0.3,4,0.5,6c0.3,3,0.7,6.2,2,8.9c2.1,4.4,8.4,7.8,11.4,11.6
	C193.9,321.1,186.8,317.3,184.5,315.7z M192.2,309.8c-4.3-7.4-9.6-14.2-13.1-22c-0.3-0.6,0.6-1.1,0.8-0.5c3.5,7.8,8.8,14.6,13.1,22
	C193.4,309.8,192.6,310.3,192.2,309.8z M204.8,283.1c-6.4,9.7-0.3,25.1-3.9,39.9c-1.8-13.3-1.6-25.8-3.7-35.7c0-0.1-0.1-0.1-0.1-0.2
	c-0.5-2.4-1.1-5-2.4-7.1c-0.9-1.5-6-7.2-6.7-7.7c-0.4-0.3-8.2-5.6-8-5.6c0.6,0,7.9,4,9.3,4.5c14.7,5,34.4,2,51.8,0.3
	C230.4,278.9,211.4,273.1,204.8,283.1z M234.5,289.5c0.5-0.4,1,0.5,0.5,0.8c-3.5,2.5-7.1,4.8-10.7,7.2c-1.9,1.3-3.8,2.7-5.5,4.1
	c-0.3,0.3-0.7,0.5-1,0.8c-1,0.9-1.9,1.8-2.9,2.7c-0.4,0.4-1.1-0.1-0.8-0.6c0.8-1.2,1.9-2,3-2.9c0.1,0,0.1-0.1,0.2-0.1
	c6.5-6,12.8-12.4,19.1-18.6c0.4-0.4,1.1,0.2,0.7,0.7c-4.4,4.4-8.8,8.7-13.2,13.1C227.4,294.3,231,292,234.5,289.5z M230.3,285.4
	c0.5-0.3,1,0.5,0.5,0.8c-3.5,2.3-6.8,4.9-10,7.5c-1.1,0.9-2.1,1.7-3.2,2.6c-1.5,1.4-2.9,2.9-4.5,4.2c-0.5,0.4-1.1-0.2-0.7-0.7
	c1.6-1.9,3.5-3.5,5.5-5.1c1.5-1.4,3-2.8,4.6-4.2c3.3-2.8,6.5-5.7,9.5-8.7c0.4-0.4,1.1,0.2,0.7,0.7c-1.3,1.3-2.7,2.6-4,3.8
	C229.3,286.1,229.8,285.7,230.3,285.4z M246.3,291.7c0,0-0.9,5.8-1.3,8.6c-0.4,2.9-0.5,5.5-0.7,8.3c-0.2,2.2-1.2,9-1.8,10
	c-1.7,3.1-7.1,4.1-10.8,4.6c-1.1,0.2-2.3,0.4-3.5,0.5c-1.3,0.1-2.6,0.2-4,0.3c-0.3,0-8.4,0.7-12.2,0.2c-0.2,0.1-1.9-0.1-2.1-0.2
	c-0.5-0.2,1.9-0.8,1.9-0.8c0.1,0,0.5-0.1,0.7-0.1c3.5,0,21.3-3.5,24.6-8.3c2.4-3.5,4.8-11.8,4.8-11.9c0.7-3.7,1.4-7.7,2.3-11.6
	c0.3-1.7,1-4.8,1.7-8C246.4,281.2,246.5,290.2,246.3,291.7z"/>
<radialGradient id="SVGID_12_" cx="-130.3569" cy="367.2959" r="45.6182" gradientTransform="matrix(-0.9418 0.2294 0.2315 0.933 -30.1622 24.9917)" gradientUnits="userSpaceOnUse">
	<stop  offset="0" style="stop-color:#FFFFFF;stop-opacity:0"/>
	<stop  offset="0.1879" style="stop-color:#FFFFFF;stop-opacity:0"/>
	<stop  offset="0.6364" style="stop-color:#FFFFFF;stop-opacity:0.83"/>
	<stop  offset="0.699" style="stop-color:#EAE5DB;stop-opacity:0.8507"/>
	<stop  offset="0.7804" style="stop-color:#D8CFBE;stop-opacity:0.8775"/>
	<stop  offset="0.8594" style="stop-color:#CCC0AA;stop-opacity:0.9036"/>
	<stop  offset="0.934" style="stop-color:#C5B89F;stop-opacity:0.9282"/>
	<stop  offset="1" style="stop-color:#C2B59B;stop-opacity:0.95"/>
	<a:midPointStop  offset="0" style="stop-color:#FFFFFF;stop-opacity:0"/>
	<a:midPointStop  offset="0.5" style="stop-color:#FFFFFF;stop-opacity:0"/>
	<a:midPointStop  offset="0.1879" style="stop-color:#FFFFFF;stop-opacity:0"/>
	<a:midPointStop  offset="0.5607" style="stop-color:#FFFFFF;stop-opacity:0"/>
	<a:midPointStop  offset="0.6364" style="stop-color:#FFFFFF;stop-opacity:0.83"/>
	<a:midPointStop  offset="0.3186" style="stop-color:#FFFFFF;stop-opacity:0.83"/>
	<a:midPointStop  offset="1" style="stop-color:#C2B59B;stop-opacity:0.95"/>
</radialGradient>
<path fill-rule="evenodd" clip-rule="evenodd" fill="url(#SVGID_12_)" stroke="#FFFFFF" stroke-width="0.2835" stroke-miterlimit="10" d="
	M143.6,386.7c8,2.2,15.5,0.3,23.3-0.1c7.1-0.4,16,1.3,23.8-2.1c5.5-2.4,15.2-13.6,16.4-20.6c1.2-7.2-5-41-12.1-45.2
	c-5.3-3.1-27.3,1.1-35.7,3.1c-14.7,3.5-22.2,11.8-29.1,18.2C132.2,354.9,137.7,374,143.6,386.7z M168.1,321.2
	c-10.4,2.5-10,2.7-13.8,4.3c-3.1,1.2-12.2,8.5-12.4,8.7c-0.5,0.4-3.9,2.3-3.5,1.9c2.6-2.3,6.4-6.2,9.2-8.4c1.8-1.5,5.9-3.8,6.6-4
	c3.4-1.5,12.7-2.8,13-2.8l4.5-0.9C172.3,319.8,169.3,321,168.1,321.2z M179.9,323.7c-2-0.6-4-0.5-6-0.1c1.6,0.1,3.2,0.2,4.8,0.3
	c0.5,0,0.6,0.8,0.1,0.9c-2.3,0.5-4.6,1-6.9,1.4c1.5,0,3,0,4.6,0.2c0.5,0.1,0.6,0.8,0.1,0.9c-4,1-8,1.7-12.1,2.4
	c2.8-0.3,5.6-0.3,8.4,0.6c0.3,0.1,0.5,0.7,0.1,0.8c-1.8,0.8-3.8,0.8-5.7,1.1c-2,0.3-4.1,0.5-6.1,0.7c-2.1,0.2-4.3,0.4-6.4,0.6
	c-1.4,0.1-3.4,0.2-4.7,0.9c-0.5,0.3-0.9-0.5-0.4-0.8c2.3-1.3,5.7-1.1,8.3-1.3c2.5-0.2,5-0.5,7.4-0.8c1.8-0.2,4-0.3,5.8-0.7
	c-5.1-1-10.4,0.7-15.6,0.5c-0.5,0-0.6-0.8-0.1-0.9c5.9-1.1,11.8-2,17.7-3.2c-4.2-0.1-8.4,0.5-12.5,1.5c-0.6,0.1-0.8-0.7-0.2-0.9
	c4.9-1.2,9.9-2.1,14.9-3.1c-2.2-0.1-4.4-0.2-6.5-0.1c-0.5,0.1-0.9,0.1-1.4,0.1c-0.5,0-0.6-0.8-0.1-0.9c0,0,0.1,0,0.1,0c0,0,0,0,0,0
	c0,0,0.1,0,0.1,0c0.4,0,0.8-0.1,1.3-0.1c3.8-0.5,7.6-1.9,11.4-0.7C180.8,323,180.5,323.9,179.9,323.7z M196.2,330.6
	c1.1,8-2.1,15.6-3.9,23.3c-0.1,0.6-1,0.3-0.9-0.3c0.8-3.6,2-7.2,2.8-10.8c-0.2,0.9-0.5,1.7-0.8,2.5c-0.3,1.2-0.6,2.4-1,3.5
	c-0.2,0.5-1,0.3-0.9-0.3c0.3-1.2,0.6-2.3,1-3.5c0.4-2.1,0.6-4.2,0.9-6.2c0.1-0.8,1.4-9.4,0.4-9.6c-0.6-0.1-0.3-1,0.3-0.9
	c0.8,0.1,1,1.2,1.1,2.6c0-0.2,0.1-0.3,0.1-0.5C195.5,330.1,196.2,330.1,196.2,330.6z M192.9,372.2c1.8-4,6.7-8.5,7.6-12.9
	c0.6-2.7,0.2-5.7-0.2-8.4c-0.3-1.8-1.1-3.6-0.9-5.5c0,0-0.1-1.5-0.1-2.3c0-0.1,0.3-4,0.3-4.4c-0.1-0.6,1,1.3,1,1.5
	c0,0.3,1.1,3.5,1.6,4.7c0.1,0.1,0.9,3.3,1.1,4.1c0.1,0.2,0.2,0.7,0.2,0.8c0.3,1.7,0.5,3.3,0.9,4.7c0.5,1.9,0.9,4,0.1,5.9
	c-0.2,0.6-0.6,1-1,1.5c0.2-0.3-3.4,3.8-3.7,4.1C198.1,367.9,192.6,372.9,192.9,372.2z M190.7,362.1c2.2-7.6,5.5-14.8,6.9-22.6
	c0.1-0.6,1-0.3,0.9,0.3c-1.4,7.8-4.6,15.1-6.9,22.6C191.4,362.9,190.5,362.7,190.7,362.1z M139.1,338.7c16-2.2,34.3-3.9,46.5-11.6
	c1.1-0.8,6.8-6,7.4-6.1c0.2,0-5.7,6.4-5.9,6.8c-0.5,0.6-3.8,6.8-4.3,8.4c-0.7,2.2-0.7,4.6-0.6,6.9c0,0.1,0,0.1,0,0.2
	c0.3,9.3,3.2,20.6,4.6,32.9c-6.6-12.5-4.5-27.6-12.4-34.9C166.2,333.6,150.4,343,139.1,338.7z M160.3,357.6c-5-2.9-9.9-5.9-14.8-8.8
	c-0.5-0.3,0-1.1,0.5-0.8c7.1,4.2,14.1,8.5,21.3,12.5c0.1,0,0.1,0.1,0.2,0.1c1.2,0.5,2.4,1,3.4,1.9c0.4,0.4-0.1,0.9-0.6,0.7
	c-1.1-0.6-2.2-1.2-3.2-1.8c-0.4-0.1-0.7-0.3-1.1-0.5c-1.9-0.9-3.9-1.7-5.9-2.5c-3.7-1.4-7.5-2.7-11.2-4.2c-0.5-0.2-0.3-1.1,0.3-0.9
	C152.8,354.9,156.6,356.2,160.3,357.6z M153.6,349.5c-1.5-0.8-3-1.7-4.5-2.6c-0.5-0.3,0-1.1,0.5-0.8c3.4,2.1,6.9,4,10.5,5.7
	c1.7,0.8,3.4,1.8,5,2.7c2.1,1,4.2,2.1,6.1,3.4c0.5,0.3,0.1,1-0.5,0.8c-1.7-0.9-3.3-1.8-5-2.8c-1.2-0.6-2.3-1.1-3.5-1.6
	c-3.5-1.7-7-3.3-10.6-4.6c-0.5-0.2-0.3-1.1,0.3-0.9C152.5,349,153.1,349.2,153.6,349.5z M137.4,350.3c1.3,2.7,2.6,5.4,3.3,6.8
	c1.6,3.3,3.1,6.7,4.6,9.9c0.1,0.1,4,7,6.9,9.6c4,3.6,20.7,2.9,23.9,2.1c0.2,0,0.6,0,0.7,0c0,0,2.2,0,1.8,0.3
	c-0.1,0.2-1.6,0.7-1.8,0.7c-3.3,1.3-10.8,2.5-11,2.5c-1.2,0.2-2.4,0.5-3.6,0.6c-1.1,0.2-2.1,0.3-3.2,0.3c-3.4,0.3-8.4,0.6-10.7-1.8
	c-0.7-0.7-3.2-6.6-3.8-8.6c-0.8-2.5-1.4-4.8-2.5-7.3c-1-2.4-3.1-7.4-3.1-7.4C138.5,356.7,136.6,348.6,137.4,350.3z"/>
<path fill="#FFDE17" stroke="#D7DF23" stroke-miterlimit="10" d="M164,413.6c-4.9,3.2-13.1,0-17.2-6.3l-6.8,3.9
	c20.7,34.7,57.4,38.2,89,21.5c29.7-15.7,41.3-56.9,21.5-92.1l-8,5.3c3.6,6.8,2.6,14.8-2.4,18.1"/>
<path fill="#FFF450" stroke="#FFDE17" stroke-miterlimit="10" d="M228,425.9c28.1-18,36.6-54.7,19.2-82.2l-7.5,4.8
	c3.1,5.4,2,11.9-2.7,14.9c-1.4,0.9-27.4,7.6-35.8,9.7l-11.7,7.5l-23.7,28.1c-4.6,3-11,1.4-14.7-3.5l-6.8,4.3
	C162.6,436.7,199.8,444,228,425.9z M239.3,373.4c5.6,1.2,9.1,7.3,7.7,13.7c-1.4,6.3-7.1,10.5-12.7,9.3c-1.9-0.4-34.5-19.5-34.5-19.5
	L239.3,373.4z M183.1,427.6c-6.4-1.4-10.6-7-9.4-12.6c0.4-1.9,19.7-34.2,19.7-34.2l3.5,39.1C195.7,425.6,189.5,429,183.1,427.6z
	 M197.7,379.8l30.4,25.2c3.1,4.8,1.2,11.5-4.3,15.1c-5.5,3.5-12.5,2.5-15.6-2.3C207.1,416.1,197.7,379.8,197.7,379.8z"/>
<path fill="#FFF450" stroke="#FFDE17" stroke-miterlimit="10" d="M165.8,408.8l23.7-28.1l-38.4,24.6
	C154.8,410.2,161.2,411.8,165.8,408.8z"/>
<path fill="#FFF450" stroke="#FFDE17" stroke-miterlimit="10" d="M193.3,380.9c0,0-19.3,32.3-19.7,34.2c-1.2,5.6,3,11.2,9.4,12.6
	c6.4,1.4,12.6-2.1,13.8-7.7L193.3,380.9z"/>
<path fill="#FFF450" stroke="#FFDE17" stroke-miterlimit="10" d="M223.8,420.1c5.5-3.5,7.4-10.3,4.3-15.1l-30.4-25.2
	c0,0,9.4,36.3,10.5,38C211.3,422.6,218.3,423.6,223.8,420.1z"/>
<path fill="#FFF450" stroke="#FFDE17" stroke-miterlimit="10" d="M247,387.1c1.4-6.4-2.1-12.5-7.7-13.7l-39.5,3.5
	c0,0,32.6,19.1,34.5,19.5C240,397.6,245.7,393.4,247,387.1z"/>
<path fill="#FFF450" stroke="#FFDE17" stroke-miterlimit="10" d="M239.7,348.5l-38.4,24.6c8.3-2.1,34.4-8.8,35.8-9.7
	C241.7,360.5,242.9,353.9,239.7,348.5z"/>
<g>
	<path fill-rule="evenodd" clip-rule="evenodd" fill="#FFF450" d="M179.2,419.1c4.2,6.9,10.6,2.8,11.7-3.7
		c0.8-6.4,0.9-14.4,0.7-21.1"/>
	<g>
		<path fill="#FFFFFF" d="M179,419.3c2.9,4.2,6.9,4.9,10.3,0.8c2.1-2.5,2.1-6.2,2.3-9.3c0.4-5.5,0.4-11,0.3-16.5
			c0-0.3-0.6-0.2-0.6,0c0.1,5,0.1,9.9-0.2,14.8c-0.1,2.1-0.3,4.2-0.5,6.3c-0.6,5.5-7,9.5-11.1,3.5C179.3,418.8,178.8,419,179,419.3
			L179,419.3z"/>
	</g>
</g>
<g>
	<path fill-rule="evenodd" clip-rule="evenodd" fill="#FFF450" d="M212.9,417.1c5.6,1.4,14.7-5.9,11.5-11.6
		c-3.3-6.4-14.4-7.9-18-15.2"/>
	<g>
		<path fill="#FFFFFF" d="M212.6,417.3c5.6,0.9,12-3.3,12.9-9c0.6-3.7-3.7-6.7-6.4-8.4c-4.5-2.9-9.5-4.9-12.3-9.8
			c-0.2-0.3-1.1,0.1-1,0.3c2.7,4.8,7.8,7.1,12.4,9.9c2.6,1.6,4.8,3.4,6.1,6.3c2.5,5.7-6.8,11-11.1,10.3
			C212.9,416.8,212,417.2,212.6,417.3L212.6,417.3z"/>
	</g>
</g>
<g>
	<path fill-rule="evenodd" clip-rule="evenodd" fill="#FFF450" d="M236.4,394.1c6.5-0.5,10.8-13.4,4.5-16.6
		c-3.4-1.7-9.3-0.1-12.7,0.9c-5.5,2-8.3,2.4-13.9,1.3"/>
	<g>
		<path fill="#FFFFFF" d="M236.4,394.3c6.1-1,9.2-8.9,7.2-14.3c-1.2-3.2-4.8-3.5-7.6-3.4c-2.2,0.1-4.5,0.7-6.7,1.3
			c-5.2,1.4-9.3,2.5-14.8,1.6c-0.2,0-0.6,0.3-0.3,0.3c6.6,1.2,11.3-0.6,17.7-2.2c5.7-1.4,11.8-0.6,11.8,6.2c0,4.1-2.8,9.4-7.3,10.1
			C236.2,394,236,394.4,236.4,394.3L236.4,394.3z"/>
	</g>
</g>
</svg>
