<?xml version="1.0" encoding="utf-8"?>
<!-- Generator: Adobe Illustrator 15.0.0, SVG Export Plug-In  -->
<!DOCTYPE svg PUBLIC "-//W3C//DTD SVG 1.1//EN" "http://www.w3.org/Graphics/SVG/1.1/DTD/svg11.dtd" [
	<!ENTITY ns_flows "http://ns.adobe.com/Flows/1.0/">
]>
<svg version="1.1"
	 xmlns="http://www.w3.org/2000/svg" xmlns:xlink="http://www.w3.org/1999/xlink" xmlns:a="http://ns.adobe.com/AdobeSVGViewerExtensions/3.0/"
	 x="0px" y="0px" width="842px" height="595px" viewBox="-428.416 -160.641 842 595"
	 enable-background="new -428.416 -160.641 842 595" xml:space="preserve">
<defs>
</defs>
<radialGradient id="SVGID_1_" cx="133.1895" cy="156.439" r="124.5897" gradientTransform="matrix(1.2138 0 0 1.0785 -38.7044 -0.8817)" gradientUnits="userSpaceOnUse">
	<stop  offset="0.0061" style="stop-color:#F9ED32"/>
	<stop  offset="0.2182" style="stop-color:#FBB040"/>
	<stop  offset="0.4182" style="stop-color:#F7941E"/>
	<stop  offset="0.6667" style="stop-color:#F26522"/>
	<stop  offset="1" style="stop-color:#EF4136"/>
</radialGradient>
<path fill="url(#SVGID_1_)" stroke="#A7A9AC" stroke-width="7.0866" stroke-miterlimit="10" d="M216.275,197.202
	c-23.409-39.865-13.886-143.222-6.077-186.556c-27.312-3.465-66.736,14-96,14c-15.329,0-55.368-0.708-69.696-14.343
	c3.339,16.603,24.149,105.972,4,122.764C28.078,166.394,5.58,197.202,3.629,237.069c-3.904,81.469,126.812,107.469,193.141,74.535
	C263.102,280.407,245.541,245.737,216.275,197.202z"/>
<g>
	
		<radialGradient id="SVGID_2_" cx="133.9736" cy="377.7886" r="90.5241" gradientTransform="matrix(1 0 0 0.55 0 170.0049)" gradientUnits="userSpaceOnUse">
		<stop  offset="0" style="stop-color:#E6E7E8"/>
		<stop  offset="0.3879" style="stop-color:#D1D3D4"/>
		<stop  offset="0.7515" style="stop-color:#BCBEC0"/>
		<stop  offset="1" style="stop-color:#A7A9AC"/>
	</radialGradient>
	<path fill="url(#SVGID_2_)" d="M84.418,320.937c31.354,7.605,24.62,56.119-3.296,56.639l15.39-15.346
		c-33.396-3.711-104.344,26.854-66.344,52.854c34,24,90,20,130,18c20-2,104-8,86-46c-8-16-76.395-25.109-92.395-25.109
		l19.905,23.271c-28-6-29.629-44.783-7.629-60.783c0,0-31.193,4.791-42.952,3.77C113.295,327.378,84.418,320.937,84.418,320.937z"/>
	<g>
		<path fill="#A7A9AC" d="M79.953,323.189c12.688,3.313,19.603,14.253,19.725,27.008c0.089,9.188-5.213,24.527-16.243,24.953
			c0.894,0.715,1.786,1.43,2.68,2.145c5.13-5.115,10.26-10.23,15.39-15.346c1.313-1.31-0.305-2.017-1.49-2.137
			c-18.053-1.829-37.284,3.224-53.771,10.259c-11.676,4.981-31.558,14.482-32.404,29.423c-0.411,7.249,4.775,12.805,10.23,16.851
			c9.09,6.741,19.849,11.13,30.666,14.21c23.769,6.769,49.168,6.98,73.681,6.281c32.196-0.919,66.207-2.69,96.783-13.704
			c11.216-4.04,26.521-11.158,28.721-24.386c2.459-14.794-10.291-21.51-22.035-25.793c-13.625-4.97-28.119-7.682-42.396-9.986
			c-11.006-1.777-22.231-3.36-33.401-3.418c-1.293-0.007-9.552,1.907-7.454,4.359c6.635,7.758,13.271,15.515,19.905,23.271
			c3.202-1.396,6.404-2.791,9.606-4.186c-26.822-6.263-27.603-43.321-7.852-58.188c3.331-2.508-1.332-2.915-3.291-2.615
			c-12.928,1.978-26.539,4.358-39.642,3.681c-12.846-0.665-25.951-4.396-38.477-7.186c-2.523-0.563-5.414,0.162-7.681,1.307
			C80.296,320.45,77.404,322.622,79.953,323.189c13.438,2.993,27.427,6.846,41.21,7.56c14.529,0.752,29.603-1.821,43.936-4.014
			c-1.097-0.872-2.194-1.743-3.291-2.615c-11.029,8.302-16.952,21.127-16.252,34.912c0.71,13.961,10.088,25.298,23.658,28.466
			c1.635,0.382,12.034-1.348,9.606-4.186c-6.636-7.758-13.271-15.515-19.905-23.271c-2.484,1.453-4.97,2.906-7.454,4.359
			c14.314,0.075,31.188,3.099,45.906,6.142c8.974,1.854,17.903,4.112,26.519,7.255c5.551,2.024,12.775,4.749,16.289,9.856
			c8.109,11.783-0.545,23.635-11.155,29.164c-13.411,6.988-29.358,9.363-44.166,11.398c-15.261,2.098-30.561,2.961-45.946,3.566
			c-25.102,0.987-50.836,0.92-75.243-5.731c-11.124-3.032-21.976-7.779-31.087-14.927c-5.388-4.226-9.284-10.399-7.146-17.353
			c2.109-6.857,8.738-11.707,14.497-15.37c7.65-4.867,16.389-8.156,25.082-10.592c9.027-2.528,18.618-4.111,27.999-3.161
			c-0.497-0.712-0.994-1.424-1.49-2.137c-5.13,5.115-10.26,10.23-15.39,15.346c-1.832,1.827,1.589,2.188,2.68,2.145
			c15.868-0.611,28.571-11.007,31.317-26.729c2.736-15.662-5.625-30.51-21.244-34.588c-2.462-0.643-5.478,0.194-7.681,1.307
			C80.226,320.485,77.461,322.539,79.953,323.189z"/>
	</g>
</g>
<g>
	
		<radialGradient id="SVGID_3_" cx="119.9854" cy="394.4487" r="12.1394" gradientTransform="matrix(1 0 0 0.55 0 177.5019)" gradientUnits="userSpaceOnUse">
		<stop  offset="0" style="stop-color:#E6E7E8"/>
		<stop  offset="0.3879" style="stop-color:#D1D3D4"/>
		<stop  offset="0.7515" style="stop-color:#BCBEC0"/>
		<stop  offset="1" style="stop-color:#A7A9AC"/>
	</radialGradient>
	<path fill="url(#SVGID_3_)" d="M102.985,392.054c10,6,22,6,34,2"/>
	<g>
		<path fill="#A7A9AC" d="M95.22,394.756c13.865,7.852,29.987,5.427,44.513,0.816c0.523-0.167,7.374-2.915,5.019-4.221
			c-2.803-1.553-7.805,0.324-10.513,1.184c-7.968,2.529-16.349,0.859-23.487-3.184c-2.725-1.543-7.893,0.272-10.513,1.184
			C99.72,390.716,92.864,393.422,95.22,394.756L95.22,394.756z"/>
	</g>
</g>
</svg>
