<?xml version="1.0" encoding="utf-8"?>
<!-- Generator: Adobe Illustrator 15.0.0, SVG Export Plug-In  -->
<!DOCTYPE svg PUBLIC "-//W3C//DTD SVG 1.1//EN" "http://www.w3.org/Graphics/SVG/1.1/DTD/svg11.dtd" [
	<!ENTITY ns_flows "http://ns.adobe.com/Flows/1.0/">
]>
<svg version="1.1"
	 xmlns="http://www.w3.org/2000/svg" xmlns:xlink="http://www.w3.org/1999/xlink" xmlns:a="http://ns.adobe.com/AdobeSVGViewerExtensions/3.0/"
	 x="0px" y="0px" width="842px" height="595px" viewBox="-485.165 -250.213 842 595"
	 enable-background="new -485.165 -250.213 842 595" xml:space="preserve">
<defs>
</defs>
<radialGradient id="SVGID_1_" cx="77.665" cy="7.1392" r="49.3204" gradientTransform="matrix(0.9699 0 0 0.9607 -4.8358 14.8075)" gradientUnits="userSpaceOnUse">
	<stop  offset="0" style="stop-color:#FFFFFF;stop-opacity:0"/>
	<stop  offset="0.1879" style="stop-color:#FFFFFF;stop-opacity:0"/>
	<stop  offset="0.6364" style="stop-color:#FFFFFF;stop-opacity:0.6512"/>
	<stop  offset="0.699" style="stop-color:#EAE5DB;stop-opacity:0.7027"/>
	<stop  offset="0.7804" style="stop-color:#D8CFBE;stop-opacity:0.7696"/>
	<stop  offset="0.8594" style="stop-color:#CCC0AA;stop-opacity:0.8344"/>
	<stop  offset="0.934" style="stop-color:#C5B89F;stop-opacity:0.8958"/>
	<stop  offset="1" style="stop-color:#C2B59B;stop-opacity:0.95"/>
</radialGradient>
<path fill-rule="evenodd" clip-rule="evenodd" fill="url(#SVGID_1_)" stroke="#FFFFFF" stroke-width="0.2835" stroke-miterlimit="10" d="
	M120.946,11.805c-8.945-4.993-19.021-11.758-35.322-11.663c-9.36,0.055-33.483,1.201-38.266,5.833
	c-6.452,6.247-4.103,43.339-0.981,50.54c3.07,7.081,16.121,16.368,22.568,17.495c9.068,1.587,17.963-2.494,25.51-3.889
	c8.299-1.531,16.723-1.448,24.53-5.831C121.915,49.515,122.662,28.011,120.946,11.805z M72.069,1.434l4.97-0.198
	C77.41,1.21,87.496,0.232,91.438,0.896c0.781,0.082,5.731,1.45,7.971,2.548c3.452,1.546,8.492,4.658,11.807,6.463
	c0.563,0.307-3.52-0.819-4.13-1.142c-0.266-0.126-11.71-5.449-15.239-5.942c-4.427-0.689-4.026-0.999-15.659-0.987
	C74.874,1.884,71.438,1.434,72.069,1.434z M63.914,6.648c3.67-2.155,8.051-1.673,12.159-2.146c0.453-0.079,0.909-0.143,1.369-0.199
	c0.026-0.005,0.053-0.008,0.079-0.012c0,0,0,0,0,0.001c0.045-0.006,0.086-0.015,0.131-0.02c0.551-0.063,0.671,0.855,0.13,0.956
	c-0.498,0.092-1.007,0.161-1.519,0.217c-2.328,0.39-4.595,1.056-6.848,1.759C74.9,7.019,80.381,6.722,85.869,6.703
	c0.633-0.001,0.633,0.968,0,0.972c-4.573,0.029-9.121,0.484-13.527,1.63c6.479-0.203,12.939-0.816,19.415-1.145
	c0.564-0.028,0.653,0.808,0.13,0.955c-5.382,1.516-11.37,1.044-16.462,3.437c2.081,0.017,4.362-0.484,6.306-0.722
	c2.663-0.325,5.339-0.654,7.99-1.065c2.719-0.422,6.27-1.559,9.035-0.765c0.605,0.175,0.348,1.112-0.261,0.938
	c-1.539-0.442-3.678-0.031-5.168,0.215c-2.284,0.377-4.565,0.707-6.856,1.029c-2.189,0.306-4.383,0.595-6.582,0.832
	c-2.051,0.22-4.245,0.71-6.291,0.354c-0.44-0.077-0.45-0.685-0.117-0.889c2.659-1.623,5.609-2.284,8.627-2.73
	c-4.425,0.302-8.849,0.579-13.286,0.599c-0.577,0.003-0.637-0.775-0.13-0.955c1.563-0.554,3.153-0.997,4.756-1.363
	c-2.521,0.101-5.046,0.2-7.569,0.252c-0.565,0.011-0.651-0.797-0.131-0.955c1.652-0.499,3.298-1.032,4.952-1.521
	c-2.211,0.178-4.366,0.551-6.291,1.68C63.863,7.808,63.369,6.966,63.914,6.648z M49.989,18.608c0.081,0.163,0.152,0.331,0.229,0.497
	c-0.31-1.434-0.303-2.637,0.448-2.98c0.57-0.261,1.069,0.576,0.495,0.839c-1.028,0.47,2.611,9.159,2.929,9.956
	c0.799,2.003,1.569,4.221,2.54,6.289c0.673,1.113,1.342,2.228,1.944,3.38c0.296,0.564-0.481,0.993-0.847,0.489
	c-0.75-1.029-1.397-2.182-1.985-3.386c-0.506-0.815-1.011-1.634-1.488-2.464c1.857,3.575,4.004,7.039,5.792,10.584
	c0.28,0.559-0.564,1.052-0.848,0.49c-3.836-7.604-9.182-14.772-10.125-23.45C49.023,18.372,49.782,18.186,49.989,18.608z
	 M54.509,56.974c-0.349-0.297-5.148-3.619-4.914-3.361c-0.611-0.377-1.048-0.672-1.461-1.264c-1.261-1.814-1.385-4.085-1.388-6.227
	c-0.003-1.542-0.218-3.347-0.307-5.162c-0.038-0.066-0.041-0.675-0.032-0.893c-0.02-0.924,0.083-4.422,0.109-4.579
	c0.218-1.33,0.513-4.988,0.475-5.337c-0.022-0.182,0.575-2.452,0.647-1.847c0.053,0.446,1.382,4.371,1.42,4.512
	c0.206,0.785,0.481,2.406,0.489,2.429c0.694,1.946,0.261,3.977,0.464,5.985c0.298,2.965,0.679,6.185,2.011,8.907
	c2.142,4.38,8.443,7.816,11.368,11.58C63.898,62.371,56.823,58.583,54.509,56.974z M62.265,51.05
	c-4.318-7.371-9.635-14.156-13.122-21.991c-0.254-0.567,0.592-1.063,0.847-0.49c3.488,7.834,8.805,14.619,13.123,21.99
	C63.431,51.103,62.582,51.591,62.265,51.05z M74.831,24.44c-6.396,9.745-0.263,25.061-3.925,39.85
	c-1.767-13.254-1.646-25.822-3.737-35.717c-0.04-0.051-0.072-0.116-0.086-0.197c-0.465-2.413-1.138-4.984-2.442-7.102
	c-0.926-1.505-6.005-7.187-6.677-7.71c-0.364-0.332-8.184-5.571-7.969-5.587c0.63-0.044,7.941,4.025,9.333,4.545
	c14.74,4.972,34.43,2.026,51.808,0.254C100.475,20.206,81.45,14.359,74.831,24.44z M104.511,30.825
	c0.515-0.366,1.003,0.478,0.494,0.839c-3.505,2.483-7.134,4.785-10.655,7.244c-1.892,1.319-3.779,2.655-5.545,4.138
	c-0.323,0.27-0.659,0.521-0.997,0.768c-0.979,0.906-1.946,1.825-2.94,2.717c-0.398,0.357-1.086-0.105-0.771-0.588
	c0.79-1.207,1.878-2.027,3.037-2.865c0.062-0.043,0.118-0.092,0.181-0.137c6.51-6.041,12.755-12.351,19.059-18.601
	c0.447-0.443,1.141,0.243,0.693,0.688c-4.397,4.36-8.768,8.745-13.211,13.058C97.39,35.64,101.002,33.309,104.511,30.825z
	 M100.34,26.694c0.527-0.349,1.02,0.494,0.495,0.839c-3.485,2.302-6.757,4.88-9.963,7.545c-1.055,0.877-2.144,1.735-3.215,2.616
	c-1.473,1.438-2.938,2.881-4.508,4.22c-0.479,0.411-1.106-0.212-0.693-0.687c1.623-1.865,3.544-3.516,5.508-5.1
	c1.485-1.422,2.98-2.833,4.566-4.156c3.316-2.767,6.478-5.695,9.55-8.725c0.449-0.443,1.142,0.244,0.695,0.686
	c-1.32,1.301-2.66,2.581-4.016,3.845C99.283,27.413,99.807,27.046,100.34,26.694z M116.294,33.038
	c-0.004,0.026-0.874,5.792-1.277,8.581c-0.422,2.914-0.455,5.457-0.672,8.297c-0.169,2.223-1.227,9.028-1.752,9.973
	c-1.738,3.124-7.137,4.104-10.751,4.647c-1.148,0.223-2.317,0.362-3.466,0.471c-1.324,0.125-2.649,0.202-3.976,0.25
	c-0.286,0.011-8.447,0.696-12.215,0.177c-0.21,0.125-1.944-0.081-2.09-0.24c-0.481-0.181,1.861-0.764,1.861-0.763
	c0.109-0.022,0.55-0.14,0.724-0.14c3.528,0.01,21.32-3.459,24.564-8.289c2.365-3.523,4.758-11.766,4.784-11.896
	c0.742-3.725,1.392-7.735,2.266-11.568c0.306-1.669,1.006-4.844,1.686-7.965C116.429,22.524,116.551,31.491,116.294,33.038z"/>
<radialGradient id="SVGID_2_" cx="-260.3262" cy="108.5962" r="45.6182" gradientTransform="matrix(-0.9418 0.2294 0.2315 0.933 -222.6475 37.4737)" gradientUnits="userSpaceOnUse">
	<stop  offset="0" style="stop-color:#FFFFFF;stop-opacity:0"/>
	<stop  offset="0.1879" style="stop-color:#FFFFFF;stop-opacity:0"/>
	<stop  offset="0.6364" style="stop-color:#FFFFFF;stop-opacity:0.83"/>
	<stop  offset="0.699" style="stop-color:#EAE5DB;stop-opacity:0.8507"/>
	<stop  offset="0.7804" style="stop-color:#D8CFBE;stop-opacity:0.8775"/>
	<stop  offset="0.8594" style="stop-color:#CCC0AA;stop-opacity:0.9036"/>
	<stop  offset="0.934" style="stop-color:#C5B89F;stop-opacity:0.9282"/>
	<stop  offset="1" style="stop-color:#C2B59B;stop-opacity:0.95"/>
</radialGradient>
<path fill-rule="evenodd" clip-rule="evenodd" fill="url(#SVGID_2_)" stroke="#FFFFFF" stroke-width="0.2835" stroke-miterlimit="10" d="
	M13.611,127.969c7.99,2.229,15.536,0.313,23.333-0.126c7.089-0.399,15.987,1.318,23.78-2.089
	c5.538-2.425,15.189-13.619,16.369-20.648c1.198-7.151-4.96-40.983-12.148-45.182c-5.328-3.112-27.251,1.135-35.671,3.132
	C14.613,66.536,7.07,74.816,0.15,81.259C2.221,96.188,7.687,115.339,13.611,127.969z M38.13,62.515
	c-10.449,2.534-10.023,2.725-13.844,4.31c-3.06,1.217-12.154,8.5-12.362,8.671c-0.478,0.423-3.896,2.33-3.455,1.929
	c2.571-2.347,6.406-6.242,9.161-8.387c1.77-1.477,5.91-3.789,6.591-4.031c3.392-1.461,12.67-2.788,13.008-2.846l4.509-0.908
	C42.306,61.114,39.318,62.269,38.13,62.515z M49.97,65.013c-1.98-0.595-4.001-0.458-6.027-0.134
	c1.596,0.077,3.193,0.196,4.787,0.283c0.504,0.027,0.607,0.772,0.096,0.887c-2.278,0.505-4.567,0.968-6.855,1.429
	c1.521-0.022,3.05,0.028,4.577,0.184c0.495,0.051,0.614,0.763,0.095,0.887c-3.99,0.952-8.024,1.672-12.066,2.368
	c2.811-0.26,5.606-0.311,8.356,0.563c0.346,0.111,0.473,0.659,0.095,0.824c-1.758,0.769-3.838,0.809-5.729,1.059
	c-2.028,0.27-4.062,0.488-6.097,0.691c-2.13,0.214-4.254,0.418-6.39,0.578c-1.393,0.104-3.405,0.202-4.688,0.935
	c-0.508,0.291-0.949-0.493-0.443-0.783c2.308-1.319,5.749-1.074,8.284-1.291c2.475-0.21,4.95-0.498,7.415-0.79
	c1.799-0.212,3.959-0.261,5.826-0.731c-5.107-1.034-10.381,0.699-15.552,0.516c-0.504-0.019-0.613-0.788-0.097-0.887
	c5.888-1.123,11.829-1.983,17.692-3.218c-4.213-0.067-8.4,0.519-12.515,1.494c-0.568,0.136-0.786-0.736-0.216-0.873
	c4.935-1.184,9.923-2.115,14.89-3.148c-2.18-0.14-4.364-0.241-6.543-0.082c-0.472,0.062-0.943,0.11-1.411,0.136
	c-0.509,0.029-0.604-0.822-0.097-0.886c0.041-0.005,0.08-0.008,0.12-0.011c0-0.001,0-0.001,0.001-0.003
	c0.025,0,0.051-0.005,0.074-0.005c0.425-0.05,0.848-0.092,1.274-0.122c3.796-0.474,7.621-1.864,11.398-0.73
	C50.785,64.319,50.528,65.182,49.97,65.013z M66.273,71.867c1.087,8.001-2.115,15.609-3.866,23.277
	c-0.129,0.566-0.997,0.31-0.87-0.256c0.816-3.575,1.971-7.156,2.843-10.772c-0.243,0.851-0.516,1.693-0.785,2.539
	c-0.262,1.21-0.585,2.386-1.029,3.476c-0.217,0.531-1.01,0.316-0.87-0.255c0.285-1.167,0.636-2.316,0.992-3.46
	c0.411-2.071,0.609-4.231,0.878-6.206c0.109-0.784,1.441-9.385,0.413-9.581c-0.575-0.112-0.314-0.974,0.258-0.863
	c0.75,0.145,1.024,1.224,1.067,2.578c0.031-0.166,0.058-0.331,0.096-0.495C65.492,71.424,66.213,71.424,66.273,71.867z
	 M62.972,113.5c1.788-4.021,6.682-8.485,7.631-12.889c0.588-2.737,0.213-5.711-0.181-8.441c-0.268-1.848-1.109-3.576-0.92-5.476
	c0.003-0.023-0.11-1.54-0.099-2.289c0.001-0.135,0.317-3.952,0.268-4.364c-0.068-0.557,0.973,1.35,0.994,1.518
	c0.044,0.323,1.123,3.545,1.617,4.691c0.055,0.136,0.928,3.254,1.118,4.088c0.056,0.194,0.189,0.741,0.169,0.81
	c0.325,1.65,0.536,3.317,0.878,4.704c0.473,1.925,0.869,3.987,0.139,5.895c-0.239,0.621-0.563,0.984-1.03,1.455
	c0.155-0.282-3.418,3.751-3.663,4.093C68.171,109.247,62.662,114.197,62.972,113.5z M60.733,103.417
	c2.236-7.566,5.498-14.822,6.886-22.621c0.102-0.57,0.97-0.312,0.869,0.255c-1.386,7.8-4.647,15.057-6.885,22.62
	C61.438,104.227,60.568,103.975,60.733,103.417z M9.18,79.985c16.002-2.208,34.343-3.87,46.474-11.559
	c1.135-0.772,6.795-6.027,7.371-6.125c0.194-0.032-5.659,6.384-5.913,6.763c-0.486,0.614-3.782,6.831-4.278,8.383
	c-0.699,2.189-0.73,4.645-0.608,6.913c0.002,0.077-0.012,0.142-0.034,0.196c0.327,9.344,3.236,20.606,4.604,32.896
	c-6.586-12.48-4.492-27.58-12.409-34.932C36.193,74.913,20.41,84.326,9.18,79.985z M30.342,98.936
	c-4.953-2.9-9.857-5.884-14.777-8.838c-0.501-0.301-0.034-1.07,0.469-0.77c7.055,4.237,14.071,8.536,21.265,12.539
	c0.065,0.026,0.128,0.058,0.192,0.083c1.229,0.499,2.388,0.998,3.366,1.908c0.39,0.364-0.122,0.932-0.561,0.698
	c-1.091-0.584-2.165-1.198-3.247-1.799c-0.357-0.146-0.717-0.298-1.065-0.472c-1.917-0.943-3.911-1.731-5.902-2.503
	c-3.71-1.438-7.484-2.712-11.185-4.175c-0.54-0.214-0.29-1.079,0.256-0.863C22.857,96.21,26.623,97.513,30.342,98.936z
	 M23.639,90.752c-1.501-0.839-2.988-1.694-4.462-2.575c-0.503-0.299-0.032-1.068,0.468-0.769c3.436,2.051,6.928,3.987,10.524,5.748
	c1.719,0.841,3.375,1.781,5.025,2.734c2.117,0.993,4.212,2.055,6.085,3.375c0.478,0.337,0.053,1.032-0.472,0.769
	c-1.706-0.861-3.344-1.835-4.985-2.805c-1.161-0.557-2.331-1.09-3.472-1.646c-3.475-1.694-6.988-3.294-10.63-4.598
	c-0.55-0.195-0.297-1.061,0.255-0.861C22.535,90.323,23.087,90.539,23.639,90.752z M7.454,91.639
	c1.308,2.654,2.645,5.354,3.29,6.785c1.642,3.252,3.117,6.712,4.614,9.896c0.053,0.11,4.04,6.989,6.949,9.639
	c3.99,3.629,20.745,2.851,23.91,2.072c0.158-0.041,0.581-0.033,0.681-0.034c0.003-0.001,2.234,0.012,1.845,0.277
	c-0.098,0.178-1.607,0.74-1.825,0.671c-3.268,1.291-10.751,2.463-11.012,2.517c-1.199,0.246-2.409,0.466-3.625,0.645
	c-1.056,0.154-2.139,0.285-3.22,0.336c-3.365,0.303-8.433,0.602-10.688-1.824c-0.686-0.732-3.151-6.615-3.799-8.574
	c-0.829-2.502-1.423-4.779-2.452-7.303c-0.984-2.418-3.051-7.407-3.062-7.429C8.487,97.979,6.6,89.898,7.454,91.639z"/>
</svg>
