<?xml version="1.0" encoding="utf-8"?>
<!-- Generator: Adobe Illustrator 16.0.0, SVG Export Plug-In . SVG Version: 6.00 Build 0)  -->
<!DOCTYPE svg PUBLIC "-//W3C//DTD SVG 1.1//EN" "http://www.w3.org/Graphics/SVG/1.1/DTD/svg11.dtd">
<svg version="1.1" id="coctail" xmlns="http://www.w3.org/2000/svg" xmlns:xlink="http://www.w3.org/1999/xlink" x="0px" y="0px"
	 width="842px" height="595px" viewBox="0 0 842 595" enable-background="new 0 0 842 595" xml:space="preserve">
<pattern  x="115.5" y="694" width="51.9" height="51.9" patternUnits="userSpaceOnUse" id="Octagons_Color" viewBox="0 -51.9 51.9 51.9" overflow="visible">
	<g>
		<polygon fill="none" points="0,0 51.9,0 51.9,-51.9 0,-51.9 		"/>
		<g>
			<polygon fill="none" points="0,-51.9 0,0 51.9,0 51.9,-51.9 			"/>
			<polygon fill="none" points="17.3,-26 25.9,-34.6 34.6,-26 25.9,-17.3 			"/>
			<polygon points="25.9,-8.699 0,-8.699 0,-17.3 25.9,-17.3 			"/>
			<polygon fill="#FBDF38" points="51.9,-51.9 51.9,-43.3 43.2,-51.9 			"/>
			<polygon points="8.6,-26 8.6,-51.9 17.3,-51.9 17.3,-26 			"/>
			<polygon fill="#FBDF38" points="0,-51.9 8.6,-51.9 0,-43.3 			"/>
			<polygon fill="#FBDF38" points="0,-17.3 0,-34.6 8.6,-26 			"/>
			<polygon fill="#FBDF38" points="34.6,0 17.3,0 25.9,-8.699 			"/>
			<polygon fill="#FBDF38" points="0,0 0,-8.699 8.6,0 			"/>
			<polygon fill="#FBDF38" points="17.3,-26 25.9,-34.6 34.6,-26 25.9,-17.3 			"/>
			<polygon points="43.2,-26 43.2,0 34.6,0 34.6,-26 			"/>
			<polygon points="25.9,-43.3 51.9,-43.3 51.9,-34.6 25.9,-34.6 			"/>
			<polygon fill="#FBDF38" points="51.9,-34.6 51.9,-17.3 43.2,-26 			"/>
			<polygon fill="#FBDF38" points="43.2,0 51.9,-8.699 51.9,0 			"/>
			<polygon fill="#FBDF38" points="17.3,-51.9 34.6,-51.9 25.9,-43.3 			"/>
			<polygon fill="#EC5C2F" points="0,-34.6 0,-43.3 8.6,-51.9 8.6,-26 			"/>
			<polygon fill="#EC5C2F" points="25.9,-34.6 17.3,-26 17.3,-51.9 25.9,-43.3 			"/>
			<polygon fill="#563996" points="34.6,-51.9 43.2,-51.9 51.9,-43.3 25.9,-43.3 			"/>
			<polygon fill="#563996" points="34.6,-26 25.9,-34.6 51.9,-34.6 43.2,-26 			"/>
			<polygon fill="#EC5C2F" points="43.2,-26 51.9,-17.3 51.9,-8.699 43.2,0 			"/>
			<polygon fill="#EC5C2F" points="25.9,-17.3 34.6,-26 34.6,0 25.9,-8.699 			"/>
			<polygon fill="#563996" points="17.3,0 8.6,0 0,-8.699 25.9,-8.699 			"/>
			<polygon fill="#563996" points="17.3,-26 25.9,-17.3 0,-17.3 8.6,-26 			"/>
			<polygon fill="#563996" points="8.6,-26 8.6,-51.9 17.3,-51.9 17.3,-26 			"/>
			<polygon fill="#EC5C2F" points="25.9,-43.3 51.9,-43.3 51.9,-34.6 25.9,-34.6 			"/>
			<polygon fill="#563996" points="34.6,0 34.6,-26 43.2,-26 43.2,0 			"/>
			<polygon fill="#EC5C2F" points="25.9,-8.699 0,-8.699 0,-17.3 25.9,-17.3 			"/>
		</g>
	</g>
</pattern>
<pattern  id="szivoszal_1_" xlink:href="#Octagons_Color" patternTransform="matrix(1 0 0 -1 -366.9004 -16702)">
</pattern>
<path id="szivoszal" fill="url(#szivoszal_1_)" d="M13.435,75.764c9.948-10.728,17.652-23.406,24.479-36.28
	c3.316-6.242,6.339-12.581,9.363-19.018c1.463-3.121,2.828-6.339,4.194-9.46c1.073-2.438,3.218-5.754,3.218-8.485
	c0-3.121-10.728-1.073-10.728,2.828c0,1.171,0,2.34,0,3.511c0,2.146,5.072,1.365,6.047,1.073c1.072-0.391,2.146-0.683,3.121-1.268
	c0.878-0.488,4.194-2.145,0.78-1.268c-1.658,0-3.316,0-4.974,0c0.195,0.098,0.39,0.195,0.585,0.195
	c-0.39-0.585-0.683-1.17-1.072-1.756c-1.171,3.414-2.341,6.827-3.511,10.143c-1.366,3.999,8.387,0.975,9.557,0
	c2.341-1.853,5.461-2.536,7.9-4.486c-3.023-0.292-6.144-0.487-9.167-0.78c-2.34,2.633-3.803,5.949-5.656,8.973
	c-2.633,4.291,6.729,2.34,8.192,1.462c3.316-1.95,6.924-2.633,10.045-5.169c-3.023-0.292-6.144-0.488-9.167-0.78
	c-1.755,2.926-2.731,6.046-4.486,8.973c-2.633,4.292,6.729,2.34,8.192,1.462c2.438-1.365,5.267-1.755,7.802-2.73
	c-2.438-0.488-4.974-0.877-7.412-1.365c-1.171,2.243-2.243,4.486-3.414,6.729c-1.366,2.633,5.169,2.048,6.046,1.755
	c3.901-1.268,7.9-2.145,11.605-3.803c-2.145-0.976-4.193-1.853-6.339-2.829c-4.193,3.121-6.924,7.705-9.752,11.898
	c-2.146,3.316,4.096,2.926,5.657,2.536c3.316-0.976,6.827-1.268,10.143-2.243c-2.048-0.585-3.999-1.17-6.047-1.755
	c-0.39,2.047-1.657,3.608-2.243,5.559c-0.975,3.316,6.242,1.853,7.412,1.365c3.901-1.755,7.9-2.926,11.215-5.754
	c-3.023-0.292-6.144-0.488-9.167-0.78c-3.511,3.804-5.559,8.582-9.07,12.289c-3.218,3.414,6.047,2.438,7.022,2.048
	c3.121-1.073,6.144-2.438,9.167-3.998c-2.731-0.488-5.462-0.976-8.192-1.463c-1.366,2.341-3.121,4.389-4.487,6.729
	c-2.633,4.389,7.51,2.243,9.167,0.78c2.146-1.95,4.584-3.608,6.827-5.559c-3.023-0.293-6.144-0.487-9.168-0.78
	c-0.877,0.975-1.658,2.34-2.828,3.023c-1.268,0.877-3.413,2.926-0.975,3.901c1.951,0.877,4.096,0.683,6.144,0.098
	c1.17-0.293,2.244-0.78,3.316-1.365c1.17-0.585,2.829-0.781-0.195-0.098c-1.853-0.195-3.803-0.293-5.657-0.488
	c0.098,0.098,0.098,0.195,0.195,0.195c0-0.682,0-1.365,0-2.048c-0.78,1.073-1.462,2.243-2.243,3.316
	c-2.536,3.804,5.559,2.73,7.021,2.048c2.829-1.268,5.852-1.95,8.777-2.925c-1.853-0.878-3.706-1.658-5.656-2.536
	c-1.462,2.633-3.121,5.169-4.486,7.802c-2.438,4.583,7.51,2.34,9.167,0.78c2.146-1.95,4.584-3.608,6.827-5.558
	c-3.023-0.293-6.144-0.488-9.167-0.781c-3.316,5.461-6.144,10.826-9.265,15.994c-2.536,4.292,6.729,2.341,8.192,1.463
	c3.608-2.145,7.704-3.413,11.313-5.559c-2.828,0-5.754,0-8.583,0c6.437,12.191,11.704,25.161,17.262,37.742
	c11.801,26.332,23.504,52.664,35.109,78.997c28.575,64.464,56.955,129.124,85.433,193.589c12.483,28.186,24.869,56.468,37.45,84.556
	c1.561,3.511,11.996,0.194,10.728-2.829c-21.943-48.957-43.399-98.11-65.05-147.166c-27.502-62.417-55.005-125.029-82.8-187.446
	c-8.973-20.09-17.165-40.863-27.405-60.368c-1.462-2.731-6.632-1.268-8.583,0c-3.608,2.145-7.705,3.414-11.313,5.559
	c2.731,0.488,5.461,0.975,8.192,1.463c3.121-5.168,5.949-10.533,9.07-15.701c2.633-4.389-7.51-2.244-9.167-0.781
	c-2.146,1.951-4.584,3.609-6.827,5.559c3.023,0.292,6.144,0.488,9.167,0.78c1.463-2.633,3.121-5.169,4.487-7.802
	c1.755-3.316-3.804-3.12-5.657-2.536c-3.901,1.268-7.899,2.146-11.606,3.804c2.341,0.682,4.682,1.365,7.022,2.047
	c0.78-1.072,1.463-2.243,2.243-3.316c0.488-0.78,0.488-1.268,0-2.048c-0.098-0.097-0.098-0.194-0.195-0.194
	c-0.975-1.463-4.389-0.781-5.657-0.488c-0.877,0.292-1.853,0.682-2.828,1.17c-1.365,0.683-2.438,0.487,0.585,0.097
	c1.17,0.098,2.341,0.195,3.511,0.293c-0.195-0.098-0.391-0.195-0.487-0.195c-0.293,1.268-0.683,2.634-0.976,3.901
	c2.536-1.658,4.193-3.609,6.242-5.852c1.268-1.462-0.293-2.536-1.658-2.828c-2.438-0.39-5.656,0.39-7.509,2.048
	c-2.146,1.951-4.583,3.608-6.827,5.559c3.023,0.293,6.144,0.488,9.167,0.781c1.365-2.341,3.121-4.389,4.486-6.73
	c2.633-4.389-6.729-2.145-8.192-1.462c-2.146,1.072-4.389,1.95-6.729,2.731c2.34,0.682,4.682,1.365,7.022,2.048
	c3.511-3.804,5.559-8.583,9.07-12.289c1.268-1.365-0.39-2.536-1.658-2.828c-2.536-0.488-5.559,0.39-7.51,2.047
	c-1.951,1.658-4.584,2.146-6.827,3.219c2.438,0.487,4.974,0.877,7.412,1.365c0.585-2.048,1.853-3.511,2.243-5.56
	c0.488-2.828-4.583-2.243-6.046-1.755c-3.316,0.975-6.827,1.268-10.143,2.243c1.854,0.878,3.707,1.658,5.657,2.536
	c2.438-3.706,4.779-7.802,8.388-10.435c4.583-3.414-4.292-3.707-6.339-2.829c-2.829,1.268-5.852,1.951-8.777,2.926
	c2.047,0.585,3.998,1.17,6.046,1.756c1.17-2.244,2.243-4.487,3.414-6.729c1.561-3.121-6.632-1.658-7.413-1.366
	c-3.51,1.366-6.924,2.048-10.24,3.999c2.73,0.488,5.461,0.976,8.192,1.463c1.755-2.926,2.73-6.046,4.486-8.972
	c2.731-4.487-7.607-2.048-9.167-0.781c-2.145,1.756-5.656,2.34-8.094,3.803c2.73,0.488,5.461,0.975,8.192,1.463
	c1.853-3.023,3.316-6.339,5.656-8.973c1.171-1.365-0.487-2.536-1.755-2.828c-2.536-0.487-5.559,0.39-7.509,2.048
	c-2.341,1.854-5.461,2.536-7.899,4.486c3.218,0,6.339,0,9.558,0c1.17-3.316,2.243-6.729,3.413-10.045
	c0.292-0.781-0.39-1.463-1.073-1.756c-2.048-0.877-3.999-0.682-6.144-0.097c-1.17,0.39-2.243,0.877-3.316,1.56
	c-1.658,1.073-4.584,2.341,0,0.781c2.048,0.39,3.999,0.682,6.046,1.073c0-1.171,0-2.341,0-3.511c0-3.121-10.728-1.073-10.728,2.828
	c0,1.755-2.438,5.364-3.121,7.022c-1.365,3.218-2.731,6.339-4.193,9.46c-3.121,6.924-6.437,13.751-10.045,20.383
	C20.066,54.112,12.752,65.816,3.487,75.666c-1.755,1.951,1.561,2.926,2.828,2.926C8.949,78.592,11.679,77.714,13.435,75.764
	L13.435,75.764z"/>
<g id="cherry">
	
		<radialGradient id="SVGID_1_" cx="124.23" cy="448.3359" r="28.206" gradientTransform="matrix(0.9699 0 0 -0.9607 11.0527 568.7004)" gradientUnits="userSpaceOnUse">
		<stop  offset="0" style="stop-color:#EF4136"/>
		<stop  offset="0.5879" style="stop-color:#ED1C24"/>
		<stop  offset="1" style="stop-color:#BE1E2D"/>
	</radialGradient>
	<path fill="url(#SVGID_1_)" d="M160.895,137.985c0,13.849-13.166,24.967-29.258,24.967c-16.189,0-29.257-11.216-29.257-24.967
		c0-13.849,13.166-24.967,29.257-24.967C147.729,112.921,160.895,124.136,160.895,137.985z"/>
	<path fill="#FFFFFF" d="M137.781,122.381c7.119-0.292,11.995,7.217,12.97,13.458c1.073,7.12-0.683,14.922-5.364,20.48
		c-0.487,0.585,1.365,0.488,1.755,0c5.267-6.242,6.535-14.434,5.267-22.333c-0.975-6.437-7.12-12.971-13.946-12.678
		C137.878,121.308,136.513,122.381,137.781,122.381L137.781,122.381z"/>
	<path fill="#FFFFFF" d="M124.517,120.626c-5.559,1.072-11.411,4.778-13.166,10.435c-0.195,0.585,1.658,0.293,1.853-0.292
		c1.463-4.682,6.242-8.388,10.923-9.265C125.005,121.308,125.785,120.333,124.517,120.626L124.517,120.626z"/>
</g>
<g id="ernyo">
	
		<linearGradient id="SVGID_2_" gradientUnits="userSpaceOnUse" x1="238.0723" y1="357.1758" x2="222.4107" y2="364.4789" gradientTransform="matrix(1 0 0 -1 8.5 571)">
		<stop  offset="0" style="stop-color:#C49A6C"/>
		<stop  offset="0.1697" style="stop-color:#A97C50"/>
		<stop  offset="0.3152" style="stop-color:#C49A6C"/>
		<stop  offset="0.4788" style="stop-color:#A97C50"/>
		<stop  offset="0.7152" style="stop-color:#C49A6C"/>
		<stop  offset="0.8667" style="stop-color:#A97C50"/>
		<stop  offset="1" style="stop-color:#C49A6C"/>
	</linearGradient>
	<path fill="url(#SVGID_2_)" d="M205.366,299.099c0,0,1.951-11.703,3.218-15.41c13.751-40.961,62.222-162.673,62.222-162.673
		l4.584,1.755c0,0-45.252,122.688-62.222,162.674C211.608,289.053,205.366,299.099,205.366,299.099z"/>
	
		<linearGradient id="SVGID_3_" gradientUnits="userSpaceOnUse" x1="194.9351" y1="460.4404" x2="250.7559" y2="574.8901" gradientTransform="matrix(1 0 0 -1 8.5 571)">
		<stop  offset="0" style="stop-color:#ED1C24"/>
		<stop  offset="0.5" style="stop-color:#BE1E2D"/>
		<stop  offset="1" style="stop-color:#ED1C24"/>
	</linearGradient>
	<path fill="url(#SVGID_3_)" stroke="#BE1E2D" stroke-miterlimit="10" d="M154.945,79.177c1.268,0.195,2.633,0.488,3.901,0.976
		c6.339,2.438,10.436,7.997,10.436,13.75l1.853,0.683l139.658-73.34L154.945,79.177z"/>
	
		<linearGradient id="SVGID_4_" gradientUnits="userSpaceOnUse" x1="260.5527" y1="438.1562" x2="312.1418" y2="543.9296" gradientTransform="matrix(1 0 0 -1 8.5 571)">
		<stop  offset="0" style="stop-color:#ED1C24"/>
		<stop  offset="0.5" style="stop-color:#BE1E2D"/>
		<stop  offset="1" style="stop-color:#ED1C24"/>
	</linearGradient>
	<path fill="url(#SVGID_4_)" stroke="#BE1E2D" stroke-miterlimit="10" d="M272.952,122.576c6.437,2.438,10.533,8.29,10.338,14.044
		l0.683,0.292L310.5,22.124l-55.103,104.06l0.488,0.196C259.493,121.894,266.417,120.138,272.952,122.576z"/>
	
		<linearGradient id="SVGID_5_" gradientUnits="userSpaceOnUse" x1="219.1089" y1="451.9912" x2="273.6133" y2="563.7419" gradientTransform="matrix(1 0 0 -1 8.5 571)">
		<stop  offset="0" style="stop-color:#ED1C24"/>
		<stop  offset="0.5" style="stop-color:#BE1E2D"/>
		<stop  offset="1" style="stop-color:#ED1C24"/>
	</linearGradient>
	<path fill="url(#SVGID_5_)" stroke="#BE1E2D" stroke-miterlimit="10" d="M214.339,104.631c5.559,2.048,9.655,6.047,11.312,10.436
		l1.854,0.683l83.287-94.503L198.93,105.021l0,0C203.123,102.876,208.78,102.583,214.339,104.631z"/>
	<path fill="#FFFFFF" stroke="#BE1E2D" stroke-miterlimit="10" d="M244.767,112.824c6.242,2.34,10.241,7.704,10.436,13.263h0.098
		l55.492-104.938l-84.166,94.21l1.463,0.585C231.894,111.946,238.525,110.482,244.767,112.824z"/>
	<path fill="#FFFFFF" stroke="#BE1E2D" stroke-miterlimit="10" d="M187.227,93.318c5.851,2.243,10.045,6.729,11.411,11.605
		l0.195,0.098l112.253-84.653L170.257,94.294l0.78,0.292C175.231,91.758,181.375,91.075,187.227,93.318z"/>
	
		<linearGradient id="SVGID_6_" gradientUnits="userSpaceOnUse" x1="316.2036" y1="425.9141" x2="362.1568" y2="520.1321" gradientTransform="matrix(1 0 0 -1 8.5 571)">
		<stop  offset="0" style="stop-color:#ED1C24"/>
		<stop  offset="0.5" style="stop-color:#BE1E2D"/>
		<stop  offset="1" style="stop-color:#ED1C24"/>
	</linearGradient>
	<path fill="url(#SVGID_6_)" stroke="#BE1E2D" stroke-miterlimit="10" d="M390.666,165c-1.073-0.683-2.243-1.268-3.609-1.756
		c-6.436-2.243-13.166-0.585-16.872,3.804l-1.853-0.683L309.524,21.051L390.666,165z"/>
	
		<linearGradient id="SVGID_7_" gradientUnits="userSpaceOnUse" x1="291.1377" y1="430.4004" x2="340.1783" y2="530.9486" gradientTransform="matrix(1 0 0 -1 8.5 571)">
		<stop  offset="0" style="stop-color:#ED1C24"/>
		<stop  offset="0.5" style="stop-color:#BE1E2D"/>
		<stop  offset="1" style="stop-color:#ED1C24"/>
	</linearGradient>
	<path fill="url(#SVGID_7_)" stroke="#BE1E2D" stroke-miterlimit="10" d="M328.737,146.373c-5.559-1.951-11.312-1.561-15.409,0.683
		l-1.854-0.683l-1.951-125.418l30.819,135.561l0,0C338.489,152.224,334.296,148.323,328.737,146.373z"/>
	<path fill="#FFFFFF" stroke="#BE1E2D" stroke-miterlimit="10" d="M300.162,133.207c-6.242-2.244-12.874-0.585-16.58,3.511h-0.098
		l26.039-115.569l2.829,125.711l-1.463-0.487C310.5,140.716,306.403,135.352,300.162,133.207z"/>
	<path fill="#FFFFFF" stroke="#BE1E2D" stroke-miterlimit="10" d="M356.727,155.052c-5.95-2.048-12.094-1.268-16.287,1.561
		l-0.195-0.098L309.816,20.174l59.394,146.582l-0.78-0.292C366.967,161.586,362.676,157.198,356.727,155.052z"/>
	<path fill="#BE1E2D" stroke="#BE1E2D" stroke-miterlimit="10" d="M309.427,14.517c1.56-4.193,4.194-7.021,5.754-6.437
		c1.561,0.585,1.561,4.486-0.098,8.583c-1.56,4.193-4.193,7.12-5.754,6.437C307.769,22.515,307.866,18.613,309.427,14.517z"/>
</g>
<radialGradient id="drink_1_" cx="218.2012" cy="261.2568" r="121.5388" gradientTransform="matrix(1.2138 0 0 -1.0785 -70.5523 611.3208)" gradientUnits="userSpaceOnUse">
	<stop  offset="0.0061" style="stop-color:#F9ED32"/>
	<stop  offset="0.2182" style="stop-color:#FBB040"/>
	<stop  offset="0.4182" style="stop-color:#F7941E"/>
	<stop  offset="0.6667" style="stop-color:#F26522"/>
	<stop  offset="1" style="stop-color:#EF4136"/>
</radialGradient>
<path id="drink" fill="url(#drink_1_)" stroke="#A7A9AC" stroke-width="7.0866" stroke-miterlimit="10" d="M285.338,358.198
	c-22.821-38.912-13.556-139.656-5.949-181.982c-26.625-3.414-65.05,13.653-93.625,13.653c-14.921,0-54.03-0.683-67.976-13.946
	c3.218,16.189,23.503,103.377,3.901,119.763c-19.896,32.476-41.839,62.513-43.79,101.427
	c-3.803,79.483,123.664,104.841,188.323,72.656C330.979,439.341,313.913,405.598,285.338,358.198z"/>
<g id="leg">
	
		<radialGradient id="SVGID_8_" cx="196.5771" cy="-53.8096" r="88.3235" gradientTransform="matrix(1 0 0 -0.55 8.5 504.8118)" gradientUnits="userSpaceOnUse">
		<stop  offset="0" style="stop-color:#E6E7E8"/>
		<stop  offset="0.3879" style="stop-color:#D1D3D4"/>
		<stop  offset="0.7515" style="stop-color:#BCBEC0"/>
		<stop  offset="1" style="stop-color:#A7A9AC"/>
	</radialGradient>
	<path fill="url(#SVGID_8_)" d="M156.701,478.937c30.624,7.412,23.992,54.712-3.218,55.2l15.02-14.922
		c-32.574-3.608-101.72,26.234-64.66,51.591c33.159,23.406,87.773,19.506,126.784,17.555c19.505-1.95,101.428-7.802,83.873-44.861
		c-7.802-15.604-74.51-24.479-90.115-24.479l19.408,22.724c-27.307-5.852-28.868-43.691-7.412-59.296c0,0-30.428,4.682-41.936,3.706
		C184.886,485.179,156.701,478.937,156.701,478.937z"/>
	
		<radialGradient id="SVGID_9_" cx="182.9204" cy="-69.6108" r="11.8429" gradientTransform="matrix(1 0 0 -0.55 8.5 512.3099)" gradientUnits="userSpaceOnUse">
		<stop  offset="0" style="stop-color:#E6E7E8"/>
		<stop  offset="0.3879" style="stop-color:#D1D3D4"/>
		<stop  offset="0.7515" style="stop-color:#BCBEC0"/>
		<stop  offset="1" style="stop-color:#A7A9AC"/>
	</radialGradient>
	<path fill="url(#SVGID_9_)" d="M174.841,548.277c9.752,5.853,21.456,5.853,33.159,1.951"/>
	<path fill="#A7A9AC" d="M152.41,481.081c12.386,3.219,19.115,13.947,19.212,26.332c0.098,8.974-5.071,23.895-15.799,24.382
		c0.877,0.683,1.755,1.366,2.633,2.049c4.974-4.974,10.046-9.947,15.019-14.922c1.268-1.268-0.292-1.95-1.463-2.048
		c-17.652-1.755-36.377,3.121-52.469,10.045c-11.411,4.876-30.818,14.142-31.598,28.673c-0.39,7.022,4.681,12.483,9.947,16.481
		c8.875,6.535,19.31,10.826,29.94,13.85c23.211,6.631,47.983,6.826,71.877,6.144c31.403-0.877,64.562-2.633,94.405-13.36
		c10.923-3.901,25.844-10.923,27.99-23.797c2.438-14.434-10.045-20.968-21.456-25.161c-13.264-4.877-27.405-7.51-41.352-9.753
		c-10.728-1.755-21.65-3.316-32.573-3.316c-1.268,0-9.363,1.854-7.315,4.292c6.437,7.606,12.972,15.116,19.408,22.723
		c3.121-1.365,6.242-2.729,9.363-4.096c-26.137-6.144-26.917-42.229-7.705-56.761c3.218-2.438-1.268-2.827-3.218-2.535
		c-12.581,1.95-25.844,4.292-38.62,3.608c-12.484-0.683-25.357-4.291-37.548-7.021c-2.438-0.585-5.266,0.195-7.51,1.268
		C152.702,478.448,149.874,480.497,152.41,481.081c13.068,2.927,26.722,6.633,40.181,7.413c14.142,0.78,28.868-1.756,42.813-3.9
		c-1.072-0.879-2.145-1.659-3.218-2.536c-10.728,8.094-16.58,20.578-15.897,34.036c0.683,13.654,9.85,24.674,23.114,27.795
		c1.561,0.39,11.703-1.268,9.363-4.096c-6.437-7.606-12.971-15.116-19.408-22.724c-2.438,1.463-4.876,2.827-7.314,4.291
		c13.946,0.098,30.428,3.023,44.764,5.949c8.777,1.853,17.457,3.998,25.845,7.119c5.461,1.95,12.483,4.584,15.896,9.655
		c7.9,11.508-0.488,23.017-10.923,28.477c-13.068,6.827-28.672,9.169-43.107,11.119c-14.921,2.047-29.843,2.926-44.764,3.511
		c-24.479,0.975-49.543,0.878-73.34-5.559c-10.825-2.926-21.456-7.607-30.33-14.531c-5.267-4.097-9.07-10.144-6.924-16.971
		c2.048-6.729,8.484-11.41,14.141-15.019c7.509-4.778,15.994-7.997,24.479-10.338c8.777-2.438,18.139-3.998,27.307-3.12
		c-0.488-0.683-0.975-1.365-1.463-2.049c-4.974,4.975-10.045,9.948-15.019,14.922c-1.755,1.756,1.561,2.146,2.633,2.049
		c15.506-0.586,27.893-10.729,30.525-26.041c2.634-15.311-5.461-29.744-20.675-33.743c-2.438-0.585-5.364,0.194-7.51,1.268
		C152.604,478.448,149.972,480.497,152.41,481.081z"/>
	<path fill="#A7A9AC" d="M167.233,550.911c13.556,7.704,29.258,5.266,43.399,0.78c0.488-0.195,7.217-2.829,4.877-4.097
		c-2.731-1.56-7.607,0.293-10.241,1.17c-7.802,2.438-15.896,0.878-22.918-3.121c-2.633-1.462-7.705,0.293-10.24,1.171
		C171.622,546.912,164.991,549.546,167.233,550.911L167.233,550.911z"/>
</g>
<radialGradient id="ice2_1_" cx="193.2651" cy="306.3496" r="48.1006" gradientTransform="matrix(0.9699 0 0 -0.9607 11.0527 568.7004)" gradientUnits="userSpaceOnUse">
	<stop  offset="0" style="stop-color:#FFFFFF;stop-opacity:0"/>
	<stop  offset="0.1879" style="stop-color:#FFFFFF;stop-opacity:0"/>
	<stop  offset="0.6364" style="stop-color:#FFFFFF;stop-opacity:0.6512"/>
	<stop  offset="0.699" style="stop-color:#EAE5DB;stop-opacity:0.7027"/>
	<stop  offset="0.7804" style="stop-color:#D8CFBE;stop-opacity:0.7696"/>
	<stop  offset="0.8594" style="stop-color:#CCC0AA;stop-opacity:0.8344"/>
	<stop  offset="0.934" style="stop-color:#C5B89F;stop-opacity:0.8958"/>
	<stop  offset="1" style="stop-color:#C2B59B;stop-opacity:0.95"/>
</radialGradient>
<path id="ice2" fill="url(#ice2_1_)" stroke="#FFFFFF" stroke-width="0.2835" stroke-miterlimit="10" d="M247.692,264.769
	c-8.679-4.876-18.53-11.508-34.426-11.411c-9.167,0.098-32.671,1.17-37.353,5.657c-6.339,6.046-3.998,42.229-0.975,49.25
	c3.023,6.925,15.702,15.994,22.041,17.067c8.875,1.561,17.555-2.438,24.869-3.804c8.095-1.463,16.287-1.365,23.894-5.656
	C248.668,301.537,249.351,280.569,247.692,264.769z M200.002,254.626l4.876-0.195c0.39,0,10.24-0.975,14.043-0.292
	c0.78,0.098,5.559,1.463,7.802,2.438c3.413,1.463,8.29,4.584,11.508,6.339c0.584,0.292-3.414-0.78-3.999-1.073
	c-0.293-0.098-11.411-5.267-14.825-5.754c-4.291-0.683-3.9-0.975-15.311-0.975C202.733,255.114,199.417,254.626,200.002,254.626z
	 M192.103,259.697c3.609-2.145,7.9-1.657,11.898-2.047c0.488-0.098,0.878-0.098,1.365-0.195h0.098l0,0h0.098
	c0.585-0.098,0.682,0.878,0.097,0.975c-0.487,0.098-0.976,0.195-1.463,0.195c-2.243,0.39-4.486,1.072-6.631,1.755
	c5.364-0.195,10.728-0.487,16.092-0.487c0.585,0,0.585,0.975,0,0.975c-4.486,0-8.875,0.487-13.166,1.561
	c6.339-0.195,12.581-0.781,18.919-1.073c0.585,0,0.683,0.78,0.098,0.976c-5.267,1.462-11.118,0.975-16.092,3.315
	c2.048,0,4.292-0.487,6.145-0.682c2.633-0.293,5.169-0.683,7.802-1.073c2.633-0.39,6.145-1.561,8.777-0.781
	c0.585,0.195,0.293,1.073-0.292,0.878c-1.463-0.391-3.609,0-5.071,0.195c-2.243,0.39-4.486,0.683-6.729,0.975
	c-2.146,0.293-4.291,0.585-6.437,0.78c-2.048,0.195-4.096,0.683-6.144,0.39c-0.39-0.098-0.488-0.683-0.098-0.877
	c2.633-1.561,5.461-2.244,8.387-2.634c-4.291,0.292-8.582,0.585-12.971,0.585c-0.585,0-0.585-0.78-0.098-0.975
	c1.561-0.585,3.121-0.976,4.681-1.365c-2.438,0.097-4.876,0.194-7.412,0.292c-0.585,0-0.682-0.78-0.097-0.975
	c1.658-0.487,3.218-0.976,4.876-1.463c-2.146,0.195-4.291,0.585-6.144,1.658C192.005,260.868,191.517,260.088,192.103,259.697z
	 M178.547,271.401c0.097,0.195,0.195,0.292,0.195,0.487c-0.292-1.365-0.292-2.535,0.39-2.926c0.585-0.292,1.073,0.585,0.488,0.78
	c-0.976,0.488,2.536,8.973,2.828,9.753c0.78,1.951,1.561,4.096,2.438,6.144c0.683,1.073,1.268,2.146,1.853,3.316
	c0.293,0.585-0.488,0.975-0.78,0.487c-0.781-0.975-1.366-2.146-1.951-3.315c-0.488-0.78-0.976-1.561-1.463-2.438
	c1.853,3.511,3.901,6.827,5.656,10.338c0.293,0.585-0.585,1.072-0.78,0.487c-3.706-7.412-8.972-14.434-9.85-22.821
	C177.571,271.206,178.351,271.011,178.547,271.401z M182.936,308.852c-0.292-0.293-4.974-3.512-4.779-3.317
	c-0.585-0.389-0.976-0.683-1.463-1.268c-1.268-1.755-1.365-3.997-1.365-6.047c0-1.463-0.195-3.217-0.293-5.071
	c0-0.097,0-0.682,0-0.877c0-0.878,0.098-4.292,0.098-4.486c0.195-1.269,0.488-4.877,0.488-5.169c0-0.195,0.585-2.438,0.585-1.755
	c0.098,0.39,1.365,4.291,1.365,4.389c0.195,0.78,0.488,2.34,0.488,2.34c0.683,1.853,0.292,3.901,0.488,5.853
	c0.292,2.925,0.683,6.046,1.95,8.679c2.048,4.292,8.192,7.607,11.118,11.314C192.103,314.117,185.178,310.411,182.936,308.852z
	 M190.445,303.097c-4.194-7.216-9.363-13.849-12.776-21.456c-0.293-0.584,0.585-1.072,0.78-0.487
	c3.413,7.607,8.583,14.239,12.776,21.456C191.615,303.097,190.835,303.584,190.445,303.097z M202.733,277.058
	c-6.242,9.459-0.292,24.479-3.803,38.913c-1.755-12.972-1.561-25.162-3.608-34.817c0-0.097-0.098-0.097-0.098-0.195
	c-0.487-2.34-1.073-4.876-2.34-6.924c-0.878-1.463-5.852-7.022-6.535-7.51c-0.39-0.292-7.998-5.461-7.802-5.461
	c0.585,0,7.704,3.901,9.07,4.389c14.336,4.876,33.549,1.951,50.519,0.292C227.7,272.961,209.17,267.305,202.733,277.058z
	 M231.698,283.299c0.488-0.39,0.976,0.488,0.488,0.78c-3.414,2.438-6.924,4.682-10.436,7.022c-1.853,1.268-3.706,2.634-5.364,3.998
	c-0.292,0.293-0.683,0.488-0.976,0.782c-0.975,0.876-1.853,1.754-2.828,2.632c-0.39,0.391-1.073-0.097-0.78-0.585
	c0.78-1.171,1.853-1.95,2.926-2.829c0.098,0,0.098-0.097,0.195-0.097c6.339-5.852,12.483-12.094,18.627-18.14
	c0.39-0.39,1.073,0.195,0.683,0.683c-4.291,4.292-8.583,8.484-12.874,12.776C224.774,287.98,228.285,285.737,231.698,283.299z
	 M227.602,279.3c0.488-0.292,0.975,0.488,0.488,0.78c-3.414,2.243-6.632,4.779-9.752,7.315c-1.073,0.877-2.048,1.658-3.121,2.535
	c-1.463,1.366-2.828,2.829-4.389,4.096c-0.488,0.391-1.073-0.195-0.683-0.683c1.561-1.853,3.414-3.414,5.364-4.974
	c1.462-1.366,2.925-2.731,4.486-4.096c3.218-2.73,6.339-5.559,9.265-8.485c0.39-0.39,1.073,0.195,0.683,0.683
	c-1.268,1.268-2.634,2.536-3.901,3.706C226.626,279.983,227.115,279.593,227.602,279.3z M243.206,285.445
	c0,0-0.877,5.656-1.268,8.387c-0.39,2.829-0.487,5.364-0.683,8.094c-0.195,2.146-1.17,8.777-1.755,9.753
	c-1.658,3.024-6.925,3.999-10.533,4.486c-1.073,0.195-2.243,0.391-3.413,0.488c-1.268,0.097-2.536,0.194-3.901,0.292
	c-0.293,0-8.193,0.684-11.898,0.195c-0.195,0.098-1.853-0.098-2.048-0.195c-0.488-0.195,1.853-0.78,1.853-0.78
	c0.097,0,0.487-0.098,0.683-0.098c3.414,0,20.772-3.413,23.992-8.095c2.34-3.413,4.681-11.508,4.681-11.605
	c0.683-3.608,1.366-7.509,2.244-11.313c0.292-1.657,0.975-4.681,1.658-7.802C243.304,275.205,243.402,283.982,243.206,285.445z"/>
<radialGradient id="ice1_1_" cx="139.4194" cy="240.729" r="44.4904" gradientTransform="matrix(-0.9418 0.2294 -0.2315 -0.933 363.2768 522.9975)" gradientUnits="userSpaceOnUse">
	<stop  offset="0" style="stop-color:#FFFFFF;stop-opacity:0"/>
	<stop  offset="0.1879" style="stop-color:#FFFFFF;stop-opacity:0"/>
	<stop  offset="0.6364" style="stop-color:#FFFFFF;stop-opacity:0.83"/>
	<stop  offset="0.699" style="stop-color:#EAE5DB;stop-opacity:0.8507"/>
	<stop  offset="0.7804" style="stop-color:#D8CFBE;stop-opacity:0.8775"/>
	<stop  offset="0.8594" style="stop-color:#CCC0AA;stop-opacity:0.9036"/>
	<stop  offset="0.934" style="stop-color:#C5B89F;stop-opacity:0.9282"/>
	<stop  offset="1" style="stop-color:#C2B59B;stop-opacity:0.95"/>
</radialGradient>
<path id="ice1" fill="url(#ice1_1_)" stroke="#FFFFFF" stroke-width="0.2835" stroke-miterlimit="10" d="M143.047,378.095
	c7.802,2.146,15.117,0.292,22.723-0.098c6.924-0.391,15.604,1.269,23.211-2.048c5.364-2.341,14.824-13.264,15.994-20.091
	c1.17-7.021-4.876-39.985-11.8-44.082c-5.169-3.023-26.625,1.073-34.817,3.023c-14.336,3.413-21.65,11.508-28.379,17.75
	C131.929,347.081,137.293,365.708,143.047,378.095z M166.941,314.215c-10.143,2.438-9.753,2.633-13.459,4.193
	c-3.023,1.171-11.898,8.29-12.093,8.485c-0.488,0.39-3.804,2.243-3.414,1.852c2.536-2.242,6.242-6.045,8.973-8.191
	c1.755-1.462,5.754-3.706,6.437-3.9c3.315-1.463,12.385-2.73,12.678-2.73l4.389-0.879
	C171.037,312.85,168.111,314.02,166.941,314.215z M178.449,316.653c-1.951-0.586-3.901-0.488-5.852-0.098
	c1.561,0.098,3.121,0.194,4.682,0.292c0.487,0,0.584,0.781,0.097,0.878c-2.243,0.487-4.485,0.975-6.729,1.366
	c1.463,0,2.926,0,4.486,0.194c0.488,0.098,0.585,0.78,0.098,0.878c-3.901,0.975-7.802,1.657-11.801,2.341
	c2.73-0.292,5.461-0.292,8.192,0.584c0.293,0.099,0.488,0.684,0.098,0.781c-1.755,0.78-3.706,0.78-5.559,1.072
	c-1.951,0.293-3.998,0.488-5.949,0.683c-2.048,0.195-4.194,0.391-6.242,0.585c-1.365,0.098-3.315,0.196-4.583,0.879
	c-0.488,0.292-0.878-0.487-0.39-0.781c2.243-1.268,5.559-1.072,8.094-1.268c2.438-0.195,4.876-0.487,7.217-0.78
	c1.756-0.194,3.901-0.292,5.657-0.683c-4.974-0.976-10.143,0.683-15.214,0.488c-0.488,0-0.585-0.78-0.098-0.878
	c5.754-1.073,11.508-1.951,17.262-3.121c-4.096-0.099-8.192,0.487-12.19,1.463c-0.585,0.098-0.781-0.683-0.196-0.878
	c4.779-1.17,9.655-2.048,14.532-3.022c-2.146-0.099-4.291-0.196-6.339-0.099c-0.488,0.099-0.877,0.099-1.365,0.099
	s-0.585-0.781-0.098-0.879h0.098l0,0h0.098c0.39,0,0.78-0.097,1.268-0.097c3.706-0.488,7.412-1.854,11.118-0.683
	C179.327,315.971,179.034,316.848,178.449,316.653z M194.346,323.382c1.073,7.802-2.048,15.215-3.804,22.725
	c-0.097,0.585-0.975,0.292-0.877-0.293c0.781-3.511,1.951-7.022,2.731-10.533c-0.195,0.878-0.488,1.658-0.78,2.438
	c-0.292,1.17-0.585,2.341-0.976,3.413c-0.194,0.488-0.975,0.293-0.877-0.292c0.292-1.171,0.585-2.243,0.975-3.414
	c0.39-2.047,0.585-4.096,0.878-6.047c0.098-0.78,1.365-9.166,0.39-9.361c-0.585-0.099-0.292-0.976,0.292-0.879
	c0.78,0.098,0.976,1.171,1.073,2.536c0-0.194,0.097-0.293,0.097-0.487C193.663,322.895,194.346,322.895,194.346,323.382z
	 M191.127,363.953c1.756-3.901,6.535-8.29,7.412-12.581c0.585-2.634,0.195-5.559-0.195-8.192c-0.292-1.755-1.072-3.511-0.878-5.363
	c0,0-0.097-1.463-0.097-2.244c0-0.097,0.293-3.9,0.293-4.29c-0.098-0.586,0.975,1.268,0.975,1.463c0,0.292,1.073,3.413,1.561,4.584
	c0.097,0.097,0.877,3.218,1.072,3.998c0.098,0.195,0.195,0.683,0.195,0.78c0.292,1.657,0.488,3.218,0.878,4.584
	c0.487,1.854,0.877,3.9,0.097,5.754c-0.195,0.585-0.585,0.976-0.975,1.463c0.195-0.293-3.316,3.706-3.609,3.999
	C196.199,359.76,190.835,364.636,191.127,363.953z M188.982,354.103c2.146-7.411,5.364-14.434,6.729-22.04
	c0.098-0.585,0.975-0.293,0.877,0.292c-1.365,7.606-4.486,14.727-6.729,22.041C189.665,354.884,188.787,354.688,188.982,354.103z
	 M138.659,331.282c15.604-2.146,33.451-3.805,45.35-11.314c1.073-0.779,6.631-5.851,7.217-5.948c0.195,0-5.559,6.242-5.754,6.632
	c-0.488,0.585-3.707,6.632-4.194,8.192c-0.683,2.146-0.683,4.486-0.585,6.729c0,0.099,0,0.099,0,0.195
	c0.292,9.07,3.121,20.091,4.486,32.087c-6.437-12.191-4.389-26.918-12.093-34.037C165.088,326.308,149.679,335.476,138.659,331.282z
	 M159.334,349.714c-4.876-2.828-9.655-5.753-14.434-8.582c-0.488-0.292,0-1.072,0.487-0.78c6.924,4.097,13.751,8.29,20.773,12.19
	c0.098,0,0.098,0.098,0.195,0.098c1.17,0.487,2.34,0.976,3.316,1.854c0.39,0.391-0.098,0.878-0.585,0.683
	c-1.073-0.585-2.145-1.17-3.121-1.755c-0.39-0.099-0.683-0.294-1.073-0.487c-1.853-0.879-3.804-1.659-5.754-2.438
	c-3.609-1.366-7.314-2.634-10.923-4.097c-0.487-0.195-0.292-1.073,0.293-0.878C152.019,347.081,155.726,348.35,159.334,349.714z
	 M152.8,341.814c-1.463-0.779-2.926-1.658-4.389-2.535c-0.488-0.293,0-1.073,0.487-0.78c3.316,2.048,6.729,3.9,10.241,5.559
	c1.657,0.78,3.316,1.756,4.876,2.634c2.048,0.975,4.096,2.047,5.949,3.315c0.488,0.293,0.098,0.976-0.487,0.78
	c-1.658-0.878-3.219-1.755-4.876-2.73c-1.17-0.586-2.244-1.073-3.414-1.561c-3.413-1.658-6.827-3.219-10.338-4.486
	c-0.487-0.195-0.292-1.073,0.292-0.878C151.727,341.327,152.312,341.522,152.8,341.814z M137,342.595
	c1.268,2.634,2.536,5.267,3.219,6.632c1.56,3.219,3.022,6.534,4.486,9.655c0.097,0.098,3.901,6.826,6.729,9.361
	c3.901,3.513,20.188,2.83,23.309,2.05c0.195,0,0.585,0,0.683,0c0,0,2.146,0,1.755,0.292c-0.098,0.195-1.56,0.683-1.755,0.683
	c-3.218,1.268-10.533,2.438-10.728,2.438c-1.17,0.194-2.341,0.487-3.511,0.585c-1.073,0.194-2.048,0.292-3.121,0.292
	c-3.316,0.294-8.192,0.586-10.436-1.755c-0.682-0.683-3.121-6.437-3.706-8.388c-0.78-2.438-1.365-4.681-2.438-7.118
	c-0.976-2.342-3.023-7.218-3.023-7.218C138.073,348.837,136.221,340.937,137,342.595z"/>
<g id="lemon">
	<path fill="#FFDE17" stroke="#D7DF23" stroke-miterlimit="10" d="M162.942,404.329c-4.778,3.121-12.776,0-16.774-6.145
		l-6.632,3.804c20.188,33.842,55.98,37.256,86.798,20.969c28.965-15.312,40.278-55.493,20.968-89.823l-7.802,5.17
		c3.511,6.632,2.536,14.435-2.34,17.652"/>
	<path fill="#FFF450" stroke="#FFDE17" stroke-miterlimit="10" d="M225.359,416.325c27.405-17.555,35.695-53.347,18.726-80.167
		l-7.314,4.682c3.022,5.267,1.951,11.605-2.634,14.531c-1.365,0.877-26.722,7.412-34.914,9.46l-11.411,7.314l-23.114,27.404
		c-4.486,2.927-10.728,1.365-14.336-3.413l-6.632,4.193C161.577,426.857,197.856,433.977,225.359,416.325z M236.379,365.123
		c5.462,1.17,8.875,7.12,7.51,13.361c-1.365,6.145-6.925,10.24-12.386,9.07c-1.853-0.391-33.647-19.018-33.647-19.018
		L236.379,365.123z M181.57,417.982c-6.242-1.365-10.338-6.827-9.168-12.288c0.39-1.854,19.213-33.354,19.213-33.354l3.413,38.133
		C193.858,416.032,187.812,419.349,181.57,417.982z M195.809,371.364l29.648,24.577c3.023,4.682,1.169,11.216-4.194,14.727
		c-5.364,3.413-12.191,2.438-15.213-2.243C204.976,406.767,195.809,371.364,195.809,371.364z"/>
	<path fill="#FFF450" stroke="#FFDE17" stroke-miterlimit="10" d="M191.517,372.438c0,0-18.822,31.5-19.212,33.353
		c-1.171,5.463,2.926,10.924,9.167,12.289c6.242,1.365,12.289-2.048,13.458-7.509L191.517,372.438z"/>
	<path fill="#FFF450" stroke="#FFDE17" stroke-miterlimit="10" d="M164.698,399.647l23.114-27.404l-37.45,23.991
		C153.97,401.014,160.212,402.573,164.698,399.647z"/>
	<path fill="#FFF450" stroke="#FFDE17" stroke-miterlimit="10" d="M236.77,340.84l-37.451,23.991
		c8.095-2.048,33.549-8.583,34.915-9.46C238.721,352.542,239.891,346.106,236.77,340.84z"/>
	<path fill="#FFF450" d="M177.767,409.692c4.096,6.729,10.337,2.731,11.41-3.607c0.78-6.242,0.878-14.045,0.683-20.578"/>
	<path fill="#FFF450" d="M233.551,385.312c6.339-0.488,10.533-13.068,4.389-16.189c-3.316-1.658-9.07-0.098-12.385,0.878
		c-5.364,1.95-8.095,2.341-13.557,1.268"/>
	<path fill="#FFF450" stroke="#FFDE17" stroke-miterlimit="10" d="M221.263,410.668c5.364-3.413,7.217-10.045,4.194-14.727
		l-29.648-24.577c0,0,9.167,35.402,10.24,37.061C209.072,413.106,215.899,414.081,221.263,410.668z"/>
	<path fill="#FFF450" stroke="#FFDE17" stroke-miterlimit="10" d="M243.889,378.484c1.365-6.241-2.048-12.191-7.51-13.361
		l-38.523,3.414c0,0,31.794,18.627,33.647,19.018C237.062,388.725,242.621,384.629,243.889,378.484z"/>
	<path fill="#FFF450" d="M210.632,407.741c5.462,1.366,14.337-5.753,11.216-11.312c-3.218-6.242-14.044-7.704-17.555-14.823"/>
	<path fill="#FFFFFF" d="M233.551,385.507c5.949-0.977,8.973-8.68,7.022-13.946c-1.17-3.121-4.681-3.414-7.412-3.317
		c-2.146,0.099-4.389,0.684-6.535,1.269c-5.071,1.365-9.069,2.438-14.434,1.562c-0.195,0-0.585,0.291-0.292,0.291
		c6.437,1.171,11.021-0.584,17.262-2.145c5.559-1.365,11.508-0.585,11.508,6.046c0,4-2.731,9.168-7.12,9.851
		C233.356,385.214,233.161,385.604,233.551,385.507L233.551,385.507z"/>
	<path fill="#FFFFFF" d="M191.034,413.596c-4.248,2.958-11.265,1.718-14.364-2.97c-2.024-3.036,0.283-7.347,1.808-9.89
		c2.514-4.3,5.812-7.997,6.096-13.406c0.041-0.343,0.949-0.336,0.95-0.121c-0.244,5.282-3.5,9.283-6.138,13.533
		c-1.483,2.417-2.554,4.857-2.428,7.92c0.294,6,10.157,7.09,13.416,4.812C190.58,413.27,191.488,413.275,191.034,413.596
		L191.034,413.596z"/>
	<path fill="#FFFFFF" d="M210.34,407.938c5.461,0.878,11.703-3.219,12.581-8.777c0.585-3.608-3.608-6.535-6.241-8.191
		c-4.389-2.829-9.265-4.779-11.997-9.56c-0.194-0.291-1.072,0.099-0.975,0.294c2.634,4.681,7.607,6.925,12.094,9.654
		c2.536,1.562,4.681,3.316,5.949,6.145c2.438,5.56-6.631,10.728-10.825,10.046C210.632,407.45,209.755,407.84,210.34,407.938
		L210.34,407.938z"/>
</g>
</svg>
