<?xml version="1.0" encoding="utf-8"?>
<!-- Generator: Adobe Illustrator 16.0.0, SVG Export Plug-In . SVG Version: 6.00 Build 0)  -->
<!DOCTYPE svg PUBLIC "-//W3C//DTD SVG 1.1//EN" "http://www.w3.org/Graphics/SVG/1.1/DTD/svg11.dtd">
<svg version="1.1" id="copacabana" xmlns="http://www.w3.org/2000/svg" xmlns:xlink="http://www.w3.org/1999/xlink" x="0px" y="0px"
	 width="487.312px" height="200.182px" viewBox="0 0 487.312 200.182" enable-background="new 0 0 487.312 200.182"
	 xml:space="preserve">
<path d="M70.853,69.106c0.276,1.239,0.414,1.857,0.69,3.098c-5.271,7.413-10.066,13.716-14.497,18.894
	c-4.431,5.177-8.863,9.479-13.356,12.909c-4.494,3.431-9.044,5.826-13.716,7.198c-4.037,1.187-7.696,1.567-11.005,1.127
	c-3.31-0.44-6.114-1.692-8.417-3.776c-2.303-2.083-4.03-4.869-5.161-8.369c-0.891-2.757-1.293-5.852-1.184-9.287
	c0.108-3.437,0.714-7.062,1.835-10.877c1.122-3.814,2.718-7.88,4.815-12.188c2.099-4.306,4.733-8.949,7.948-13.891
	c3.33-5.119,6.841-9.679,10.479-13.67c3.637-3.99,7.08-7.24,10.285-9.759c3.206-2.52,6.282-4.541,9.207-6.075
	c2.926-1.533,5.424-2.529,7.479-2.998c2.096-0.479,3.966-0.495,5.603-0.057c1.636,0.438,3.009,1.308,4.119,2.599
	c1.11,1.292,1.868,2.892,2.278,4.802c0.772,3.597,0.033,7.939-2.138,13.037c-2.172,5.099-5.097,10.224-8.735,15.402
	c-3.64,5.179-7.167,9.579-10.631,13.202c-3.464,3.622-6.062,5.688-7.86,6.171c-1.213,0.324-2.44,0.246-3.688-0.241
	c-1.248-0.486-2.007-1.213-2.273-2.188c-0.492-1.789,0.097-4.282,1.809-7.477c1.712-3.193,3.727-6.229,6.044-9.099
	c2.315-2.87,3.775-4.369,4.341-4.512c0.281-0.07,0.448-0.012,0.496,0.179c0.07,0.283-0.019,0.826-0.267,1.628
	c-0.248,0.801-0.351,1.279-0.311,1.438c0.063,0.253,0.216,0.351,0.457,0.289c0.682-0.172,2.278-2.106,4.851-5.785
	c2.572-3.677,4.838-7.567,6.801-11.683s2.724-7.278,2.221-9.5c-0.208-0.92-0.627-1.568-1.26-1.942
	c-0.632-0.374-1.471-0.441-2.511-0.202c-2.913,0.673-6.926,3.507-11.908,8.55c-4.981,5.043-9.775,11.148-14.3,18.304
	c-4.523,7.155-7.855,14.253-10.063,21.246c-2.209,6.994-2.57,12.708-1.232,17.132c0.773,2.555,1.888,4.547,3.336,5.98
	c1.447,1.436,3.208,2.353,5.284,2.76c2.075,0.406,4.375,0.246,6.914-0.478c5.494-1.562,11.29-5.037,17.38-10.415
	C58.287,84.155,64.806,76.75,70.853,69.106z"/>
<path d="M108.505,61.783c0.221,1.29,0.333,1.936,0.554,3.225c-2.28,2.373-4.137,4.025-5.593,4.948
	c-1.457,0.924-5.106,1.085-6.631,2.021c-3.724,2.279-8.085,9.235-11.919,10.034c-2.169,0.45-4.266,0.28-6.303-0.512
	c-2.037-0.791-3.817-2.082-5.342-3.877c-1.523-1.795-2.574-3.943-3.138-6.453c-0.457-2.031-0.129-4.476,1.01-7.328
	c1.14-2.852,2.829-5.646,5.081-8.37c2.252-2.725,4.808-5.063,7.658-7.013c2.85-1.947,5.628-3.174,8.31-3.68
	c1.909-0.36,3.457-0.405,4.64-0.142c1.182,0.264,1.847,0.814,1.997,1.647c0.115,0.641-0.995,2.463-0.995,2.463
	c0.069,0.141,2.707,0.214,3.378,0.706c0.67,0.493,1.146,1.525,1.424,3.095c0.272,1.539,0.164,3.558-0.316,6.057
	c-0.479,2.5-1.305,4.916-2.469,7.248c0.49,0.267,0.734,0.399,1.225,0.668c0.354-0.065,0.533-0.098,0.889-0.161
	c0.671-0.122,1.308-0.377,1.911-0.766c0.603-0.39,1.135-0.781,1.596-1.177C105.931,64.021,106.939,63.141,108.505,61.783z
	 M93.875,51.366c-0.082-0.069-5.608,4.231-7.709,5.995c-2.103,1.764-3.826,3.48-5.182,5.142c-1.354,1.662-2.262,3.299-2.431,4.678
	c-0.432,3.526-0.304,5.806-0.243,6.092c0.45,2.101,2.469,2.76,6.063,2.017c1.68-0.347,7.598-3.889,7.754-5.243
	c0.063-0.559-1.579-2.742-1.85-4.115c-0.396-2.013-0.283-4.164,0.347-6.459C91.256,57.177,93.875,51.366,93.875,51.366z"/>
<path d="M108.387,66.064c-0.232-1.348-0.349-2.021-0.581-3.367c4.712-5.834,8.822-11.206,12.271-16.147
	c3.447-4.94,6.241-8.843,8.308-11.729c2.065-2.886,3.971-4.976,5.694-6.271c1.724-1.294,4.003-2.122,6.825-2.471
	c1.411-0.174,2.167,0.163,2.27,1.003c0.082,0.68-0.369,1.748-1.341,3.212c-0.974,1.464-2.255,3.016-3.842,4.615
	c-2.091,2.108-4.089,4.68-5.932,7.709s-6,11.479-6,11.479c0.048,0.035,4.238-3.631,6.83-5.875s4.735-4.001,6.409-5.282
	c1.674-1.28,3.362-2.336,5.062-3.165c1.7-0.828,3.453-1.344,5.251-1.549c1.145-0.13,1.908-0.052,2.291,0.232
	c0.384,0.285,0.625,0.897,0.729,1.835c0.271,2.459-0.217,4.943-1.444,7.458c-1.228,2.516-3.078,5.192-5.527,8.048
	c-2.45,2.856-9.069,9.534-9.069,9.534c0.047,0.149,2.885,0.254,4.345,0.065c4.578-0.593,10.332-4.208,17.53-10.756
	c0.146,1.397,0.219,2.099,0.366,3.498c-2.795,2.519-5.506,4.917-8.141,7.189c-2.635,2.273-5.124,4.153-7.481,5.635
	c-2.359,1.482-4.583,2.368-6.691,2.656c-0.781,0.107-1.62,0.15-2.519,0.128c-0.899-0.021-1.735-0.083-2.507-0.187
	c-0.772-0.104-1.772-0.264-3.001-0.478c-1.229-0.214-2.32-0.48-2.821-0.418c-0.993,0.125-1.897,0.684-2.053,0.707
	c-1.368,0.21-4.489-0.841-5.021-0.592c-0.738,0.344-1.941,5.151-2.927,8.665c-0.986,3.513-1.82,6.322-2.522,8.424
	c-0.702,2.103-1.728,4.356-3.147,6.25c-0.72,0.958-1.396,1.49-1.774,1.559c-1.627,0.293-2.665-0.773-3.112-3.207
	c-0.388-2.113-0.287-4.407,0.312-6.883c0.602-2.475,1.464-4.87,2.594-7.186s2.414-4.676,3.856-7.083
	c1.441-2.407,2.473-4.188,3.043-5.336c4.811-9.685,11.31-24.622,11.31-24.622C126.146,43.317,114.518,58.645,108.387,66.064z
	 M132.815,64.669c2.326-0.679,6.011-7.142,7.648-9.748c1.638-2.604,2.392-4.534,2.234-5.795c-0.148-1.194-0.972-1.699-2.466-1.51
	c-2.02,0.257-4.689,1.958-7.954,5.121c-3.264,3.164-9.569,12.376-9.569,12.376c0.133,0.181,4.831-1.079,5.832-1.143
	C129.541,63.908,131.996,64.908,132.815,64.669z"/>
<path d="M164.262,45.62c5.609-5.068,11.476-8.896,17.186-11.5c5.71-2.604,10.212-3.962,13.429-4.141
	c0.866-0.048,1.687,0.191,2.458,0.721c0.771,0.53,1.392,1.16,1.86,1.885c0.47,0.728,0.712,1.268,0.729,1.625
	c0.029,0.585-0.236,1.029-0.795,1.334c-0.561,0.307-2.892,0.982-2.955,1.159c-0.043,0.12,0.716,1.152,1.208,1.94
	c0.492,0.789,0.873,1.429,1.143,1.92c0.271,0.492,0.416,0.932,0.437,1.322c0.04,0.779-0.874,2.283-2.715,4.521
	c-1.843,2.237-3.112,3.887-3.834,4.941c-0.723,1.055-1.036,2.312-0.945,3.774c0.149,2.405,1.575,3.521,4.279,3.367
	c2.782-0.158,7.002-2.522,12.812-7.02c0.047,1.189,0.07,1.785,0.117,2.977c-9.749,9.54-16.486,14.562-20.759,14.853
	c-1.529,0.104-2.646-0.231-3.354-1.014s-1.123-1.981-1.242-3.604c-0.188-2.564,2.604-11.396,2.604-11.396
	c-0.132-0.084-9.455,9.761-12.062,12.223c-2.607,2.463-4.793,3.784-6.597,3.956c-0.863,0.082-2-0.429-3.42-1.53
	c-1.419-1.103-2.732-2.579-3.945-4.434c-1.212-1.854-1.937-3.83-2.159-5.934c-0.162-1.521-0.116-2.812,0.137-3.869
	s0.844-2.176,1.78-3.352C160.596,49.169,162.126,47.549,164.262,45.62z M193.05,38.005c-0.206-0.269-17.599,8.401-21.812,11.482
	c-4.212,3.082-6.144,6.073-5.868,8.924c0.1,1.037,0.399,1.868,0.899,2.49c0.5,0.623,1.124,0.898,1.877,0.829
	c0.437-0.041,1.239-0.325,2.259-0.895c3.931-2.191,7.591-5.313,10.838-8.806C184.491,48.54,193.05,38.005,193.05,38.005z"/>
<path d="M244.259,50.884c-0.009,1.31-0.014,1.965-0.022,3.272c-4.3,3.389-7.75,6.052-10.407,7.958
	c-2.657,1.907-5.119,3.402-7.402,4.482s-4.517,1.648-6.714,1.705c-2.158,0.055-4.158-0.594-6.016-1.947
	c-1.856-1.354-3.347-3.154-4.466-5.407c-1.121-2.253-1.738-4.662-1.845-7.231c-0.091-2.211,0.428-4.204,1.57-5.977
	c1.143-1.771,3.404-4.089,6.815-6.927c4.05-3.37,7.881-5.975,11.449-7.802c3.567-1.828,6.398-2.733,8.459-2.742
	c1.483-0.006,2.742,0.398,3.771,1.213c1.027,0.813,1.537,1.842,1.534,3.079c-0.002,1.042-0.683,2.521-2.026,4.441
	c-1.345,1.921-2.842,3.593-4.494,5.019s-2.957,2.146-3.926,2.157c-1.05,0.012-1.646-0.508-1.594-1.349
	c0.017-0.243,0.065-0.506,0.083-0.733c0.018-0.229,0.024-0.456,0.021-0.685c-0.005-0.391-0.181-0.606-0.526-0.65
	c-0.346-0.045-0.763,0.094-1.241,0.383c-3.926,2.363-6.74,4.014-8.206,4.979c-1.468,0.966-2.616,1.936-3.45,2.904
	c-0.834,0.97-1.233,1.976-1.2,3.017c0.062,1.92,0.872,3.458,2.417,4.617c1.545,1.16,3.521,1.708,5.94,1.657
	c2.498-0.053,5.482-0.895,8.987-2.506C235.276,56.199,239.422,53.879,244.259,50.884z"/>
<path d="M251.199,42.124c6.132-4.414,12.386-7.563,18.347-9.517s10.584-2.805,13.801-2.625c0.866,0.048,1.656,0.38,2.364,0.992
	c0.708,0.611,1.251,1.307,1.637,2.081c0.386,0.773,0.567,1.338,0.545,1.694c-0.036,0.585-0.35,0.998-0.938,1.239
	c-0.59,0.242-2.981,0.653-3.064,0.822c-0.057,0.113,0.586,1.224,0.986,2.062c0.399,0.838,0.708,1.519,0.922,2.036
	c0.214,0.52,0.308,0.971,0.284,1.361c-0.047,0.779-1.119,2.174-3.198,4.191c-2.079,2.02-3.526,3.518-4.36,4.484
	c-0.834,0.968-1.284,2.184-1.356,3.646c-0.119,2.406,1.174,3.673,3.878,3.82c2.783,0.153,7.24-1.728,13.517-5.552
	c-0.086,1.188-0.13,1.783-0.216,2.971c-10.755,8.397-18.005,12.642-22.282,12.454c-1.529-0.066-2.603-0.524-3.219-1.38
	s-0.896-2.095-0.834-3.722c0.098-2.569,3.854-11.035,3.854-11.035c-0.122-0.1-10.476,8.648-13.338,10.807s-5.181,3.229-6.989,3.199
	c-0.866-0.014-1.938-0.648-3.226-1.901c-1.287-1.252-2.427-2.864-3.424-4.843c-0.997-1.977-1.497-4.022-1.485-6.14
	c0.01-1.53,0.197-2.807,0.566-3.829c0.369-1.023,1.08-2.069,2.14-3.134C247.167,45.244,248.864,43.804,251.199,42.124z
	 M280.643,37.756c-0.175-0.29-18.421,6.395-22.943,8.987c-4.524,2.594-6.774,5.354-6.818,8.217c-0.016,1.042,0.189,1.9,0.617,2.574
	c0.427,0.674,1.016,1.019,1.771,1.032c0.438,0.008,1.266-0.185,2.341-0.636c4.146-1.742,8.131-4.438,11.743-7.549
	C270.966,47.273,280.643,37.756,280.643,37.756z"/>
<path d="M333.732,56.687c-0.154,1.26-0.233,1.889-0.39,3.148c-4.397,1.622-7.759,2.323-10.137,2.061
	c-1.309-0.146-3.379-1.113-4.104-0.983c-2.557,0.458-7.261,5.728-9.954,7.21c-2.692,1.483-5.3,2.12-7.846,1.91
	c-2.938-0.243-5.1-1.695-6.507-4.377s-1.989-5.919-1.723-9.719c0.363-5.163,2.674-10.662,7.061-16.442s9.642-11.074,15.788-15.83
	c6.146-4.756,12.13-8.544,17.896-11.377s9.649-4.083,11.56-3.834c1.823,0.238,2.726,1.482,2.356,3.218
	c-3.565,16.811-40.386,31.26-46.299,39.903c-0.209,0.306-0.262,1.728-0.4,3.446c-0.36,4.478,0.925,6.831,3.854,7.084
	c1.147,0.099,2.338-0.178,3.576-0.834c1.238-0.655,5.511-2.782,5.807-3.841c0.202-0.725-1.142-3.187-1.061-4.028
	c0.172-1.782,1.259-3.625,3.28-5.517c2.022-1.893,4.284-3.469,6.781-4.722s4.281-1.812,5.34-1.689
	c1.668,0.19,2.393,1.246,2.167,3.152c-0.171,1.455-0.855,3.145-2.038,5.071c-1.182,1.927-4.969,5.789-4.909,6.521
	c0.019,0.235,1.129,0.92,1.505,1.175c0.375,0.255,0.962,0.427,1.759,0.519C328.928,58.122,331.134,57.711,333.732,56.687z
	 M303.878,46.239c0.085,0.078,4.491-2.827,6.809-4.625c2.318-1.798,5.729-4.559,10.309-8.241c4.396-3.537,7.927-6.472,10.539-8.84
	c2.611-2.368,4.624-4.348,6.012-5.949c1.386-1.602,2.124-2.721,2.204-3.367c0.061-0.483-0.079-0.748-0.415-0.79
	c-0.929-0.115-3.002,0.817-6.191,2.821s-6.864,4.844-10.98,8.537c-5.688,5.103-9.731,9.017-12.236,11.666
	C307.418,40.102,303.878,46.239,303.878,46.239z"/>
<path d="M341.897,48.822c6.615-3.67,13.207-6.07,19.371-7.314c6.162-1.243,10.867-1.548,14.052-0.993
	c0.857,0.148,1.606,0.569,2.241,1.26s1.095,1.442,1.391,2.257c0.295,0.814,0.41,1.397,0.348,1.749
	c-0.104,0.577-0.466,0.95-1.081,1.12c-0.616,0.171-3.048,0.302-3.149,0.459c-0.068,0.106,0.442,1.283,0.744,2.163
	c0.303,0.879,0.529,1.591,0.684,2.13c0.152,0.54,0.192,1,0.125,1.384c-0.139,0.77-1.369,2.03-3.676,3.791
	c-2.306,1.762-3.921,3.08-4.863,3.943c-0.943,0.863-1.533,2.019-1.775,3.464c-0.397,2.376,0.74,3.785,3.417,4.248
	c2.755,0.477,7.416-0.87,14.116-3.935c-0.224,1.171-0.336,1.756-0.561,2.926c-11.694,7.082-19.41,10.449-23.648,9.765
	c-1.517-0.245-2.53-0.825-3.045-1.746c-0.516-0.921-0.649-2.185-0.398-3.793c0.396-2.541,5.118-10.51,5.118-10.51
	c-0.11-0.113-11.436,7.369-14.535,9.178c-3.101,1.81-5.533,2.604-7.331,2.363c-0.859-0.115-1.852-0.87-2.985-2.265
	c-1.136-1.394-2.084-3.129-2.848-5.209c-0.763-2.079-1.021-4.168-0.764-6.269c0.188-1.519,0.522-2.765,1.008-3.738
	c0.486-0.973,1.314-1.929,2.493-2.862C337.521,51.453,339.379,50.22,341.897,48.822z M371.72,47.92
	c-0.14-0.309-19.086,4.2-23.891,6.249c-4.806,2.051-7.365,4.528-7.742,7.367c-0.137,1.033-0.03,1.911,0.315,2.63
	c0.347,0.72,0.893,1.128,1.644,1.23c0.434,0.059,1.28-0.037,2.404-0.361c4.328-1.246,8.606-3.459,12.566-6.126
	C360.978,56.243,371.72,47.92,371.72,47.92z"/>
<path d="M425.308,64.445c-8.447,4.284-12.933,8.046-13.496,10.488c-0.313,1.363,0.212,2.203,1.578,2.521
	c1.131,0.265,2.715,0.128,4.762-0.401c2.048-0.53,5.305-1.561,9.811-3.043c-0.329,1.307-0.497,1.959-0.826,3.266
	c-6.661,3.021-11.641,5.219-15.04,6.496c-3.4,1.277-6.007,1.722-7.859,1.307c-3.165-0.708-4.379-2.765-3.634-6.2
	c0.222-1.018,0.635-1.977,1.241-2.878c0.604-0.9,1.366-1.809,2.286-2.724c0.92-0.914,2.307-2.209,4.171-3.876
	s6.461-5.613,6.461-5.613c-0.039-0.084-5.754,1.627-9.732,3.562c-2.556,1.243-4.812,2.462-6.671,3.682
	c-1.858,1.22-3.854,2.599-5.981,4.14c-2.127,1.542-3.649,2.565-4.577,3.062s-1.798,0.662-2.614,0.502
	c-1.244-0.244-2.181-1.536-2.825-3.88s-0.705-4.939-0.166-7.786c0.333-1.759,0.839-3.087,1.522-3.984
	c0.685-0.896,1.936-2.116,3.766-3.648c3.405-2.854,6.296-4.856,8.629-6.025c2.331-1.169,4.435-1.555,6.287-1.162
	c1.288,0.273,2.291,0.672,3,1.191c0.709,0.519,0.979,1.146,0.82,1.877c-0.069,0.318-0.26,0.626-0.576,0.923
	c-0.315,0.298-0.656,0.557-1.019,0.778c-0.363,0.221-1.123,0.639-2.249,1.265c-7.486,4.159-11.328,7.246-11.661,8.905
	c-0.187,0.926,0.096,1.462,0.845,1.614c0.473,0.096,1.511-0.333,3.125-1.281c1.614-0.947,3.711-2.192,6.298-3.722
	c2.587-1.527,5.604-3.046,9.062-4.54c3.458-1.494,7.39-2.762,11.622-3.883c2.389-0.633,4.319-0.82,5.729-0.476
	c0.643,0.158,1.107,1.009,1.385,2.553s0.235,3.028-0.118,4.449C428.485,62.598,427.317,63.425,425.308,64.445z"/>
<path d="M436.646,67.417c7.054-2.816,13.927-4.375,20.235-4.838c6.308-0.462,11.049-0.173,14.163,0.778
	c0.839,0.256,1.531,0.767,2.081,1.533c0.551,0.766,0.921,1.57,1.115,2.416c0.194,0.845,0.237,1.438,0.131,1.779
	c-0.175,0.561-0.582,0.886-1.218,0.978c-0.637,0.092-3.082-0.083-3.201,0.059c-0.081,0.098,0.282,1.33,0.478,2.241
	c0.194,0.911,0.335,1.645,0.422,2.199s0.074,1.02-0.041,1.393c-0.231,0.746-1.619,1.841-4.139,3.299
	c-2.521,1.459-4.294,2.566-5.344,3.306c-1.049,0.738-1.78,1.811-2.199,3.215c-0.688,2.309,0.277,3.849,2.896,4.646
	c2.694,0.82,7.519,0.069,14.591-2.127c-0.365,1.135-0.552,1.701-0.918,2.834c-12.558,5.556-20.678,7.932-24.828,6.721
	c-1.484-0.435-2.428-1.137-2.828-2.115c-0.399-0.979-0.381-2.25,0.066-3.815c0.706-2.472,6.401-9.793,6.401-9.793
	c-0.097-0.127-12.326,5.882-15.644,7.29c-3.316,1.408-5.843,1.893-7.606,1.429c-0.846-0.222-1.74-1.095-2.702-2.619
	c-0.962-1.525-1.696-3.366-2.202-5.525s-0.509-4.266,0.006-6.318c0.372-1.483,0.863-2.679,1.467-3.584
	c0.604-0.904,1.548-1.75,2.837-2.529C431.954,69.483,433.962,68.49,436.646,67.417z M466.54,70.258
	c-0.1-0.324-19.579,1.776-24.628,3.209c-5.048,1.435-7.905,3.574-8.63,6.346c-0.264,1.008-0.267,1.891-0.009,2.647
	c0.258,0.756,0.753,1.231,1.49,1.427c0.426,0.112,1.279,0.125,2.44-0.057c4.475-0.695,9.019-2.358,13.3-4.51
	C454.785,77.17,466.54,70.258,466.54,70.258z"/>
<path d="M145.622,159.689c-0.896,1.31-1.339,1.966-2.225,3.277c3.1-0.186,5.881-0.213,8.347-0.096
	c2.465,0.117,4.754,0.318,6.862,0.604c2.108,0.283,3.981,0.624,5.575,1.039c5.63,1.467,8.649,4.245,9.036,8.066
	c0.236,2.332-0.649,4.725-2.622,7.192s-4.609,4.771-7.896,6.937c-3.287,2.165-6.688,3.99-10.219,5.477
	c-3.53,1.485-6.771,2.465-9.75,2.922c-4.977,0.763-8.995,0.505-12.094-0.826c-3.101-1.332-4.949-3.55-5.512-6.691
	c-0.392-2.178,0.011-4.896,1.241-8.152c1.229-3.255,6.326-12.404,6.326-12.404c-0.157-0.245-4.875,0.271-6.151-0.188
	c-1.277-0.458-2.022-1.278-2.229-2.466c-0.128-0.736-0.001-1.339,0.38-1.802c0.382-0.462,0.938-0.848,1.667-1.153
	s2.15-0.769,4.27-1.379c2.119-0.609,6.419-0.979,8.187-2.271c2.992-2.189,6.104-8.617,8.859-11.206
	c2.754-2.589,5.931-4.236,9.362-5.01c0.277-0.062,0.588-0.119,0.926-0.159c0.337-0.04,0.516,0.019,0.535,0.18
	c0.022,0.194-0.315,0.761-1.012,1.696c-0.695,0.937-1.824,2.432-3.369,4.496c-1.546,2.063-5.418,7.356-5.418,7.356
	c0.219,0.32,11.69-3.255,15.76-4.771c4.067-1.516,7.112-3.086,9.123-4.752c2.009-1.666,2.943-3.383,2.78-5.166
	c-0.198-2.172-1.501-3.642-3.919-4.389c-2.418-0.746-6.037-0.876-10.832-0.336c-2.647,0.299-5.651,0.899-9.001,1.813
	c-3.349,0.914-6.357,1.874-9.028,2.872s-5.024,2.011-7.063,3.024c-2.039,1.017-3.026,1.692-2.978,2.015
	c0.015,0.097,0.145,0.19,0.361,0.24c1.707,0.384,2.757,0.661,2.815,1.049c0.078,0.516-2.424,1.891-7.443,4.211
	c-5.019,2.319-8.403,3.681-10.216,4.006c-1.29,0.23-2.044-0.241-2.261-1.426c-0.257-1.409,0.678-4.206,2.88-8.379
	c2.201-4.172,4.428-6.978,6.62-8.385c0.762-0.488,2.588-1.366,5.485-2.607c2.896-1.241,6.106-2.48,9.634-3.701
	c3.526-1.22,7.147-2.308,10.856-3.262c3.708-0.954,7.023-1.583,9.931-1.903c6.865-0.756,12.144-0.136,15.776,1.751
	c3.632,1.887,5.559,4.508,5.824,7.817c0.18,2.238-0.427,4.457-1.795,6.662c-1.368,2.204-3.591,4.369-6.649,6.521
	c-3.058,2.152-7.083,4.191-12.062,6.163C158.322,156.17,152.431,157.974,145.622,159.689z M141.058,166.716
	c-1.267,0.708-2.784,4.266-3.917,6.008c-1.134,1.742-1.915,3.14-2.351,4.183c-0.438,1.043-0.574,2.047-0.417,3.011
	c0.251,1.542,1.303,2.779,3.145,3.724c1.842,0.943,4.303,1.176,7.399,0.72c2.862-0.422,5.847-1.344,8.975-2.76
	c3.127-1.417,5.716-3.044,7.766-4.896c2.049-1.852,2.992-3.578,2.808-5.194c-0.159-1.392-1.124-2.442-2.901-3.15
	c-1.777-0.707-4.42-1.202-7.928-1.451C150.126,166.658,143.285,165.472,141.058,166.716z"/>
<path d="M185.835,174.707c0.04,0.486,0.061,0.733,0.101,1.221c0.157,1.914,0.767,3.366,1.822,4.359
	c1.055,0.993,2.363,1.427,3.932,1.312c1.636-0.121,3.303-0.611,5.009-1.475c1.704-0.861,3.395-1.964,5.07-3.3
	c1.675-1.335,3.727-3.108,6.167-5.311c0.058,1.188,0.085,1.785,0.143,2.976c-3.601,4.604-6.935,8.194-10.067,10.76
	c-3.133,2.566-6.354,3.981-9.717,4.251c-2.935,0.235-5.349-0.68-7.274-2.76s-3.088-5.058-3.459-8.946
	c-0.324-3.401,0.206-6.566,1.623-9.49c1.416-2.925,3.895-6.096,7.487-9.48c2.459-2.316,4.97-4.104,7.51-5.351
	s4.853-1.923,6.913-2.038c1.642-0.094,2.961,0.188,3.956,0.839c0.995,0.649,1.522,1.678,1.591,3.075
	c0.101,2.049-0.616,4.125-2.126,6.24c-1.511,2.116-3.86,4.264-7.021,6.471C194.331,170.265,190.44,172.467,185.835,174.707z
	 M186.083,171.503c0.353,0.248,5.473-2.987,7.541-4.828c2.067-1.84,3.587-3.556,4.542-5.163c0.954-1.607,1.414-2.769,1.372-3.482
	c-0.044-0.747-0.43-1.104-1.156-1.059c-0.624,0.037-1.616,0.478-2.967,1.315c-1.353,0.84-2.699,1.907-4.041,3.211
	c-1.343,1.306-2.515,2.815-3.517,4.525C186.856,167.734,186.083,171.503,186.083,171.503z"/>
<path d="M213.544,162.522c4.943-4.693,10.091-8.161,15.045-10.42s8.835-3.355,11.57-3.353c0.735,0.001,1.418,0.287,2.046,0.859
	s1.122,1.235,1.482,1.986c0.361,0.752,0.541,1.306,0.538,1.662c-0.004,0.587-0.253,1.015-0.742,1.287
	c-0.488,0.273-2.465,0.784-2.556,0.991c-0.058,0.132,0.552,1.191,0.929,2.007s0.668,1.476,0.872,1.98s0.303,0.953,0.301,1.344
	c-0.005,0.781-0.85,2.231-2.513,4.359c-1.664,2.129-2.814,3.703-3.475,4.714c-0.659,1.012-0.981,2.252-0.976,3.716
	c0.012,2.41,1.158,3.603,3.441,3.604c2.35,0.003,6.015-2.116,11.142-6.292c-0.021,1.191-0.031,1.786-0.053,2.979
	c-8.7,8.995-14.583,13.614-18.184,13.652c-1.289,0.014-2.21-0.39-2.77-1.211c-0.559-0.822-0.852-2.042-0.878-3.672
	c-0.042-2.569,2.716-11.221,2.716-11.221c-0.108-0.066-8.402,9.177-10.702,11.475c-2.299,2.297-4.191,3.476-5.714,3.532
	c-0.729,0.027-1.66-0.555-2.808-1.746c-1.147-1.188-2.191-2.745-3.136-4.673s-1.476-3.945-1.577-6.061
	c-0.074-1.527,0.015-2.812,0.271-3.853s0.803-2.113,1.642-3.228C210.298,165.833,211.656,164.315,213.544,162.522z M238.225,156.657
	c-0.2-0.255-15.266,7.349-18.954,10.163c-3.688,2.813-5.441,5.677-5.331,8.538c0.041,1.042,0.26,1.888,0.653,2.541
	c0.394,0.651,0.908,0.966,1.544,0.942c0.368-0.013,1.059-0.249,1.937-0.75c3.406-1.944,6.625-4.836,9.521-8.126
	C230.49,166.676,238.225,156.657,238.225,156.657z"/>
<path d="M280.789,172.201c-0.084,1.306-0.126,1.957-0.21,3.263c-3.823,3.181-6.878,5.675-9.22,7.445
	c-2.342,1.771-4.493,3.143-6.471,4.104c-1.977,0.962-3.883,1.419-5.73,1.359c-1.815-0.058-3.459-0.811-4.949-2.263
	s-2.65-3.329-3.478-5.64c-0.827-2.312-1.228-4.749-1.187-7.321c0.036-2.213,0.575-4.177,1.63-5.883s3.083-3.897,6.114-6.551
	c3.602-3.149,6.983-5.553,10.104-7.195c3.121-1.644,5.573-2.407,7.32-2.314c1.258,0.066,2.305,0.533,3.129,1.396
	c0.824,0.862,1.196,1.914,1.122,3.147c-0.062,1.04-0.726,2.481-1.973,4.334c-1.247,1.854-2.608,3.45-4.085,4.792
	c-1.478,1.343-2.613,1.996-3.434,1.958c-0.888-0.041-1.366-0.578-1.272-1.426c0.025-0.244,0.082-0.502,0.108-0.729
	c0.027-0.228,0.047-0.455,0.058-0.684c0.018-0.391-0.121-0.615-0.41-0.677c-0.29-0.062-0.647,0.057-1.068,0.321
	c-3.434,2.152-5.909,3.658-7.198,4.547c-1.289,0.888-2.31,1.797-3.063,2.721c-0.755,0.925-1.14,1.907-1.167,2.948
	c-0.048,1.921,0.552,3.498,1.79,4.735c1.239,1.239,2.875,1.891,4.914,1.964c2.104,0.074,4.659-0.609,7.701-2.044
	C272.91,177.077,276.533,174.961,280.789,172.201z"/>
<path d="M318.513,175.622c-0.149,1.221-0.226,1.831-0.375,3.052c-3.271,2.52-6.051,4.581-8.362,6.177
	c-2.312,1.595-4.294,2.787-5.958,3.565c-1.665,0.779-3.039,1.119-4.127,1.017c-2.571-0.246-3.724-1.848-3.457-4.831
	c0.215-2.398,1.269-5.11,3.194-8.118c1.926-3.009,8.2-10.448,8.2-10.448c-0.026-0.037-3.17,1.434-4.635,2.354
	c-1.466,0.92-2.777,1.909-3.936,2.964c-1.157,1.055-2.125,1.976-2.904,2.702c-2.338,2.177-4.701,4.427-6.899,6.753
	c-2.198,2.325-3.659,3.844-4.409,4.54c-0.75,0.697-1.438,1.024-2.066,0.981c-2.583-0.177-3.684-3.372-3.294-9.608
	c0.128-2.048,0.593-4.287,1.396-6.716c0.803-2.428,2.745-5.592,5.897-9.435c6.622-8.07,12.525-14.559,17.46-19.532
	c4.936-4.973,9.088-8.655,12.354-11.091s5.439-3.55,6.439-3.357c1.253,0.24,2.256,0.604,2.989,1.056
	c0.733,0.453,1.072,0.909,1.016,1.36c-0.104,0.809-0.897,2.058-2.368,3.762c-1.472,1.704-3.954,4.384-7.392,7.945
	c-3.667,3.802-6.284,6.502-7.797,8.062c-1.512,1.56-3.75,3.767-6.671,6.644c-2.922,2.877-5.547,5.454-7.898,7.723
	c-2.354,2.268-5.001,4.726-7.928,7.383c-0.172,2.337-0.256,3.506-0.428,5.843c4.863-4.506,9.148-8.125,12.784-10.896
	c3.636-2.772,6.735-4.81,9.25-6.134c2.514-1.323,4.337-1.919,5.446-1.794c1.039,0.117,1.939,0.806,2.705,2.059
	c0.765,1.253,1.1,2.251,1.011,2.994c-0.038,0.322-0.26,0.755-0.66,1.152c-2.511,2.493-5.011,4.577-6.654,6.247
	c-1.645,1.671-2.926,3.188-3.853,4.546c-0.927,1.36-1.437,2.562-1.541,3.599c-0.155,1.522,0.517,2.355,2.021,2.516
	C308.671,180.822,312.438,179.107,318.513,175.622z"/>
<path d="M326.71,191.807c-0.986-0.138-1.898-0.691-2.74-1.676c-0.842-0.983-1.164-2.253-0.96-3.802
	c0.268-2.033,1.108-4.253,2.541-6.656c1.432-2.4,2.749-3.521,3.929-3.354c0.741,0.104,1.453,0.459,2.14,1.066
	c0.686,0.607,1.232,1.404,1.638,2.385c0.404,0.979,0.522,2.02,0.362,3.112c-0.263,1.771-1.186,3.741-2.747,5.915
	C329.308,190.974,327.927,191.976,326.71,191.807z M361.95,134.422c0.488-0.21,1.473-0.033,2.047,0.07
	c1.186,0.215,2.426,0.791,3.717,1.729c1.29,0.937,3.131,2.959,3.031,3.505c-0.195,1.072-5.51,4.979-10.125,9.341
	c-4.617,4.361-7.992,7.668-10.213,9.87c-2.222,2.202-4.491,4.504-6.806,6.903c-2.313,2.4-5.255,5.496-5.226,5.609
	c0.027,0.112,0.892,0.648,0.798,1.26c-0.061,0.387-0.559,0.982-1.494,1.795c-0.938,0.812-1.724,1.174-2.364,1.078
	c-0.741-0.109-1.592-0.894-2.558-2.349c-0.966-1.454-1.387-2.648-1.255-3.583c0.062-0.451,0.434-1.188,1.12-2.207
	c0.686-1.021,1.854-2.539,3.521-4.548s3.543-4.22,5.642-6.631c2.097-2.411,4.678-5.381,7.779-8.854
	C355.604,140.654,360.185,135.181,361.95,134.422z"/>
</svg>
