<?xml version="1.0" encoding="utf-8"?>
<!-- Generator: Adobe Illustrator 16.0.0, SVG Export Plug-In . SVG Version: 6.00 Build 0)  -->
<!DOCTYPE svg PUBLIC "-//W3C//DTD SVG 1.1//EN" "http://www.w3.org/Graphics/SVG/1.1/DTD/svg11.dtd">
<svg version="1.1" id="coctail" xmlns="http://www.w3.org/2000/svg" xmlns:xlink="http://www.w3.org/1999/xlink" x="0px" y="0px"
	 width="234.489px" height="124px" viewBox="87.924 471 234.489 124" enable-background="new 87.924 471 234.489 124"
	 xml:space="preserve">
<g id="leg">
	
		<radialGradient id="SVGID_1_" cx="196.5771" cy="-51.9912" r="88.3235" gradientTransform="matrix(1 0 0 -0.55 8.5 504.8118)" gradientUnits="userSpaceOnUse">
		<stop  offset="0" style="stop-color:#E6E7E8"/>
		<stop  offset="0.3879" style="stop-color:#D1D3D4"/>
		<stop  offset="0.7515" style="stop-color:#BCBEC0"/>
		<stop  offset="1" style="stop-color:#A7A9AC"/>
	</radialGradient>
	<path fill="url(#SVGID_1_)" d="M156.701,477.937c30.624,7.412,23.992,54.712-3.218,55.2l15.02-14.922
		c-32.574-3.608-101.72,26.234-64.66,51.591c33.159,23.406,87.773,19.506,126.784,17.555c19.505-1.95,101.428-7.802,83.873-44.861
		c-7.802-15.604-74.51-24.479-90.115-24.479l19.408,22.724c-27.307-5.852-28.868-43.691-7.412-59.296c0,0-30.428,4.682-41.936,3.706
		C184.886,484.179,156.701,477.937,156.701,477.937z"/>
	
		<radialGradient id="SVGID_2_" cx="182.9204" cy="-67.792" r="11.8428" gradientTransform="matrix(1 0 0 -0.55 8.5 512.3099)" gradientUnits="userSpaceOnUse">
		<stop  offset="0" style="stop-color:#E6E7E8"/>
		<stop  offset="0.3879" style="stop-color:#D1D3D4"/>
		<stop  offset="0.7515" style="stop-color:#BCBEC0"/>
		<stop  offset="1" style="stop-color:#A7A9AC"/>
	</radialGradient>
	<path fill="url(#SVGID_2_)" d="M174.841,547.277c9.752,5.853,21.456,5.853,33.159,1.951"/>
	<path fill="#A7A9AC" d="M152.41,480.081c12.386,3.219,19.115,13.947,19.212,26.332c0.098,8.974-5.071,23.895-15.799,24.382
		c0.877,0.683,1.755,1.366,2.633,2.049c4.974-4.974,10.046-9.947,15.019-14.922c1.268-1.268-0.292-1.95-1.463-2.048
		c-17.652-1.755-36.377,3.121-52.469,10.045c-11.411,4.876-30.818,14.142-31.598,28.673c-0.39,7.022,4.681,12.483,9.947,16.481
		c8.875,6.535,19.31,10.826,29.94,13.85c23.211,6.631,47.983,6.826,71.877,6.144c31.403-0.877,64.562-2.633,94.405-13.36
		c10.923-3.901,25.844-10.923,27.99-23.797c2.438-14.434-10.045-20.968-21.456-25.161c-13.264-4.877-27.405-7.51-41.352-9.753
		c-10.728-1.755-21.65-3.316-32.573-3.316c-1.268,0-9.363,1.854-7.315,4.292c6.437,7.606,12.972,15.116,19.408,22.723
		c3.121-1.365,6.242-2.729,9.363-4.096c-26.137-6.144-26.917-42.229-7.705-56.761c3.218-2.438-1.268-2.827-3.218-2.535
		c-12.581,1.95-25.844,4.292-38.62,3.608c-12.484-0.683-25.357-4.291-37.548-7.021c-2.438-0.585-5.266,0.195-7.51,1.268
		C152.702,477.448,149.874,479.497,152.41,480.081c13.068,2.927,26.722,6.633,40.181,7.413c14.142,0.78,28.868-1.756,42.813-3.9
		c-1.072-0.879-2.145-1.659-3.218-2.536c-10.728,8.094-16.58,20.578-15.897,34.036c0.683,13.654,9.85,24.674,23.114,27.795
		c1.561,0.39,11.703-1.268,9.363-4.096c-6.437-7.606-12.971-15.116-19.408-22.724c-2.438,1.463-4.876,2.827-7.314,4.291
		c13.946,0.098,30.428,3.023,44.764,5.949c8.777,1.853,17.457,3.998,25.845,7.119c5.461,1.95,12.483,4.584,15.896,9.655
		c7.9,11.508-0.488,23.017-10.923,28.477c-13.068,6.827-28.672,9.169-43.107,11.119c-14.921,2.047-29.843,2.926-44.764,3.511
		c-24.479,0.975-49.543,0.878-73.34-5.559c-10.825-2.926-21.456-7.607-30.33-14.531c-5.267-4.097-9.07-10.144-6.924-16.971
		c2.048-6.729,8.484-11.41,14.141-15.019c7.509-4.778,15.994-7.997,24.479-10.338c8.777-2.438,18.139-3.998,27.307-3.12
		c-0.488-0.683-0.975-1.365-1.463-2.049c-4.974,4.975-10.045,9.948-15.019,14.922c-1.755,1.756,1.561,2.146,2.633,2.049
		c15.506-0.586,27.893-10.729,30.525-26.041c2.634-15.311-5.461-29.744-20.675-33.743c-2.438-0.585-5.364,0.194-7.51,1.268
		C152.604,477.448,149.972,479.497,152.41,480.081z"/>
	<path fill="#A7A9AC" d="M167.233,549.911c13.556,7.704,29.258,5.266,43.399,0.78c0.488-0.195,7.217-2.829,4.877-4.097
		c-2.731-1.56-7.607,0.293-10.241,1.17c-7.802,2.438-15.896,0.878-22.918-3.121c-2.633-1.462-7.705,0.293-10.24,1.171
		C171.622,545.912,164.991,548.546,167.233,549.911L167.233,549.911z"/>
</g>
</svg>
