<?xml version="1.0" encoding="utf-8"?>
<!-- Generator: Adobe Illustrator 16.0.0, SVG Export Plug-In . SVG Version: 6.00 Build 0)  -->
<!DOCTYPE svg PUBLIC "-//W3C//DTD SVG 1.1//EN" "http://www.w3.org/Graphics/SVG/1.1/DTD/svg11.dtd">
<svg version="1.1" id="coctail" xmlns="http://www.w3.org/2000/svg" xmlns:xlink="http://www.w3.org/1999/xlink" x="0px" y="0px"
	 width="86px" height="82.688px" viewBox="167.5 243 86 82.688" enable-background="new 167.5 243 86 82.688" xml:space="preserve">
<radialGradient id="ice2_1_" cx="193.2651" cy="306.3496" r="48.1006" gradientTransform="matrix(0.9699 0 0 -0.9607 11.0527 568.7004)" gradientUnits="userSpaceOnUse">
	<stop  offset="0" style="stop-color:#FFFFFF;stop-opacity:0"/>
	<stop  offset="0.1879" style="stop-color:#FFFFFF;stop-opacity:0"/>
	<stop  offset="0.6364" style="stop-color:#FFFFFF;stop-opacity:0.6512"/>
	<stop  offset="0.699" style="stop-color:#EAE5DB;stop-opacity:0.7027"/>
	<stop  offset="0.7804" style="stop-color:#D8CFBE;stop-opacity:0.7696"/>
	<stop  offset="0.8594" style="stop-color:#CCC0AA;stop-opacity:0.8344"/>
	<stop  offset="0.934" style="stop-color:#C5B89F;stop-opacity:0.8958"/>
	<stop  offset="1" style="stop-color:#C2B59B;stop-opacity:0.95"/>
</radialGradient>
<path id="ice2" fill="url(#ice2_1_)" stroke="#FFFFFF" stroke-width="0.2835" stroke-miterlimit="10" d="M247.692,264.769
	c-8.679-4.876-18.53-11.508-34.426-11.411c-9.167,0.098-32.671,1.17-37.353,5.657c-6.339,6.046-3.998,42.229-0.975,49.25
	c3.023,6.925,15.702,15.994,22.041,17.067c8.875,1.561,17.555-2.438,24.869-3.804c8.095-1.463,16.287-1.365,23.894-5.656
	C248.668,301.537,249.351,280.569,247.692,264.769z M200.002,254.626l4.876-0.195c0.39,0,10.24-0.975,14.043-0.292
	c0.78,0.098,5.559,1.463,7.802,2.438c3.413,1.463,8.29,4.584,11.508,6.339c0.584,0.292-3.414-0.78-3.999-1.073
	c-0.293-0.098-11.411-5.267-14.825-5.754c-4.291-0.683-3.9-0.975-15.311-0.975C202.733,255.114,199.417,254.626,200.002,254.626z
	 M192.103,259.697c3.609-2.145,7.9-1.657,11.898-2.047c0.488-0.098,0.878-0.098,1.365-0.195h0.098l0,0h0.098
	c0.585-0.098,0.682,0.878,0.097,0.975c-0.487,0.098-0.976,0.195-1.463,0.195c-2.243,0.39-4.486,1.072-6.631,1.755
	c5.364-0.195,10.728-0.487,16.092-0.487c0.585,0,0.585,0.975,0,0.975c-4.486,0-8.875,0.487-13.166,1.561
	c6.339-0.195,12.581-0.781,18.919-1.073c0.585,0,0.683,0.78,0.098,0.976c-5.267,1.462-11.118,0.975-16.092,3.315
	c2.048,0,4.292-0.487,6.145-0.682c2.633-0.293,5.169-0.683,7.802-1.073c2.633-0.39,6.145-1.561,8.777-0.781
	c0.585,0.195,0.293,1.073-0.292,0.878c-1.463-0.391-3.609,0-5.071,0.195c-2.243,0.39-4.486,0.683-6.729,0.975
	c-2.146,0.293-4.291,0.585-6.437,0.78c-2.048,0.195-4.096,0.683-6.144,0.39c-0.39-0.098-0.488-0.683-0.098-0.877
	c2.633-1.561,5.461-2.244,8.387-2.634c-4.291,0.292-8.582,0.585-12.971,0.585c-0.585,0-0.585-0.78-0.098-0.975
	c1.561-0.585,3.121-0.976,4.681-1.365c-2.438,0.097-4.876,0.194-7.412,0.292c-0.585,0-0.682-0.78-0.097-0.975
	c1.658-0.487,3.218-0.976,4.876-1.463c-2.146,0.195-4.291,0.585-6.144,1.658C192.005,260.868,191.517,260.088,192.103,259.697z
	 M178.547,271.401c0.097,0.195,0.195,0.292,0.195,0.487c-0.292-1.365-0.292-2.535,0.39-2.926c0.585-0.292,1.073,0.585,0.488,0.78
	c-0.976,0.488,2.536,8.973,2.828,9.753c0.78,1.951,1.561,4.096,2.438,6.144c0.683,1.073,1.268,2.146,1.853,3.316
	c0.293,0.585-0.488,0.975-0.78,0.487c-0.781-0.975-1.366-2.146-1.951-3.315c-0.488-0.78-0.976-1.561-1.463-2.438
	c1.853,3.511,3.901,6.827,5.656,10.338c0.293,0.585-0.585,1.072-0.78,0.487c-3.706-7.412-8.972-14.434-9.85-22.821
	C177.571,271.206,178.351,271.011,178.547,271.401z M182.936,308.852c-0.292-0.293-4.974-3.512-4.779-3.317
	c-0.585-0.389-0.976-0.683-1.463-1.268c-1.268-1.755-1.365-3.997-1.365-6.047c0-1.463-0.195-3.217-0.293-5.071
	c0-0.097,0-0.682,0-0.877c0-0.878,0.098-4.292,0.098-4.486c0.195-1.269,0.488-4.877,0.488-5.169c0-0.195,0.585-2.438,0.585-1.755
	c0.098,0.39,1.365,4.291,1.365,4.389c0.195,0.78,0.488,2.34,0.488,2.34c0.683,1.853,0.292,3.901,0.488,5.853
	c0.292,2.925,0.683,6.046,1.95,8.679c2.048,4.292,8.192,7.607,11.118,11.314C192.103,314.117,185.178,310.411,182.936,308.852z
	 M190.445,303.097c-4.194-7.216-9.363-13.849-12.776-21.456c-0.293-0.584,0.585-1.072,0.78-0.487
	c3.413,7.607,8.583,14.239,12.776,21.456C191.615,303.097,190.835,303.584,190.445,303.097z M202.733,277.058
	c-6.242,9.459-0.292,24.479-3.803,38.913c-1.755-12.972-1.561-25.162-3.608-34.817c0-0.097-0.098-0.097-0.098-0.195
	c-0.487-2.34-1.073-4.876-2.34-6.924c-0.878-1.463-5.852-7.022-6.535-7.51c-0.39-0.292-7.998-5.461-7.802-5.461
	c0.585,0,7.704,3.901,9.07,4.389c14.336,4.876,33.549,1.951,50.519,0.292C227.7,272.961,209.17,267.305,202.733,277.058z
	 M231.698,283.299c0.488-0.39,0.976,0.488,0.488,0.78c-3.414,2.438-6.924,4.682-10.436,7.022c-1.853,1.268-3.706,2.634-5.364,3.998
	c-0.292,0.293-0.683,0.488-0.976,0.782c-0.975,0.876-1.853,1.754-2.828,2.632c-0.39,0.391-1.073-0.097-0.78-0.585
	c0.78-1.171,1.853-1.95,2.926-2.829c0.098,0,0.098-0.097,0.195-0.097c6.339-5.852,12.483-12.094,18.627-18.14
	c0.39-0.39,1.073,0.195,0.683,0.683c-4.291,4.292-8.583,8.484-12.874,12.776C224.774,287.98,228.285,285.737,231.698,283.299z
	 M227.602,279.3c0.488-0.292,0.975,0.488,0.488,0.78c-3.414,2.243-6.632,4.779-9.752,7.315c-1.073,0.877-2.048,1.658-3.121,2.535
	c-1.463,1.366-2.828,2.829-4.389,4.096c-0.488,0.391-1.073-0.195-0.683-0.683c1.561-1.853,3.414-3.414,5.364-4.974
	c1.462-1.366,2.925-2.731,4.486-4.096c3.218-2.73,6.339-5.559,9.265-8.485c0.39-0.39,1.073,0.195,0.683,0.683
	c-1.268,1.268-2.634,2.536-3.901,3.706C226.626,279.983,227.115,279.593,227.602,279.3z M243.206,285.445
	c0,0-0.877,5.656-1.268,8.387c-0.39,2.829-0.487,5.364-0.683,8.094c-0.195,2.146-1.17,8.777-1.755,9.753
	c-1.658,3.024-6.925,3.999-10.533,4.486c-1.073,0.195-2.243,0.391-3.413,0.488c-1.268,0.097-2.536,0.194-3.901,0.292
	c-0.293,0-8.193,0.684-11.898,0.195c-0.195,0.098-1.853-0.098-2.048-0.195c-0.488-0.195,1.853-0.78,1.853-0.78
	c0.097,0,0.487-0.098,0.683-0.098c3.414,0,20.772-3.413,23.992-8.095c2.34-3.413,4.681-11.508,4.681-11.605
	c0.683-3.608,1.366-7.509,2.244-11.313c0.292-1.657,0.975-4.681,1.658-7.802C243.304,275.205,243.402,283.982,243.206,285.445z"/>
</svg>
