<?xml version="1.0" encoding="utf-8"?>
<!-- Generator: Adobe Illustrator 16.0.0, SVG Export Plug-In . SVG Version: 6.00 Build 0)  -->
<!DOCTYPE svg PUBLIC "-//W3C//DTD SVG 1.1//EN" "http://www.w3.org/Graphics/SVG/1.1/DTD/svg11.dtd">
<svg version="1.1" id="coctail" xmlns="http://www.w3.org/2000/svg" xmlns:xlink="http://www.w3.org/1999/xlink" x="0px" y="0px"
	 width="75.143px" height="79.112px" viewBox="129.979 300 75.143 79.112" enable-background="new 129.979 300 75.143 79.112"
	 xml:space="preserve">
<radialGradient id="ice1_1_" cx="139.4194" cy="240.729" r="44.4904" gradientTransform="matrix(-0.9418 0.2294 -0.2315 -0.933 363.2768 522.9975)" gradientUnits="userSpaceOnUse">
	<stop  offset="0" style="stop-color:#FFFFFF;stop-opacity:0"/>
	<stop  offset="0.1879" style="stop-color:#FFFFFF;stop-opacity:0"/>
	<stop  offset="0.6364" style="stop-color:#FFFFFF;stop-opacity:0.83"/>
	<stop  offset="0.699" style="stop-color:#EAE5DB;stop-opacity:0.8507"/>
	<stop  offset="0.7804" style="stop-color:#D8CFBE;stop-opacity:0.8775"/>
	<stop  offset="0.8594" style="stop-color:#CCC0AA;stop-opacity:0.9036"/>
	<stop  offset="0.934" style="stop-color:#C5B89F;stop-opacity:0.9282"/>
	<stop  offset="1" style="stop-color:#C2B59B;stop-opacity:0.95"/>
</radialGradient>
<path id="ice1" fill="url(#ice1_1_)" stroke="#FFFFFF" stroke-width="0.2835" stroke-miterlimit="10" d="M143.047,378.095
	c7.802,2.146,15.117,0.292,22.723-0.098c6.924-0.391,15.604,1.269,23.211-2.048c5.364-2.341,14.824-13.264,15.994-20.091
	c1.17-7.021-4.876-39.985-11.8-44.082c-5.169-3.023-26.625,1.073-34.817,3.023c-14.336,3.413-21.65,11.508-28.379,17.75
	C131.929,347.081,137.293,365.708,143.047,378.095z M166.941,314.215c-10.143,2.438-9.753,2.633-13.459,4.193
	c-3.023,1.171-11.898,8.29-12.093,8.485c-0.488,0.39-3.804,2.243-3.414,1.852c2.536-2.242,6.242-6.045,8.973-8.191
	c1.755-1.462,5.754-3.706,6.437-3.9c3.315-1.463,12.385-2.73,12.678-2.73l4.389-0.879
	C171.037,312.85,168.111,314.02,166.941,314.215z M178.449,316.653c-1.951-0.586-3.901-0.488-5.852-0.098
	c1.561,0.098,3.121,0.194,4.682,0.292c0.487,0,0.584,0.781,0.097,0.878c-2.243,0.487-4.485,0.975-6.729,1.366
	c1.463,0,2.926,0,4.486,0.194c0.488,0.098,0.585,0.78,0.098,0.878c-3.901,0.975-7.802,1.657-11.801,2.341
	c2.73-0.292,5.461-0.292,8.192,0.584c0.293,0.099,0.488,0.684,0.098,0.781c-1.755,0.78-3.706,0.78-5.559,1.072
	c-1.951,0.293-3.998,0.488-5.949,0.683c-2.048,0.195-4.194,0.391-6.242,0.585c-1.365,0.098-3.315,0.196-4.583,0.879
	c-0.488,0.292-0.878-0.487-0.39-0.781c2.243-1.268,5.559-1.072,8.094-1.268c2.438-0.195,4.876-0.487,7.217-0.78
	c1.756-0.194,3.901-0.292,5.657-0.683c-4.974-0.976-10.143,0.683-15.214,0.488c-0.488,0-0.585-0.78-0.098-0.878
	c5.754-1.073,11.508-1.951,17.262-3.121c-4.096-0.099-8.192,0.487-12.19,1.463c-0.585,0.098-0.781-0.683-0.196-0.878
	c4.779-1.17,9.655-2.048,14.532-3.022c-2.146-0.099-4.291-0.196-6.339-0.099c-0.488,0.099-0.877,0.099-1.365,0.099
	s-0.585-0.781-0.098-0.879h0.098l0,0h0.098c0.39,0,0.78-0.097,1.268-0.097c3.706-0.488,7.412-1.854,11.118-0.683
	C179.327,315.971,179.034,316.848,178.449,316.653z M194.346,323.382c1.073,7.802-2.048,15.215-3.804,22.725
	c-0.097,0.585-0.975,0.292-0.877-0.293c0.781-3.511,1.951-7.022,2.731-10.533c-0.195,0.878-0.488,1.658-0.78,2.438
	c-0.292,1.17-0.585,2.341-0.976,3.413c-0.194,0.488-0.975,0.293-0.877-0.292c0.292-1.171,0.585-2.243,0.975-3.414
	c0.39-2.047,0.585-4.096,0.878-6.047c0.098-0.78,1.365-9.166,0.39-9.361c-0.585-0.099-0.292-0.976,0.292-0.879
	c0.78,0.098,0.976,1.171,1.073,2.536c0-0.194,0.097-0.293,0.097-0.487C193.663,322.895,194.346,322.895,194.346,323.382z
	 M191.127,363.953c1.756-3.901,6.535-8.29,7.412-12.581c0.585-2.634,0.195-5.559-0.195-8.192c-0.292-1.755-1.072-3.511-0.878-5.363
	c0,0-0.097-1.463-0.097-2.244c0-0.097,0.293-3.9,0.293-4.29c-0.098-0.586,0.975,1.268,0.975,1.463c0,0.292,1.073,3.413,1.561,4.584
	c0.097,0.097,0.877,3.218,1.072,3.998c0.098,0.195,0.195,0.683,0.195,0.78c0.292,1.657,0.488,3.218,0.878,4.584
	c0.487,1.854,0.877,3.9,0.097,5.754c-0.195,0.585-0.585,0.976-0.975,1.463c0.195-0.293-3.316,3.706-3.609,3.999
	C196.199,359.76,190.835,364.636,191.127,363.953z M188.982,354.103c2.146-7.411,5.364-14.434,6.729-22.04
	c0.098-0.585,0.975-0.293,0.877,0.292c-1.365,7.606-4.486,14.727-6.729,22.041C189.665,354.884,188.787,354.688,188.982,354.103z
	 M138.659,331.282c15.604-2.146,33.451-3.805,45.35-11.314c1.073-0.779,6.631-5.851,7.217-5.948c0.195,0-5.559,6.242-5.754,6.632
	c-0.488,0.585-3.707,6.632-4.194,8.192c-0.683,2.146-0.683,4.486-0.585,6.729c0,0.099,0,0.099,0,0.195
	c0.292,9.07,3.121,20.091,4.486,32.087c-6.437-12.191-4.389-26.918-12.093-34.037C165.088,326.308,149.679,335.476,138.659,331.282z
	 M159.334,349.714c-4.876-2.828-9.655-5.753-14.434-8.582c-0.488-0.292,0-1.072,0.487-0.78c6.924,4.097,13.751,8.29,20.773,12.19
	c0.098,0,0.098,0.098,0.195,0.098c1.17,0.487,2.34,0.976,3.316,1.854c0.39,0.391-0.098,0.878-0.585,0.683
	c-1.073-0.585-2.145-1.17-3.121-1.755c-0.39-0.099-0.683-0.294-1.073-0.487c-1.853-0.879-3.804-1.659-5.754-2.438
	c-3.609-1.366-7.314-2.634-10.923-4.097c-0.487-0.195-0.292-1.073,0.293-0.878C152.019,347.081,155.726,348.35,159.334,349.714z
	 M152.8,341.814c-1.463-0.779-2.926-1.658-4.389-2.535c-0.488-0.293,0-1.073,0.487-0.78c3.316,2.048,6.729,3.9,10.241,5.559
	c1.657,0.78,3.316,1.756,4.876,2.634c2.048,0.975,4.096,2.047,5.949,3.315c0.488,0.293,0.098,0.976-0.487,0.78
	c-1.658-0.878-3.219-1.755-4.876-2.73c-1.17-0.586-2.244-1.073-3.414-1.561c-3.413-1.658-6.827-3.219-10.338-4.486
	c-0.487-0.195-0.292-1.073,0.292-0.878C151.727,341.327,152.312,341.522,152.8,341.814z M137,342.595
	c1.268,2.634,2.536,5.267,3.219,6.632c1.56,3.219,3.022,6.534,4.486,9.655c0.097,0.098,3.901,6.826,6.729,9.361
	c3.901,3.513,20.188,2.83,23.309,2.05c0.195,0,0.585,0,0.683,0c0,0,2.146,0,1.755,0.292c-0.098,0.195-1.56,0.683-1.755,0.683
	c-3.218,1.268-10.533,2.438-10.728,2.438c-1.17,0.194-2.341,0.487-3.511,0.585c-1.073,0.194-2.048,0.292-3.121,0.292
	c-3.316,0.294-8.192,0.586-10.436-1.755c-0.682-0.683-3.121-6.437-3.706-8.388c-0.78-2.438-1.365-4.681-2.438-7.118
	c-0.976-2.342-3.023-7.218-3.023-7.218C138.073,348.837,136.221,340.937,137,342.595z"/>
</svg>
