<?xml version="1.0" encoding="utf-8"?>
<!-- Generator: Adobe Illustrator 16.0.0, SVG Export Plug-In . SVG Version: 6.00 Build 0)  -->
<!DOCTYPE svg PUBLIC "-//W3C//DTD SVG 1.1//EN" "http://www.w3.org/Graphics/SVG/1.1/DTD/svg11.dtd">
<svg version="1.1" id="coctail" xmlns="http://www.w3.org/2000/svg" xmlns:xlink="http://www.w3.org/1999/xlink" x="0px" y="0px"
	 width="117.353px" height="99.27px" viewBox="139.536 333.134 117.353 99.27"
	 enable-background="new 139.536 333.134 117.353 99.27" xml:space="preserve">

<g id="lemon">
	<path fill="#FFDE17" stroke="#D7DF23" stroke-miterlimit="10" d="M162.942,404.329c-4.778,3.121-12.776,0-16.774-6.145
		l-6.632,3.804c20.188,33.842,55.98,37.256,86.798,20.969c28.965-15.312,40.278-55.493,20.968-89.823l-7.802,5.17
		c3.511,6.632,2.536,14.435-2.34,17.652"/>
	<path class="yellowpath" fill="yellow" stroke="#FFDE17" stroke-miterlimit="10" d="M225.359,416.325c27.405-17.555,35.695-53.347,18.726-80.167
		l-7.314,4.682c3.022,5.267,1.951,11.605-2.634,14.531c-1.365,0.877-26.722,7.412-34.914,9.46l-11.411,7.314l-23.114,27.404
		c-4.486,2.927-10.728,1.365-14.336-3.413l-6.632,4.193C161.577,426.857,197.856,433.977,225.359,416.325z M236.379,365.123
		c5.462,1.17,8.875,7.12,7.51,13.361c-1.365,6.145-6.925,10.24-12.386,9.07c-1.853-0.391-33.647-19.018-33.647-19.018
		L236.379,365.123z M181.57,417.982c-6.242-1.365-10.338-6.827-9.168-12.288c0.39-1.854,19.213-33.354,19.213-33.354l3.413,38.133
		C193.858,416.032,187.812,419.349,181.57,417.982z M195.809,371.364l29.648,24.577c3.023,4.682,1.169,11.216-4.194,14.727
		c-5.364,3.413-12.191,2.438-15.213-2.243C204.976,406.767,195.809,371.364,195.809,371.364z"/>
	<path class="yellowpath" fill="yellow" stroke="#FFDE17" stroke-miterlimit="10" d="M191.517,372.438c0,0-18.822,31.5-19.212,33.353
		c-1.171,5.463,2.926,10.924,9.167,12.289c6.242,1.365,12.289-2.048,13.458-7.509L191.517,372.438z"/>
	<path class="yellowpath" fill="yellow" stroke="#FFDE17" stroke-miterlimit="10" d="M164.698,399.647l23.114-27.404l-37.45,23.991
		C153.97,401.014,160.212,402.573,164.698,399.647z"/>
	<path class="yellowpath" fill="yellow" stroke="#FFDE17" stroke-miterlimit="10" d="M236.77,340.84l-37.451,23.991
		c8.095-2.048,33.549-8.583,34.915-9.46C238.721,352.542,239.891,346.106,236.77,340.84z"/>
	<path class="yellowpath" fill="yellow" d="M177.767,409.692c4.096,6.729,10.337,2.731,11.41-3.607c0.78-6.242,0.878-14.045,0.683-20.578"/>
	<path class="yellowpath" fill="yellow" d="M233.551,385.312c6.339-0.488,10.533-13.068,4.389-16.189c-3.316-1.658-9.07-0.098-12.385,0.878
		c-5.364,1.95-8.095,2.341-13.557,1.268"/>
	<path class="yellowpath" fill="yellow" stroke="#FFDE17" stroke-miterlimit="10" d="M221.263,410.668c5.364-3.413,7.217-10.045,4.194-14.727
		l-29.648-24.577c0,0,9.167,35.402,10.24,37.061C209.072,413.106,215.899,414.081,221.263,410.668z"/>
	<path class="yellowpath" fill="yellow" stroke="#FFDE17" stroke-miterlimit="10" d="M243.889,378.484c1.365-6.241-2.048-12.191-7.51-13.361
		l-38.523,3.414c0,0,31.794,18.627,33.647,19.018C237.062,388.725,242.621,384.629,243.889,378.484z"/>
	<path class="yellowpath" fill="yellow" d="M210.632,407.741c5.462,1.366,14.337-5.753,11.216-11.312c-3.218-6.242-14.044-7.704-17.555-14.823"/>
	<path fill="#FFFFFF" d="M233.551,385.507c5.949-0.977,8.973-8.68,7.022-13.946c-1.17-3.121-4.681-3.414-7.412-3.317
		c-2.146,0.099-4.389,0.684-6.535,1.269c-5.071,1.365-9.069,2.438-14.434,1.562c-0.195,0-0.585,0.291-0.292,0.291
		c6.437,1.171,11.021-0.584,17.262-2.145c5.559-1.365,11.508-0.585,11.508,6.046c0,4-2.731,9.168-7.12,9.851
		C233.356,385.214,233.161,385.604,233.551,385.507L233.551,385.507z"/>
	<path fill="#FFFFFF" d="M191.034,413.596c-4.248,2.958-11.265,1.718-14.364-2.97c-2.024-3.036,0.283-7.347,1.808-9.89
		c2.514-4.3,5.812-7.997,6.096-13.406c0.041-0.343,0.949-0.336,0.95-0.121c-0.244,5.282-3.5,9.283-6.138,13.533
		c-1.483,2.417-2.554,4.857-2.428,7.92c0.294,6,10.157,7.09,13.416,4.812C190.58,413.27,191.488,413.275,191.034,413.596
		L191.034,413.596z"/>
	<path fill="#FFFFFF" d="M210.34,407.938c5.461,0.878,11.703-3.219,12.581-8.777c0.585-3.608-3.608-6.535-6.241-8.191
		c-4.389-2.829-9.265-4.779-11.997-9.56c-0.194-0.291-1.072,0.099-0.975,0.294c2.634,4.681,7.607,6.925,12.094,9.654
		c2.536,1.562,4.681,3.316,5.949,6.145c2.438,5.56-6.631,10.728-10.825,10.046C210.632,407.45,209.755,407.84,210.34,407.938
		L210.34,407.938z"/>


	<style>

		#lemon path.yellowpath {
		    animation: example 2000ms linear infinite alternate;
		}

		@keyframes example {
		    from {fill: yellow;}
		    to {fill: orange;}
		}


		</style>
	</g>
</svg>
