<?xml version="1.0" encoding="utf-8"?>
<!-- Generator: Adobe Illustrator 16.0.4, SVG Export Plug-In . SVG Version: 6.00 Build 0)  -->
<!DOCTYPE svg PUBLIC "-//W3C//DTD SVG 1.1//EN" "http://www.w3.org/Graphics/SVG/1.1/DTD/svg11.dtd">
<svg version="1.1" id="Layer_1" xmlns="http://www.w3.org/2000/svg" xmlns:xlink="http://www.w3.org/1999/xlink" x="0px" y="0px"
	 width="505.231px" height="668.479px" viewBox="0 0 505.231 668.479" enable-background="new 0 0 505.231 668.479"
	 xml:space="preserve">
<g id="palmak">
	
		<linearGradient id="SVGID_1_" gradientUnits="userSpaceOnUse" x1="-16.4277" y1="-335.9326" x2="305.3159" y2="221.3438" gradientTransform="matrix(0.9939 0.1099 0.1099 -0.9939 -4.7003 301.9137)">
		<stop  offset="0.3091" style="stop-color:#3C2415"/>
		<stop  offset="0.3542" style="stop-color:#3D2717"/>
		<stop  offset="0.4053" style="stop-color:#41301C"/>
		<stop  offset="0.4595" style="stop-color:#463F24"/>
		<stop  offset="0.5158" style="stop-color:#49542E"/>
		<stop  offset="0.5737" style="stop-color:#47713A"/>
		<stop  offset="0.6322" style="stop-color:#259546"/>
		<stop  offset="0.6485" style="stop-color:#00A14B"/>
		<stop  offset="0.8667" style="stop-color:#8DC63F"/>
		<stop  offset="1" style="stop-color:#39B54A"/>
	</linearGradient>
	<path fill="url(#SVGID_1_)" d="M31.031-18.521c0.748,0.083,1.494,0.166,2.241,0.248c2.821,5.231,10.64,6.462,9.721,14.689
		c6.877-0.731-1.614-5.029,0.992-8.967C49.951-8.475,50.511-0.07,50.72,8.616c4.819,0.915,1.896-7.839,3.482-10.961
		c7.581,3.464,5.317,14.81,3.998,25.403c3.336-7.41,5.857-1.771,7.718-8.223c6.504,3.517-3.284,7.44-1.488,13.45
		c6.293-13.844,8.535,10.181,6.735,21.167c7.467-3.045-0.772-16.005,4.226-17.686c4.904,1.521-0.314,11.148,0.506,15.94
		c6.493,3.004,4.524-4.555,5.476-8.471c3.701-0.828,3.084,19.254,1.26,29.638c4.819,0.916,1.895-7.838,3.481-10.961
		c5.95-1.835-2.038,18.272-2.728,24.659c4.72-0.062,1.703-9.782,5.723-10.713c3.319,3.49-3.368,16.056-4.721,22.169
		c5.39-6.978,5.039-1.249,3.74,7.221c5.456-2.543,2.562-15.511,4.72-22.169c4.323,2.668,3.89,9.145,2.748,16.188
		c9.352-10.109-5.609-27.443,4.215-38.108c4.906,1.52-0.313,11.147,0.506,15.939c9.174-9.341-2.312-28.649,6.457-37.86
		c4.824,2.948-0.705,14.186,0.01,20.423c5.768-7.254,2.871-25.332,10.196-30.64c2.87,4.512,3.116,11.125,2.5,18.43
		c7.658-4.895,4.662-23.094,12.189-28.151c3.668,2.299-2.517,13.664-4.225,17.687c7.21-2.904,7.188-14.839,11.447-21.426
		c5.744,3.319-1.302,11.687-1.736,15.692c8.499-7.247,14.579-17.514,25.145-22.18c3.28,3.442-8.806,9.27-10.703,14.701
		c10.205-2.565,15.463-11.307,30.381-7.986c-6.04,6.915-17.642,6.886-24.153,13.213c2.04,4.826,10.472-3.734,18.183-0.259
		c-3.168,5.398-10.655,5.406-18.678,4.742c2.409,3.52,7.241,5.1,12.956,5.971c-3.641,3.108-9.264,3.739-16.188,2.748
		c7.912,5.157,8.789,2.647,3.245,11.705c5.681-3.112,9.012-9.157,16.931-9.473c-7.912,9.669,4.338,3.541,8.968,0.992
		c4.022,3.551-7.897,8.678-12.449,9.968c1.179,6.788,5.964-2.292,11.209,1.24c-2.556,4.463-7.372,6.103-14.194,5.237
		c2.522,7.005,9.07-1.986,15.691,1.735c-4.727,3.453-12.212,3.459-18.677,4.742c0.411,5.119,10.947,2.13,15.444,3.977
		c-6.557,2.869-12.576,6.409-23.161,4.245c-1.095,6.327,14.965-1.086,10.465,7.965c-9.216-1.303-14.468,2.345-24.907-0.486
		c0.386,5.14,11.888,1.377,12.955,5.971c-0.828,4.921-9.616-0.1-13.699,0.754c-0.269,4.982,9.404,2.004,13.203,3.729
		c-10.63,1.337-4.745,7.529-18.677,4.741c37.579,4.396,62.471-29.14,109.078-21.972c-10.069,6.134-27.032,3.662-39.347,6.993
		c3.387,7.307,10.937-1.409,17.934,1.983c-2.864,4.929-10.819,3.499-18.429,2.5c0.411,5.119,10.947,2.131,15.443,3.977
		c-5.591,9.174-20.181,7.116-32.623,7.738c5.202,6.325,16.518-1.359,26.899,2.975c-8.959,3.268-18.443,5.883-30.132,5.745
		c1.009,0.67,5.467,4.977,6.229,5.227c31.05,10.213-15.524,1.824-32.127,3.254c16.146,5.458,35.873,8.048,48.077,16.663
		c-2.625,6.36-7.068-2.139-11.208-1.24c1.603,4.165,7.4,4.969,10.464,7.965c-4.989,5.821-11.346-4.373-17.685-4.225
		c4.893,5.822,16.278,9.596,14.205,15.186c-10.963,1.922-22.59-13.204-36.87-15.423c6.471,4.354,12.674,8.92,18.936,13.44
		c-5.993,3.998-12.106-9.284-21.674-9.205c2.924,4.469,9.088,6.343,12.46,10.455c-6.11,4.093-15.531-6.543-21.673-9.204
		c-5.772,2.157,6.347,6.981,7.974,9.958c-2.479,5.072-9.627-2.952-13.202-3.729c5.257,9.803-9.361,10.83-25.898,8.481
		c31.074,6.864,89.994-5.177,134.997,10.393c6.795,3.878-8.166,1.342-11.455,1.002c17.437,4.423,29.182,13.406,43.099,20.651
		c-3.465,4.6-11.826-3.992-17.687-4.225c8.716,8.003,18.83,14.887,26.91,23.398c-2.712,5.862-7.601-3.153-10.958-3.481
		c3.467,6.757,9.358,11.575,11.462,19.421c-17.148,1.45-22.711-24.013-34.884-33.356c2.344,9.699,9.204,15.783,13.21,24.152
		c-5.72,1.102-16.197-11.49-18.19-20.165c-1.949,5.714,7.023,20.206,10.475,28.389c-11.83-4.17-16.525-31.698-29.411-41.828
		c4.649,15.345,16.201,25.164,17.954,42.83c-8.835-5.863-8.249-19.273-17.696-24.647c3.433,7.466,8.69,13.472,8.729,23.656
		c-13.365-9.047-13.337-28.821-25.175-39.09c4.024,15.166,12.923,26.427,15.713,42.581c-9.784-7.148-9.658-22.23-19.442-29.378
		c3.753,7.891,6.453,16.625,10.971,23.904c-10.529,0.898-13.408-21.921-19.195-31.621c-3.034,3.896,4.632,16.644,6.488,23.409
		c-5.117,6.56-5.919-7.327-7.976-9.959c-5.769,0.931,3.5,6.44,1.002,11.457c-10.158-8.209-13.031-22.254-18.946-33.862
		c7.587,36.451,37.693,57.797,38.905,99.604c-6.948-10.09-0.916,2.235-3.482,10.961c33.058,1.731,74.694,11.678,84.206,38.812
		c7.1,0.377-7.942-11.664,3.23-8.719c-4.384-3.982-7.452-9.015-12.21-12.697c0.301-2.173,2.938-1.433,4.731-1.745
		c-1.381-5.706-12.25-3.812-9.971-12.448c6.037,2.658,10.479,6.59,17.189,8.708c-6.167-5.96-11.081-12.917-18.439-17.924
		c6.22-6.161,13.652,3.914,17.438,6.467c-0.29-10.666-14.019-10.568-18.439-17.924c0.883-4.964,5.326,3.534,11.208,1.241
		c-2.976-7.152-16.188-6.103-16.446-15.435c7.884,0.496,14.283,2.182,17.438,6.467c3.124-2.637-6.424-12.462-9.473-16.931
		c6.521-3.757,15.814,7.687,16.444,15.434c6.562-1.567,0.438-9.59,1.487-13.45c5.062,4.121,7.343,10.466,6.985,18.925
		c4.816,0.915,1.895-7.838,3.479-10.961c3.94,4.335,3.548,12.142,2.251,20.67c2.441-1.204,2.892-4.898,7.224-3.739
		c-4.166,3.302-3.239,12.964-4.476,19.928c0.444,3.227,3.93,0.629,4.73-1.746c6.184,3.866-4.828,7.283-3.729,13.203
		c13.505-8.49,17.922-13.011,27.884-26.415c3.221,1.345-1.201,2.77-0.743,6.724c5.755-8.122,13.731-13.465,20.414-20.434
		c5.227,1.21-3.233,5.704-3.233,8.719c8.812-4.306,16.411-10.123,28.388-10.475c-7.786,8.136-20.115,10.596-27.138,19.688
		c7.087-2.206,12.988-5.893,23.161-4.246c-3.482,4.158-10.504,3.893-16.438,4.988c9.159,6.083-8.157,7.928-14.688,9.722
		c2.419,6.877,8.162-3.122,13.697-0.754c-5.871,5.424-13.072,9.188-21.664,11.218c0.199,4.858,9.817,0.72,11.458-1.001
		c-0.647,2.908-9.808,19.074-14.939,11.962c2.199,3.035,1.444,4.819-2.736,4.236c0.73,6.876,5.029-1.614,8.97,0.992
		c14.438-34.696,58.95-31.843,97.117-36.912c-6.445,3.859-13.496,6.961-21.416,8.978c2.01,7.116,7.978-1.58,13.446,1.487
		c-3.873,6.218-13.295,5.508-23.161,4.247c-0.911,4.818,7.843,1.896,10.965,3.48c-1.271,6.917-11.577,2.554-18.434,2.5
		c-0.914,4.816,7.84,1.896,10.961,3.482c-1.021,6.375-9.803,3.063-16.188,2.747c0.069,2.667,3.879,2.345,6.477,2.987
		c-6.615,4.497-21.709-1.596-31.63-1.23c3.031,5.064,15.599,2.49,19.679,6.716c-3.674,4.768-15.692-0.891-22.665-0.238
		c6.864,3.424,22.72,10.317,31.139,5.713c10.141,6.868-21.712,4.436-7.719,8.221c-4.402,4.708-17.2-1.069-24.904-0.486
		c0.068,2.668,3.878,2.345,6.477,2.985c-5.139,4.638-18.707-1.247-27.146-0.732c0.407,5.118,10.944,2.13,15.439,3.979
		c-0.648,2.585-4.296,1.438-6.972,1.496c19.643,4.207,80.059-10.227,97.891,17.634c-2.736,5.883-6.662-3.906-13.451-1.484
		c9.435,6.748,25.396,8.271,27.16,21.154c-6.1-2.606-8.396-8.259-17.188-8.709c10.528,6.549,19.696,14.193,26.914,23.398
		c-2.72,5.859-7.604-3.153-10.964-3.48c9.938,12.474,14.988,28.857,17.459,47.312c-4.815-2.953-7.396-7.699-7.479-14.441
		c-3.551-1.414-5.014,11.812-1.24,11.207c-6.211,1.492-7.774-18.234-10.725-26.146c-6.018,2.354,2.188,10.312,0.508,15.938
		c-6.768-4.798-10.146-12.307-11.219-21.662c-7.006,2.521,1.981,9.066-1.734,15.689c-6.867-4.719-6.311-15.379-6.242-25.648
		c-5.117,0.41-2.131,10.945-3.977,15.443c-6.814-8.846-4.836-24.73-7.24-37.105c-7.438,8.09,0.381,21.416-1.229,31.633
		c-5.693-9.062-9.182-19.893-12.472-30.879c-5.44,5.822,5.659,15.822,3.998,25.402c-4.256-2.039-5.312-6.641-5.481-11.953
		c-7.636,13.873-17.925-9.248-17.697-24.646c-6.914,7.672,4.293,18.285,3.75,27.644c-5.644-2.974-6.568-9.724-12.21-12.693
		c13.558,22.514,46.496,29.506,60.051,52.021c-1.18,5.722-3.516-3.504-8.967-0.991c5.352,14.104,22.908,18.436,20.69,38.598
		c-6.768-9.656,5.688,27.119,2.265,41.096c-8.375,4.566-9.65-14-11.219-21.664c-4.761,1.982,1.396,12.338-2.232,20.176
		c-10.773-2.946-0.744-22.562-5.742-30.137c-5.647,4.002-2.871,18.527-5.217,26.654c-6.57-7.682-0.814-25.229-0.271-38.605
		c-8.872,3.808-1.243,13.269-4.971,24.41c-10.658-8.486-3.975-30.867-6.248-46.074c-7.441,5.166-6.248,21.117-8.2,33.132
		c-6.563-11.769,1.469-35.228-1.272-50.062c-6.341,10.49,0.816,31.926-7.199,44.588c-2.588-0.647-1.438-4.297-1.498-6.973
		c-2.188-0.183-2.042,2.551-2.736,4.231c-4.112-10.321,2.443-29.194,2.472-42.839c-6.103,7.688-3.67,26.032-6.457,37.86
		c-10.457-9.332-1.26-34.406-1.021-52.308c-6.913,8.379-2.309,31.14-8.946,39.855c-5.567-6.437,4.374-25.297-1.015-31.881
		c-8.138,7.697-4.941,29.547-11.188,39.608c-9.079-11.873,2.553-33.763,3.213-49.565c-7.373,6.1-5.25,24.062-10.446,32.881
		c-4.496-6.61,1.598-21.705,1.23-31.631c-5.24,1.111-2.271,12.479-4.228,17.687c-2.938-1.128-2.004-22.854-0.764-34.122
		c-5.834,5.474-3.188,21.533-5.712,31.14c-5.213-5.361-2.556-17.021-1.508-27.396c-9.319,4.157-2.562,14.319-4.97,24.409
		c-5.851-3.486-4.471-12.77-4.496-20.918c-6.324-1.098,1.091,14.966-7.965,10.464c0.496-4.481,0.991-8.968,1.487-13.448
		c-10.647,3.377-3.564,19.812,2.003,22.914c-2.693,5.848-4.445-5.682-8.47-5.479c2.558,14.977,21.274,17.018,21.188,34.11
		c-3.37-4.11-9.535-5.983-12.46-10.454c-2.188,5.906,11.293,16.786,10.479,28.387c-2.856-1.117-3.09-4.334-6.229-5.226
		c2.155,11.214,9.981,17.886,7.736,32.623c-6.64-9.669-9.146-22.645-16.952-31.375c1.551,15.104,8.962,25.515,6.499,43.834
		c-3.712-2.479-3.231-8.311-5.483-11.95c-7.863,7.672,5.854,24.366-3.721,33.623c-2.724-4.632-4.135-10.312-4.992-16.437
		c-3.577,7.695-0.346,27.475,0.271,38.604c-4.816-2.953-7.393-7.701-7.479-14.443c-3.463,14.387-10.557,24.236-13.429,39.359
		c-11.539-5.229-1.746-20.604-1.014-31.878c-6.584,1.128-2.021,16.188-10.702,14.698c0.847-23.605,8.241-39.039,15.164-55.054
		c-5.991,2.726-8.979,9.195-12.942,14.455c-4.959-7.192,8.561-13.017,7.21-24.164c-6.709,7.781-16.577,11.613-20.661,22.674
		c-2.919-11.359,8.429-26.848,15.179-34.629c-0.978-5.066-7.918,3.427-9.71,5.736c-3.111-6.557,9.288-15.531,13.688-21.18
		c-9.169,3.008-13.886,11.573-20.166,18.192c0.946-7.387,11.397-24.848,19.412-31.893c-8.688-0.598-17.851,20.193-27.882,26.415
		c1.763-8.901,14.377-26.233,22.148-36.125c-10.555,2.132-10.979,16.905-22.406,17.941c9.1-9.896,14.644-24.234,24.143-33.637
		c-7.872,4.627-13.25,12.369-20.166,18.19c-2.866-10.452,14.431-17.647,16.92-29.896c-8.093,0.95-12.14,6.95-13.188,16.695
		c-5.695-12.212-8.5,9.604-8.956,19.43c-2.651-1.28-4.288-3.375-3.741-7.219c-1.825,8.297-5.672,10.67-7.211,24.162
		c-4.898,0.518-3.915-3.678-3.739-7.223c-5.998,1.866-1.019,17.438-6.714,19.682c-7.465-6.962-2.923-23.539-5.249-34.617
		c-4.776,10.68,2.139,29.578-2.965,47.321c-5.946-8.18-4.363-22.389-2.758-36.608c-7.878,16.524-3.485,48.375-13.667,62.021
		c-3.958-11.812,2.781-32.191,2.965-47.322c-6.186,8.434-3.833,27.527-6.704,40.104c-9.22,2.615,0.289-9.766-5.734-9.711
		c-5.922,6.209-3.347,23.035-5.96,33.377c-5.399-3.17-5.406-10.653-4.743-18.678c-5.336,6.942-4.446,21.662-9.947,28.396
		c-4.424-7.354,1.767-23.209,1.477-33.873c-6.084,4.311-4.611,18.057-9.453,23.914c-4.273-11.363,4.345-28.533,8.699-37.609
		c-6.471-3.734-12.692,14.693-18.172,20.68c0.414-12.276,11.078-33.76,22.645-40.605c-1.74-3.646-11.503,4.175-12.449,9.97
		c-7.782-6.613,10.622-15.357,4.473-19.931c5.232,1.629,9.4-9.266,17.18-11.712c-1.841-4.582-9.539,4.895-12.2,7.727
		c-2.803-7.845,11.121-16.658,16.177-23.172c-6.975,1.496-11.955,5.479-14.938,11.965c-0.309-14.881,23.65-21.469,33.11-32.646
		c-69.55,50.074-126.166,116.299-159.544,211.535c8.899-11.85,23.354-16.762,28.626-33.141c7.46,5.496-1.201,18.039-2.976,26.898
		c7.276-9.622,19.845-12.642,25.392-24.42c0.281,34.375-36.108,45.048-46.786,74.241c12.886-17.07,28.092-31.252,51.538-35.143
		c-14.821,12.961-28.872,26.877-43.067,40.618c15.827-5.77,32.426-32.634,62.25-29.422c-5.752,11.527-18.749,14.009-29.38,19.441
		c-0.223,5.039,5.971-2.284,11.21,1.24c-6.865,5.034-14.59,8.995-21.912,13.461c2.981,1.894,21.377,1.276,31.383,3.472
		c-17.426,14.808-53.999,5.704-76.455,14.233c-0.747-0.082-1.494-0.164-2.241-0.248c-4.187-4.229-24.134-6.436-29.143-3.224
		c-4.483-0.496-8.967-0.992-13.45-1.485c-15.767-8.505-38.589-22.195-59.038-20.146c-4.922-3.866,8.71-5.933,14.194-5.235
		c-8.214-4.321-17.902-7.459-25.909-11.942c14.264-11.801,40.236,2.981,55.794,8.438c-9.206-11.02-22.312-18.907-25.67-34.604
		c15.192,5.541,23.707,16.432,30.898,28.377c-0.417-7.198-6.992-27.057-16.705-33.614c6.885-5.377,14.304,6.149,19.432,8.955
		c0.891-9.564-2.016-16.093,0.733-27.146c5.438,12.672,15.45,21.683,13.719,40.094c6.209-19.979-5.244-43.459,0.96-70.234
		c4.197,10.938,6.276,23.575,9.732,35.111c40.177-129.35,42.658-306.122,18.967-417.69c-5.182,3.679-5.988,10.97-1.736,15.691
		c-6.46,3.708-10.168-12.21-11.466-19.421c-5.012,10.872,7.693,25.132,4.503,41.342c-6.239-7.263-9.718-16.735-10.475-28.389
		c-5.278,15.204,6.474,33.183,1.271,50.062c-4.256-2.04-5.314-6.641-5.486-11.953c-6.337,1.386,2.357,7.355-1.487,13.45
		c-4.614-6.521-8.255-13.819-11.218-21.663c-4.273,7.576,7.649,19.704,5.496,32.375c-7.729-2.662-4.893-13.79-11.714-17.179
		c2.623,14.247,10.38,24.378,8.987,41.838c-6.769-4.795-10.146-12.307-11.219-21.662c-4.721,5.916,4.734,17.932,3.75,27.643
		c-13.17-6.478-10-26.043-21.187-34.111c0.613,21.984,17.331,31.071,16.714,54.039c-5.424-5.871-9.188-13.073-11.219-21.663
		c-5.247,1.738,1.791,10.631-1.983,17.934c-3.123-2.268-2.447-7.577-3.244-11.704c-6.307,5.187,4.562,13.953,2.004,22.913
		c-7.1-3.167-6.658-12.375-9.225-19.175c-5.788,1.551,2.137,8.949-1.736,15.693c-7.764-11.506-0.694,8.609-4.224,17.688
		c-7.612-8.889-10.514-21.545-6.994-39.351c-4.794,3.369-6.116,11.073-6.716,19.68c-6.965-10.423,0.822-21.978,3.719-33.625
		c-4.818,2.486-6.095,9.4-8.46,14.948c-3.342-0.282-1.772-13.673-4.236-2.738c-3.429-16.23,16.128-25.751,22.396-38.366
		c-5.599-1.805-16.706,11.391-20.413,20.432c-5.485-12.876,11.035-20.181,16.674-27.652c-9.615,0.748-11.742,10.852-21.664,11.218
		c-0.354-12.198,15.844-17.061,23.399-26.911c-11.06,1.496-15.057,11.814-26.395,12.964c5.963-5.309,10.398-12.529,19.669-13.708
		c-4.823-6.679-11,6.528-18.677,4.742c9.994-13.886,26.028-20.229,41.581-27.169c-12.226-5.013-22.802,14.01-37.851,13.967
		c2.093-5.04,8.113-5.177,10.206-10.217c-2.887-4.372-14.241,10.693-13.946,2.995c-3.979,3.536-4.322,11.611-6.467,17.438
		c-4.823-2.947,0.705-14.186-0.01-20.423c-7.346,3.584-5.663,18.442-9.701,26.157c-3.297-4.851-0.9-14.262-2.252-20.671
		c-3.895,4.491-5.216,12.196-6.714,19.68c-2.869-4.511-3.116-11.125-2.5-18.429c-5.687,8.204-3.521,26.22-10.443,32.881
		c-3.687-2.496-4.172-7.557-2.996-13.947c-4.819-0.914-1.896,7.84-3.481,10.961c-3.492-4.014-3.738-10.627-2.5-18.43
		c-10.417,3.151-1.444,30.513-12.685,32.635c2.54-8.844-0.733-13.036-0.011-20.424c-6.797,10.222-12.382,21.959-15.423,36.869
		c-6.036-12.722,5.143-25.832,6.457-37.86c-8.147,6.838-9.841,21.73-14.928,32.385c-4.954-4.713,4.536-12.873,2.479-22.415
		c-8.118,8.571-13.653,20.369-17.417,34.378c-5.191-7.481,2.472-20.614,5.217-26.653c-1.398-5.598-7.365,4.119-7.718,8.224
		c-0.576-24.308,28.782-43.402,35.826-77.726c-3.929,2.748-6.581,7.09-8.212,12.707c-3.823-6.604,4.439-19.873,9.453-23.916
		c-0.976-5.071-7.919,3.425-9.71,5.734c-2.787-10.353,12.428-20.146,18.915-27.407c-8.329,2.356-14.342,7.604-19.67,13.708
		c-2.171-12.121,18.204-18.049,25.641-26.663c-7.479-0.834-8.459,6.446-16.436,4.99c24.851-15.282,34.8-29.129,77.942-27.686
		c7.966-8.76,19.325-13.287,31.373-16.951c-7.191-5.476-17.639,6.81-27.891,5.991c2.474-5.415,8.638-6.222,12.448-9.968
		c-12.283,1.671-17.972,11.576-30.878,12.468c5.891-10.693-2.099-3.754-6.726-0.744c-6.241-5.515,7.343-7.637,8.213-12.706
		c-4.661,3.535-11.046,4.915-14.69,9.721c-2.158-4.527,10.78-11.955,17.427-13.957c-8.885-1.687-23.004,12.051-33.614,16.705
		c-3.506-3.725,8.011-10.261,12.696-12.211c-9.781-3.591,16.733-14.674,26.89-17.448c-16.598-6.234-31.955,11.096-49.058,12.727
		c6.461-7.239,15.627-11.1,26.394-12.965c-9.915-4.661-24.943,6.226-33.119,12.222c-3.811-2.085,0.128-4.113,0.744-6.726
		c-8.181,2.542-14.846,6.976-25.651,6.24c10.464-9.045,25.467-12.423,38.347-18.45c-7.412-5.75-18.337,5.941-29.886,3.502
		c1.896-5.287,9.017-4.048,14.195-5.238c-7.862-5.471-22.472,2.486-34.122,0.764c12.301-10.152,32.862-9.99,55.289-7.5
		c-2.201-4.367-11.493-3.055-15.195-6.219c15.22-5.331,32.45,5.306,46.827,7.449c-4.212-4.8-9.906-8.413-16.942-10.951
		c8.643-2.767,22.656,7.687,30.393,12.438c-2.453-4.847-6.521-8.4-12.458-10.455c12.774-6.744,18.84,9.382,25.656,14.194
		c5.664-2.71-6.559-8.209-5.238-14.194c29.65,25.46,54.046,51.059,69.287,91.621c2.646-13.794-9.912-23.518-14.215-35.609
		c3.992,2.252,7.796,4.653,12.954,5.971c-6.616-4.236-10.028-11.038-16.445-15.434c5.772-6.447,9.87,5.556,15.196,6.219
		c-2.852-12.017-19.897-12.67-22.179-25.144c4.342,2.652,8.364,5.561,12.706,8.213c2.817-6.411-14.583-14.151-22.923-18.419
		c2.625-6.361,7.069,2.139,11.209,1.239c0.865-5.4-16.355-7.817-1.498-6.973C51.954,66.88,39.764,68.47,40.535,59.68
		c7.639,2.055,11.273,7.317,19.432,8.957c-3.071-5.714-12.632-6.229-16.941-10.951c2.625-6.36,7.069,2.138,11.208,1.24
		c-4.688-4.418-5.95-11.58-11.963-14.938c0.954-5.538,7.664,0.183,8.967,0.992c-2.64-10.146-18.357-9.817-17.944-22.407
		c6.834,2.698,8.521,9.521,16.941,10.95c-6.49-7.061-13.798-13.468-20.434-20.413c4.746-4.979,11.543,5.603,14.949,8.461
		c3.835-6.55-14.996-12.452-13.213-24.153c5.432,1.779,7.381,6.348,10.217,10.207c0.29-11.129-4.868-17.896-10.971-23.905
		C30.865-17.027,30.948-17.773,31.031-18.521z M138.912,52.408c5.603,0.371,7.403-3.434,11.207,1.24
		c0.001-3.016,8.461-7.508,3.233-8.719C153.283,51.814,133.984,47.727,138.912,52.408z M125.988,107.706
		c5.075-1.274,14.459,0.909,18.925-6.983C138.884,101.825,121.588,102.045,125.988,107.706z M6.712,160.319
		c-0.01-3.397,1.717-8.185-1.25-9.214c1.796,6.009-7.993,9.932-1.487,13.449c0.795-4.109,7.743-0.536,9.462-3.491
		c-1.055-5.62,7.521-17.537,1.488-13.45C12.634,152.404,12.286,159.625,6.712,160.319z M-29.145,176.774
		c1.338-9.242,1.298-17.384-2.004-22.912C-29.753,160.918-38.464,176.066-29.145,176.774z M127.031,200.855
		c-4.555-1.121,0.562-9.985-5.733-9.71c-0.694,1.684-0.552,4.416-2.738,4.236c1.191-5.04,0.392-8.487-3.493-9.463
		C112.192,195.133,124.747,202.549,127.031,200.855z M169.654,266.837c4.954,4.886,8.396,10.985,9.225,19.172
		c-2.54-0.05-3.129-3.642-4.484-0.495c6.374,6.475,7.594,17.074,10.724,26.146c9.21-13.161,26.547-16.173,39.09-25.174
		c-4.546-1.129-1.188-8.584-5.733-9.712c-3.525,5.24,3.799,11.433-1.24,11.209c-6.643-8.301-1.455-26.076-9.979-32.872
		c-0.655,6.772,3.907,19.871-2.728,24.659c-0.06-2.676,1.089-6.319-1.497-6.973c-0.693,1.682-0.55,4.414-2.738,4.236
		c-2.708-8.727,0.577-22.255,1.478-33.874c-7.984-18.744,1.733,16.498-6.963,21.921c2.234-10.474-2.333-4.485-6.476-2.985
		c1.395-10.654-6.759-13.659-6.488-23.41c-2.482,3.703-2.007,11.102-5.97,12.954c-2.359-17.021-1.028-44.585-5.485-11.952
		c-1.274-6.899-2.579-8.58-5.735-9.711c-0.157-21.999-1.167-20.511-8.719-3.233c-8.58-6.067-0.428-25.537-5.247-34.616
		c-3.927,10.055,2.123,22.68-2.975,26.9c-1.389-17.736-6.519,0.699-11.716-17.18C139.758,228.234,178.775,236.906,169.654,266.837z
		 M-6.469,197.436c-5.856,28.498,7.482,2.441,2.985-6.477C-4.126,193.558-3.802,197.364-6.469,197.436z M182.34,234.202
		c-0.078-4.865,4.381-23.722-0.258-18.181C182.16,220.887,177.7,239.744,182.34,234.202z M141.039,320.399
		c-0.676-11.146,11.393-19.659,5.465-28.894c-0.249,6.492-1.828,11.325-5.971,12.955c-2.08-10.398,8.168-18.517,2.727-24.661
		c-3.047,5.552-3.086,14.857-8.708,17.191c0.34-3.292,2.875-18.252-1.003-11.457c-0.279,5.604-2.188,9.175-5.724,10.712
		c-2.301-16.374,14.536-44.286,8.947-39.855c-4.578,5.339-5.023,15.838-11.198,19.185c-1.338-14.5,11.947-24.111,8.202-33.13
		c-4.848,8.403-6.606,20.663-14.182,25.661c-0.585-7.706,5.19-20.504,0.485-24.906c-12.168,32.229,7.149,67.246,1.796,106.847
		c14.88,0.724,22.65-7.437,37.108-7.239c-7.388-7.578,4.517-8.128-0.506-15.938c-7.441,11.562,0.031-9.89-3.244-11.706
		c-1.632,5.615-4.284,9.958-8.214,12.708c0.753-9.367,10.151-21.216,7.459-26.406C150.715,308.67,147.283,316.288,141.039,320.399z
		 M360.466,326.515c-9.551,5.592-30.628,17.48-30.867,32.892c9.392-13.812,31.567-25.185,33.854-39.37
		C358.966,324.146,354.169,320.504,360.466,326.515z M221.987,327.083c8.056,0.624,19.363-18.763,15.434-16.445
		C233.149,317.207,226.958,321.384,221.987,327.083z M233.445,326.082c12.125,3.997,17.168-14.163,17.676-16.198
		C246.443,316.798,238.122,319.166,233.445,326.082z M249.881,321.092c-0.892,3.141-4.112,3.373-5.228,6.229
		c3.736,0.413,7.473,0.825,11.208,1.239c0.489-6.635,15.977-17.377,10.702-14.7C259.022,315.791,250.497,332.825,249.881,321.092z
		 M189.612,332.579c9.694-0.447,21.266-23.59,20.414-20.434C202.855,316.863,189.823,327.654,189.612,332.579z M206.048,327.589
		c7.171,0.326,15.145-11.531,12.943-14.452C215.192,318.598,210.263,322.648,206.048,327.589z M284.259,338.509
		c11.565,6.43,22.045,24.533,33.636,24.143c-3.058-7.191-20.113-10.4-9.474-16.933c-3.842-1.78-10.035,5.544-11.207-1.237
		c0.993-1.07,11.255-2.111,4.979-3.988c-1.501,1.143-11.212,4.068-11.208-1.24c2.066-0.438,10.485-4.978,5.228-6.229
		C294.28,337.414,285.569,333.34,284.259,338.509z M373.431,352.911c-2.496,5.014,6.771,10.525,1.003,11.455
		c-5.066-0.871-7.188-14.455-12.706-8.211c4.535,1.135,3.812,6.479,5.732,9.709c17.649-1.496,40.154,13.643,44.339,9.443
		c-7.875,1.375-4.591-16.539-10.218-10.209c2.935,0.358,2.168,6.53-0.743,6.727c-2.264-4.998-5.586-9.146-9.968-12.447
		c-1.312,3.758,2.689,6.113-0.744,6.723C385.05,366.235,377.803,359.149,373.431,352.911z M356.499,362.382
		c-15.649-1.346-29.485,0.646-9.214,1.252c4.254,0.127,10.397,3.459,15.938-0.508c-4.022,0.205-5.772-11.322-8.472-5.475
		C356.445,358.339,357.153,359.817,356.499,362.382z M220.521,381.38c5.09-8.156,20.639-16.67,20.66-22.676
		c-10.672,7.086-19.264,16.768-33.864,18.947c1-3.303,10.683-8.375,5.723-10.713c-4.64,1.18-12.053,11.934-14.441,7.479
		c5.925-11.348,28.448-15.453,27.883-26.416c-15.588,8.602-27.257,22.096-46.064,26.674c8.859-10.195,21.265-15.969,30.123-26.164
		c-15.209,4.816-22.648,19.344-40.836,20.441c-0.956-6.297,4.955-4.018,5.476-8.469c-8.475-0.281-17.324,12.254-25.403,3.998
		c8.393-1.433,14.691-5.469,19.421-11.474c-9.123,0.597-23.025,8.562-29.886,3.509c7.423-0.941,13.767-3.228,18.926-6.984
		c-12.296-0.047-19.402,6.387-34.37,3.006c1.279,65.719-11.147,142.41-14.338,211.711
		c47.708-77.346,111.102-135.104,181.474-184.148c-6.63-2.961,3.238-5.697,3.233-8.719c-10.542,1.35-17.699,20.342-26.642,15.205
		c1.866-6.299,15.63-10.926,10.95-16.941c-5.056,5.597-10.048,11.267-19.422,11.467c1.334-3.676,11.678-8.903,5.972-12.952
		c-4.63,4.422-7.885,10.562-14.938,11.963c-1.681-4.412,7.542-6.748,0.992-8.97c-3.368,4.304-4.833,10.978-12.448,9.972
		c-0.662-6.744,14.094-15.799,8.213-12.707C238.696,371.821,227.319,384.683,220.521,381.38z M179.664,360.978
		c3.778-7.188,12.64-8.024,17.427-13.955C190.054,348.538,175.481,353.923,179.664,360.978z M297.978,378.601
		c4.368-5.598,12.269-6.793,17.183-11.713C307.374,366.634,295.604,374.638,297.978,378.601z M295.261,423.683
		c-1.115,33.185,6.337,16.396,3.233-8.719C297.454,417.919,294.831,418.892,295.261,423.683z"/>
</g>
</svg>
