<?xml version="1.0" encoding="utf-8"?>
<!-- Generator: Adobe Illustrator 16.0.0, SVG Export Plug-In . SVG Version: 6.00 Build 0)  -->
<!DOCTYPE svg PUBLIC "-//W3C//DTD SVG 1.1//EN" "http://www.w3.org/Graphics/SVG/1.1/DTD/svg11.dtd">
<svg version="1.1" id="coctail" xmlns="http://www.w3.org/2000/svg" xmlns:xlink="http://www.w3.org/1999/xlink" x="0px" y="0px"
	 width="275.106px" height="457.918px" viewBox="0 0 275.106 457.918" enable-background="new 0 0 275.106 457.918"
	 xml:space="preserve">
<pattern  x="115.5" y="694" width="51.9" height="51.9" patternUnits="userSpaceOnUse" id="Octagons_Color" viewBox="0 -51.9 51.9 51.9" overflow="visible">
	<g>
		<polygon fill="none" points="0,0 51.9,0 51.9,-51.9 0,-51.9 		"/>
		<g>
			<polygon fill="none" points="0,-51.9 0,0 51.9,0 51.9,-51.9 			"/>
			<polygon fill="none" points="17.3,-26 25.9,-34.6 34.6,-26 25.9,-17.3 			"/>
			<polygon points="25.9,-8.699 0,-8.699 0,-17.3 25.9,-17.3 			"/>
			<polygon fill="#FBDF38" points="51.9,-51.9 51.9,-43.3 43.2,-51.9 			"/>
			<polygon points="8.6,-26 8.6,-51.9 17.3,-51.9 17.3,-26 			"/>
			<polygon fill="#FBDF38" points="0,-51.9 8.6,-51.9 0,-43.3 			"/>
			<polygon fill="#FBDF38" points="0,-17.3 0,-34.6 8.6,-26 			"/>
			<polygon fill="#FBDF38" points="34.6,0 17.3,0 25.9,-8.699 			"/>
			<polygon fill="#FBDF38" points="0,0 0,-8.699 8.6,0 			"/>
			<polygon fill="#FBDF38" points="17.3,-26 25.9,-34.6 34.6,-26 25.9,-17.3 			"/>
			<polygon points="43.2,-26 43.2,0 34.6,0 34.6,-26 			"/>
			<polygon points="25.9,-43.3 51.9,-43.3 51.9,-34.6 25.9,-34.6 			"/>
			<polygon fill="#FBDF38" points="51.9,-34.6 51.9,-17.3 43.2,-26 			"/>
			<polygon fill="#FBDF38" points="43.2,0 51.9,-8.699 51.9,0 			"/>
			<polygon fill="#FBDF38" points="17.3,-51.9 34.6,-51.9 25.9,-43.3 			"/>
			<polygon fill="#EC5C2F" points="0,-34.6 0,-43.3 8.6,-51.9 8.6,-26 			"/>
			<polygon fill="#EC5C2F" points="25.9,-34.6 17.3,-26 17.3,-51.9 25.9,-43.3 			"/>
			<polygon fill="#563996" points="34.6,-51.9 43.2,-51.9 51.9,-43.3 25.9,-43.3 			"/>
			<polygon fill="#563996" points="34.6,-26 25.9,-34.6 51.9,-34.6 43.2,-26 			"/>
			<polygon fill="#EC5C2F" points="43.2,-26 51.9,-17.3 51.9,-8.699 43.2,0 			"/>
			<polygon fill="#EC5C2F" points="25.9,-17.3 34.6,-26 34.6,0 25.9,-8.699 			"/>
			<polygon fill="#563996" points="17.3,0 8.6,0 0,-8.699 25.9,-8.699 			"/>
			<polygon fill="#563996" points="17.3,-26 25.9,-17.3 0,-17.3 8.6,-26 			"/>
			<polygon fill="#563996" points="8.6,-26 8.6,-51.9 17.3,-51.9 17.3,-26 			"/>
			<polygon fill="#EC5C2F" points="25.9,-43.3 51.9,-43.3 51.9,-34.6 25.9,-34.6 			"/>
			<polygon fill="#563996" points="34.6,0 34.6,-26 43.2,-26 43.2,0 			"/>
			<polygon fill="#EC5C2F" points="25.9,-8.699 0,-8.699 0,-17.3 25.9,-17.3 			"/>
		</g>
	</g>
</pattern>
<pattern  id="szivoszal_1_" xlink:href="#Octagons_Color" patternTransform="matrix(1 0 0 -1 -366.9004 -16976.1641)">
</pattern>
<path id="szivoszal" fill="url(#szivoszal_1_)" d="M13.435,75.764c9.948-10.728,17.652-23.406,24.479-36.28
	c3.316-6.242,6.339-12.581,9.363-19.018c1.463-3.121,2.828-6.339,4.194-9.46c1.073-2.438,3.218-5.754,3.218-8.485
	c0-3.121-10.728-1.073-10.728,2.828c0,1.171,0,2.34,0,3.511c0,2.146,5.072,1.365,6.047,1.073c1.072-0.391,2.146-0.683,3.121-1.268
	c0.878-0.488,4.194-2.145,0.78-1.268c-1.658,0-3.316,0-4.974,0c0.195,0.098,0.39,0.195,0.585,0.195
	c-0.39-0.585-0.683-1.17-1.072-1.756c-1.171,3.414-2.341,6.827-3.511,10.143c-1.366,3.999,8.387,0.975,9.557,0
	c2.341-1.853,5.461-2.536,7.9-4.486c-3.023-0.292-6.144-0.487-9.167-0.78c-2.34,2.633-3.803,5.949-5.656,8.973
	c-2.633,4.291,6.729,2.34,8.192,1.462c3.316-1.95,6.924-2.633,10.045-5.169c-3.023-0.292-6.144-0.488-9.167-0.78
	c-1.755,2.926-2.731,6.046-4.486,8.973c-2.633,4.292,6.729,2.34,8.192,1.462c2.438-1.365,5.267-1.755,7.802-2.73
	c-2.438-0.488-4.974-0.877-7.412-1.365c-1.171,2.243-2.243,4.486-3.414,6.729c-1.366,2.633,5.169,2.048,6.046,1.755
	c3.901-1.268,7.9-2.145,11.605-3.803c-2.145-0.976-4.193-1.853-6.339-2.829c-4.193,3.121-6.924,7.705-9.752,11.898
	c-2.146,3.316,4.096,2.926,5.657,2.536c3.316-0.976,6.827-1.268,10.143-2.243c-2.048-0.585-3.999-1.17-6.047-1.755
	c-0.39,2.047-1.657,3.608-2.243,5.559c-0.975,3.316,6.242,1.853,7.412,1.365c3.901-1.755,7.9-2.926,11.215-5.754
	c-3.023-0.292-6.144-0.488-9.167-0.78c-3.511,3.804-5.559,8.582-9.07,12.289c-3.218,3.414,6.047,2.438,7.022,2.048
	c3.121-1.073,6.144-2.438,9.167-3.998c-2.731-0.488-5.462-0.976-8.192-1.463c-1.366,2.341-3.121,4.389-4.487,6.729
	c-2.633,4.389,7.51,2.243,9.167,0.78c2.146-1.95,4.584-3.608,6.827-5.559c-3.023-0.293-6.144-0.487-9.168-0.78
	c-0.877,0.975-1.658,2.34-2.828,3.023c-1.268,0.877-3.413,2.926-0.975,3.901c1.951,0.877,4.096,0.683,6.144,0.098
	c1.17-0.293,2.244-0.78,3.316-1.365c1.17-0.585,2.829-0.781-0.195-0.098c-1.853-0.195-3.803-0.293-5.657-0.488
	c0.098,0.098,0.098,0.195,0.195,0.195c0-0.682,0-1.365,0-2.048c-0.78,1.073-1.462,2.243-2.243,3.316
	c-2.536,3.804,5.559,2.73,7.021,2.048c2.829-1.268,5.852-1.95,8.777-2.925c-1.853-0.878-3.706-1.658-5.656-2.536
	c-1.462,2.633-3.121,5.169-4.486,7.802c-2.438,4.583,7.51,2.34,9.167,0.78c2.146-1.95,4.584-3.608,6.827-5.558
	c-3.023-0.293-6.144-0.488-9.167-0.781c-3.316,5.461-6.144,10.826-9.265,15.994c-2.536,4.292,6.729,2.341,8.192,1.463
	c3.608-2.145,7.704-3.413,11.313-5.559c-2.828,0-5.754,0-8.583,0c6.437,12.191,11.704,25.161,17.262,37.742
	c11.801,26.332,23.504,52.664,35.109,78.997c28.575,64.464,56.955,129.124,85.433,193.589c12.483,28.186,24.869,56.468,37.45,84.556
	c1.561,3.511,11.996,0.194,10.728-2.829c-21.943-48.957-43.399-98.11-65.05-147.166c-27.502-62.417-55.005-125.029-82.8-187.446
	c-8.973-20.09-17.165-40.863-27.405-60.368c-1.462-2.731-6.632-1.268-8.583,0c-3.608,2.145-7.705,3.414-11.313,5.559
	c2.731,0.488,5.461,0.975,8.192,1.463c3.121-5.168,5.949-10.533,9.07-15.701c2.633-4.389-7.51-2.244-9.167-0.781
	c-2.146,1.951-4.584,3.609-6.827,5.559c3.023,0.292,6.144,0.488,9.167,0.78c1.463-2.633,3.121-5.169,4.487-7.802
	c1.755-3.316-3.804-3.12-5.657-2.536c-3.901,1.268-7.899,2.146-11.606,3.804c2.341,0.682,4.682,1.365,7.022,2.047
	c0.78-1.072,1.463-2.243,2.243-3.316c0.488-0.78,0.488-1.268,0-2.048c-0.098-0.097-0.098-0.194-0.195-0.194
	c-0.975-1.463-4.389-0.781-5.657-0.488c-0.877,0.292-1.853,0.682-2.828,1.17c-1.365,0.683-2.438,0.487,0.585,0.097
	c1.17,0.098,2.341,0.195,3.511,0.293c-0.195-0.098-0.391-0.195-0.487-0.195c-0.293,1.268-0.683,2.634-0.976,3.901
	c2.536-1.658,4.193-3.609,6.242-5.852c1.268-1.462-0.293-2.536-1.658-2.828c-2.438-0.39-5.656,0.39-7.509,2.048
	c-2.146,1.951-4.583,3.608-6.827,5.559c3.023,0.293,6.144,0.488,9.167,0.781c1.365-2.341,3.121-4.389,4.486-6.73
	c2.633-4.389-6.729-2.145-8.192-1.462c-2.146,1.072-4.389,1.95-6.729,2.731c2.34,0.682,4.682,1.365,7.022,2.048
	c3.511-3.804,5.559-8.583,9.07-12.289c1.268-1.365-0.39-2.536-1.658-2.828c-2.536-0.488-5.559,0.39-7.51,2.047
	c-1.951,1.658-4.584,2.146-6.827,3.219c2.438,0.487,4.974,0.877,7.412,1.365c0.585-2.048,1.853-3.511,2.243-5.56
	c0.488-2.828-4.583-2.243-6.046-1.755c-3.316,0.975-6.827,1.268-10.143,2.243c1.854,0.878,3.707,1.658,5.657,2.536
	c2.438-3.706,4.779-7.802,8.388-10.435c4.583-3.414-4.292-3.707-6.339-2.829c-2.829,1.268-5.852,1.951-8.777,2.926
	c2.047,0.585,3.998,1.17,6.046,1.756c1.17-2.244,2.243-4.487,3.414-6.729c1.561-3.121-6.632-1.658-7.413-1.366
	c-3.51,1.366-6.924,2.048-10.24,3.999c2.73,0.488,5.461,0.976,8.192,1.463c1.755-2.926,2.73-6.046,4.486-8.972
	c2.731-4.487-7.607-2.048-9.167-0.781c-2.145,1.756-5.656,2.34-8.094,3.803c2.73,0.488,5.461,0.975,8.192,1.463
	c1.853-3.023,3.316-6.339,5.656-8.973c1.171-1.365-0.487-2.536-1.755-2.828c-2.536-0.487-5.559,0.39-7.509,2.048
	c-2.341,1.854-5.461,2.536-7.899,4.486c3.218,0,6.339,0,9.558,0c1.17-3.316,2.243-6.729,3.413-10.045
	c0.292-0.781-0.39-1.463-1.073-1.756c-2.048-0.877-3.999-0.682-6.144-0.097c-1.17,0.39-2.243,0.877-3.316,1.56
	c-1.658,1.073-4.584,2.341,0,0.781c2.048,0.39,3.999,0.682,6.046,1.073c0-1.171,0-2.341,0-3.511c0-3.121-10.728-1.073-10.728,2.828
	c0,1.755-2.438,5.364-3.121,7.022c-1.365,3.218-2.731,6.339-4.193,9.46c-3.121,6.924-6.437,13.751-10.045,20.383
	C20.066,54.112,12.752,65.816,3.487,75.666c-1.755,1.951,1.561,2.926,2.828,2.926C8.949,78.592,11.679,77.714,13.435,75.764
	L13.435,75.764z"/>
</svg>
