<?xml version="1.0" encoding="utf-8"?>
<!-- Generator: Adobe Illustrator 16.0.0, SVG Export Plug-In . SVG Version: 6.00 Build 0)  -->
<!DOCTYPE svg PUBLIC "-//W3C//DTD SVG 1.1//EN" "http://www.w3.org/Graphics/SVG/1.1/DTD/svg11.dtd">
<svg version="1.1" id="coctail" xmlns="http://www.w3.org/2000/svg" xmlns:xlink="http://www.w3.org/1999/xlink" x="0px" y="0px"
	 width="240.166px" height="297.5px" viewBox="150.5 0 240.166 297.5" enable-background="new 150.5 0 240.166 297.5"
	 xml:space="preserve">
<g id="ernyo">
	
		<linearGradient id="SVGID_1_" gradientUnits="userSpaceOnUse" x1="238.0723" y1="357.1758" x2="222.4107" y2="364.4789" gradientTransform="matrix(1 0 0 -1 8.5 571)">
		<stop  offset="0" style="stop-color:#C49A6C"/>
		<stop  offset="0.1697" style="stop-color:#A97C50"/>
		<stop  offset="0.3152" style="stop-color:#C49A6C"/>
		<stop  offset="0.4788" style="stop-color:#A97C50"/>
		<stop  offset="0.7152" style="stop-color:#C49A6C"/>
		<stop  offset="0.8667" style="stop-color:#A97C50"/>
		<stop  offset="1" style="stop-color:#C49A6C"/>
	</linearGradient>
	<path fill="url(#SVGID_1_)" d="M205.366,299.099c0,0,1.951-11.703,3.218-15.41c13.751-40.961,62.222-162.673,62.222-162.673
		l4.584,1.755c0,0-45.252,122.688-62.222,162.674C211.608,289.053,205.366,299.099,205.366,299.099z"/>
	
		<linearGradient id="SVGID_2_" gradientUnits="userSpaceOnUse" x1="194.9351" y1="460.4404" x2="250.7559" y2="574.8901" gradientTransform="matrix(1 0 0 -1 8.5 571)">
		<stop  offset="0" style="stop-color:#ED1C24"/>
		<stop  offset="0.5" style="stop-color:#BE1E2D"/>
		<stop  offset="1" style="stop-color:#ED1C24"/>
	</linearGradient>
	<path fill="url(#SVGID_2_)" stroke="#BE1E2D" stroke-miterlimit="10" d="M154.945,79.177c1.268,0.195,2.633,0.488,3.901,0.976
		c6.339,2.438,10.436,7.997,10.436,13.75l1.853,0.683l139.658-73.34L154.945,79.177z"/>
	
		<linearGradient id="SVGID_3_" gradientUnits="userSpaceOnUse" x1="260.5527" y1="438.1562" x2="312.1418" y2="543.9296" gradientTransform="matrix(1 0 0 -1 8.5 571)">
		<stop  offset="0" style="stop-color:#ED1C24"/>
		<stop  offset="0.5" style="stop-color:#BE1E2D"/>
		<stop  offset="1" style="stop-color:#ED1C24"/>
	</linearGradient>
	<path fill="url(#SVGID_3_)" stroke="#BE1E2D" stroke-miterlimit="10" d="M272.952,122.576c6.437,2.438,10.533,8.29,10.338,14.044
		l0.683,0.292L310.5,22.124l-55.103,104.06l0.488,0.196C259.493,121.894,266.417,120.138,272.952,122.576z"/>
	
		<linearGradient id="SVGID_4_" gradientUnits="userSpaceOnUse" x1="219.1089" y1="451.9912" x2="273.6133" y2="563.7419" gradientTransform="matrix(1 0 0 -1 8.5 571)">
		<stop  offset="0" style="stop-color:#ED1C24"/>
		<stop  offset="0.5" style="stop-color:#BE1E2D"/>
		<stop  offset="1" style="stop-color:#ED1C24"/>
	</linearGradient>
	<path fill="url(#SVGID_4_)" stroke="#BE1E2D" stroke-miterlimit="10" d="M214.339,104.631c5.559,2.048,9.655,6.047,11.312,10.436
		l1.854,0.683l83.287-94.503L198.93,105.021l0,0C203.123,102.876,208.78,102.583,214.339,104.631z"/>
	<path fill="#FFFFFF" stroke="#BE1E2D" stroke-miterlimit="10" d="M244.767,112.824c6.242,2.34,10.241,7.704,10.436,13.263h0.098
		l55.492-104.938l-84.166,94.21l1.463,0.585C231.894,111.946,238.525,110.482,244.767,112.824z"/>
	<path fill="#FFFFFF" stroke="#BE1E2D" stroke-miterlimit="10" d="M187.227,93.318c5.851,2.243,10.045,6.729,11.411,11.605
		l0.195,0.098l112.253-84.653L170.257,94.294l0.78,0.292C175.231,91.758,181.375,91.075,187.227,93.318z"/>
	
		<linearGradient id="SVGID_5_" gradientUnits="userSpaceOnUse" x1="316.2036" y1="425.9141" x2="362.1568" y2="520.1321" gradientTransform="matrix(1 0 0 -1 8.5 571)">
		<stop  offset="0" style="stop-color:#ED1C24"/>
		<stop  offset="0.5" style="stop-color:#BE1E2D"/>
		<stop  offset="1" style="stop-color:#ED1C24"/>
	</linearGradient>
	<path fill="url(#SVGID_5_)" stroke="#BE1E2D" stroke-miterlimit="10" d="M390.666,165c-1.073-0.683-2.243-1.268-3.609-1.756
		c-6.436-2.243-13.166-0.585-16.872,3.804l-1.853-0.683L309.524,21.051L390.666,165z"/>
	
		<linearGradient id="SVGID_6_" gradientUnits="userSpaceOnUse" x1="291.1377" y1="430.4004" x2="340.1783" y2="530.9486" gradientTransform="matrix(1 0 0 -1 8.5 571)">
		<stop  offset="0" style="stop-color:#ED1C24"/>
		<stop  offset="0.5" style="stop-color:#BE1E2D"/>
		<stop  offset="1" style="stop-color:#ED1C24"/>
	</linearGradient>
	<path fill="url(#SVGID_6_)" stroke="#BE1E2D" stroke-miterlimit="10" d="M328.737,146.373c-5.559-1.951-11.312-1.561-15.409,0.683
		l-1.854-0.683l-1.951-125.418l30.819,135.561l0,0C338.489,152.224,334.296,148.323,328.737,146.373z"/>
	<path fill="#FFFFFF" stroke="#BE1E2D" stroke-miterlimit="10" d="M300.162,133.207c-6.242-2.244-12.874-0.585-16.58,3.511h-0.098
		l26.039-115.569l2.829,125.711l-1.463-0.487C310.5,140.716,306.403,135.352,300.162,133.207z"/>
	<path fill="#FFFFFF" stroke="#BE1E2D" stroke-miterlimit="10" d="M356.727,155.052c-5.95-2.048-12.094-1.268-16.287,1.561
		l-0.195-0.098L309.816,20.174l59.394,146.582l-0.78-0.292C366.967,161.586,362.676,157.198,356.727,155.052z"/>
	<path fill="#BE1E2D" stroke="#BE1E2D" stroke-miterlimit="10" d="M309.427,14.517c1.56-4.193,4.194-7.021,5.754-6.437
		c1.561,0.585,1.561,4.486-0.098,8.583c-1.56,4.193-4.193,7.12-5.754,6.437C307.769,22.515,307.866,18.613,309.427,14.517z"/>
</g>
</svg>
