<?xml version="1.0" encoding="utf-8"?>
<!-- Generator: Adobe Illustrator 16.0.0, SVG Export Plug-In . SVG Version: 6.00 Build 0)  -->
<!DOCTYPE svg PUBLIC "-//W3C//DTD SVG 1.1//EN" "http://www.w3.org/Graphics/SVG/1.1/DTD/svg11.dtd">
<svg version="1.1" id="viz" xmlns="http://www.w3.org/2000/svg" xmlns:xlink="http://www.w3.org/1999/xlink" x="0px" y="0px"
	 width="1469.902px" height="277.685px" viewBox="0 275.6 1469.902 277.685" enable-background="new 0 275.6 1469.902 277.685"
	 xml:space="preserve">
<linearGradient id="SVGID_1_" gradientUnits="userSpaceOnUse" x1="730.1831" y1="91.1943" x2="730.1831" y2="368.8784" gradientTransform="matrix(1 0 0 -1 8.5 644.4785)">
	<stop  offset="0" style="stop-color:#C49A6C;stop-opacity:0.3"/>
	<stop  offset="0.4041" style="stop-color:#00C4FF"/>
	<stop  offset="0.4649" style="stop-color:#00C0FC"/>
	<stop  offset="0.5246" style="stop-color:#00B4F2"/>
	<stop  offset="0.5837" style="stop-color:#00A1E2"/>
	<stop  offset="0.6408" style="stop-color:#0086CD"/>
	<stop  offset="0.6884" style="stop-color:#0873BF"/>
	<stop  offset="0.7708" style="stop-color:#1458AB"/>
	<stop  offset="0.844" style="stop-color:#1B489F"/>
	<stop  offset="0.9" style="stop-color:#1E429B"/>
	<stop  offset="1" style="stop-color:#2E3192"/>
</linearGradient>
<path fill="url(#SVGID_1_)" d="M1485.298,275.6L1.775,275.627c0,0-5.573,0.117-9.707,0c0.513,63.416,2.793,204.859,2.793,204.859
	c16.097,10.226,78.747,46.642,103.988,41.854c56.3-9.584,112.602-26.353,170.849-28.748c60.184-2.396,133.959,19.164,192.202,19.164
	c56.302,0,137.845,33.535,194.145,38.325c137.847,11.973,242.686-28.741,382.471-28.741c110.664,0,219.383,19.161,328.104,19.161
	c36.886,0,85.424,4.79,116.488-9.578"/>
</svg>
